<svg width="51" height="48" viewBox="0 0 51 48" fill="none" xmlns="http://www.w3.org/2000/svg">
<rect width="50.6005" height="48" rx="24" fill="#F4F4F4"/>
<g clip-path="url(#clip0_1323_1004)">
<path d="M35 24C35 18.4766 30.5234 14 25 14C19.4766 14 15 18.4766 15 24C15 28.9922 18.6562 33.1289 23.4375 33.8789V26.8906H20.8984V24H23.4375V21.7969C23.4375 19.291 24.9297 17.9062 27.2148 17.9062C28.3086 17.9062 29.4531 18.1016 29.4531 18.1016V20.5625H28.1914C26.9492 20.5625 26.5625 21.334 26.5625 22.125V24H29.3359L28.8926 26.8906H26.5625V33.8789C31.3438 33.1289 35 28.9922 35 24Z" fill="#1877F2"/>
<path d="M28.8926 26.8906L29.3359 24H26.5625V22.125C26.5625 21.334 26.9492 20.5625 28.1914 20.5625H29.4531V18.1016C29.4531 18.1016 28.3086 17.9062 27.2148 17.9062C24.9297 17.9062 23.4375 19.291 23.4375 21.7969V24H20.8984V26.8906H23.4375V33.8789C23.9473 33.959 24.4688 34 25 34C25.5312 34 26.0527 33.959 26.5625 33.8789V26.8906H28.8926Z" fill="white"/>
</g>
<defs>
<clipPath id="clip0_1323_1004">
<rect width="20" height="20" fill="white" transform="translate(15 14)"/>
</clipPath>
</defs>
</svg>
