<svg width="48" height="48" viewBox="0 0 48 48" fill="none" xmlns="http://www.w3.org/2000/svg">
<rect width="48" height="48" rx="24" fill="#F4F4F4"/>
<path d="M31.4575 22.707H24.4743C24.3263 22.707 24.1844 22.7628 24.0798 22.8621C23.9751 22.9613 23.9163 23.0959 23.9163 23.2363V25.3522C23.9163 25.4925 23.9751 25.6272 24.0798 25.7264C24.1844 25.8257 24.3263 25.8815 24.4743 25.8815H28.4056C27.9756 26.938 27.1785 27.8239 26.1461 28.3928L27.8228 31.1475C29.1245 30.4532 30.2073 29.4421 30.9595 28.2183C31.7118 26.9946 32.1061 25.6026 32.1019 24.186C32.1055 23.8374 32.0733 23.4892 32.0058 23.1465C31.983 23.024 31.9156 22.9129 31.8155 22.8326C31.7153 22.7523 31.5886 22.7079 31.4575 22.707Z" fill="#167EE6"/>
<path d="M23.5456 29.0598C22.6319 29.0588 21.7346 28.8298 20.9437 28.3958C20.1528 27.9618 19.4961 27.338 19.0397 26.5872L16.1358 28.1737C16.6967 29.0972 17.444 29.9069 18.3349 30.5563C19.2258 31.2057 20.243 31.6822 21.3281 31.9586C22.4133 32.2349 23.5452 32.3057 24.6592 32.1669C25.7732 32.028 26.8475 31.6823 27.8206 31.1494V31.1475L26.1439 28.3928C25.3551 28.8289 24.4586 29.059 23.5456 29.0598Z" fill="#12B347"/>
<path d="M27.825 31.1495V31.1455L26.149 28.3909C25.3592 28.8293 24.4609 29.061 23.5459 29.0625V32.2389C25.0484 32.239 26.5244 31.8632 27.825 31.1495Z" fill="#0F993E"/>
<path d="M18.351 24.1195C18.3512 23.2521 18.5938 22.4002 19.0542 21.6508L16.1503 20.0642C15.3968 21.2962 15 22.6952 15 24.1195C15 25.5438 15.3968 26.9428 16.1503 28.1747L19.0542 26.5882C18.5938 25.8387 18.3512 24.9869 18.351 24.1195Z" fill="#FFD500"/>
<path d="M23.546 19.1771C24.7529 19.176 25.9224 19.5742 26.853 20.3032C26.9592 20.3878 27.0951 20.4315 27.2337 20.4255C27.3722 20.4196 27.5034 20.3645 27.6011 20.2711L29.1817 18.7718C29.2361 18.7198 29.2787 18.6577 29.3068 18.5894C29.3348 18.5211 29.3477 18.4481 29.3447 18.3748C29.3416 18.3016 29.3227 18.2297 29.289 18.1637C29.2554 18.0977 29.2078 18.039 29.1492 17.9913C28.1978 17.2055 27.0747 16.6294 25.8607 16.3045C24.6467 15.9795 23.3718 15.9137 22.1278 16.1118C20.8838 16.3099 19.7014 16.767 18.6658 17.4502C17.6302 18.1334 16.767 19.0258 16.1383 20.0632L19.0422 21.6497C19.4984 20.8992 20.1547 20.2756 20.9452 19.8416C21.7357 19.4076 22.6327 19.1785 23.546 19.1771Z" fill="#FF4B26"/>
<path d="M26.8528 20.3032C26.9591 20.3878 27.0949 20.4314 27.2335 20.4255C27.3721 20.4195 27.5032 20.3644 27.6009 20.2711L29.1815 18.7717C29.236 18.7197 29.2786 18.6577 29.3066 18.5894C29.3347 18.5211 29.3476 18.448 29.3445 18.3748C29.3415 18.3015 29.3225 18.2297 29.2889 18.1637C29.2553 18.0977 29.2076 18.039 29.149 17.9912C27.5959 16.7077 25.6057 16.0004 23.5459 16V19.1771C24.7527 19.1759 25.9222 19.5742 26.8528 20.3032Z" fill="#D93F21"/>
</svg>
