<svg width="48" height="48" viewBox="0 0 48 48" fill="none" xmlns="http://www.w3.org/2000/svg">
<rect width="48" height="48" rx="24" fill="black"/>
<path d="M32.3783 30.0556C32.0885 30.7116 31.7307 31.3372 31.3104 31.9226C30.9149 32.51 30.4535 33.0527 29.9348 33.541C29.4634 33.9992 28.833 34.2692 28.1673 34.298C27.6032 34.2741 27.049 34.1455 26.5345 33.9192C25.9792 33.6839 25.3823 33.5555 24.7769 33.541C24.155 33.5531 23.5413 33.6814 22.9693 33.9192C22.4753 34.136 21.9474 34.271 21.4076 34.3186C21.0679 34.3146 20.7326 34.2436 20.4219 34.11C20.1112 33.9763 19.8317 33.7828 19.6001 33.541C19.0595 33.0358 18.5777 32.4743 18.1631 31.8667C17.5143 30.9614 17.0019 29.9705 16.6415 28.9242C16.2301 27.799 16.0142 26.6152 16.0024 25.4211C15.9698 24.2495 16.2685 23.0917 16.8661 22.0739C17.3014 21.3406 17.9237 20.7287 18.6729 20.2973C19.4126 19.8667 20.2566 19.6349 21.1187 19.6257C21.7693 19.6633 22.4086 19.8081 23.0094 20.0538C23.4885 20.259 23.9928 20.4032 24.5099 20.4827C25.08 20.3672 25.6373 20.1979 26.1737 19.9773C26.8908 19.6938 27.6614 19.5606 28.435 19.5867C29.1719 19.6054 29.8943 19.7889 30.5466 20.1228C31.1988 20.4568 31.7632 20.9323 32.1961 21.5126C31.6006 21.8376 31.0923 22.2945 30.7125 22.8463C30.3326 23.3982 30.0919 24.0294 30.0098 24.6887C29.9277 25.348 30.0067 26.0168 30.2401 26.6409C30.4736 27.265 30.8551 27.8267 31.3536 28.2805C31.7532 28.6523 32.2194 28.9498 32.7292 29.1581C32.6188 29.4695 32.5019 29.768 32.3783 30.0534V30.0556ZM28.5462 15.3869C28.5334 16.3864 28.1474 17.3473 27.4602 18.0904C27.1082 18.5593 26.6448 18.9383 26.1096 19.1953C25.5744 19.4522 24.9833 19.5795 24.3866 19.5661C24.3713 19.4441 24.3638 19.3212 24.3639 19.1983C24.3988 18.1828 24.8079 17.2133 25.5165 16.4669C25.9095 16.0375 26.3867 15.6888 26.9202 15.4414C27.4195 15.1909 27.9656 15.0408 28.5258 15C28.5402 15.1283 28.5472 15.2572 28.547 15.3862L28.5462 15.3869Z" fill="white"/>
</svg>
