<svg width="280" height="288" viewBox="0 0 280 288" fill="none" xmlns="http://www.w3.org/2000/svg">
<path d="M220.935 286.57C249.554 286.57 272.754 281.964 272.754 276.282C272.754 270.601 249.554 265.995 220.935 265.995C192.317 265.995 169.117 270.601 169.117 276.282C169.117 281.964 192.317 286.57 220.935 286.57Z" fill="#D3E1EF"/>
<path d="M247.308 266.165C247.395 269.614 243.171 274.821 244.855 276.289C246.307 277.01 249.949 274.682 251.739 273.549C253.729 272.284 258.322 268.639 259.874 264.058C260.5 262.16 256.314 260.047 254.918 258.649C253.522 257.251 251.908 255.998 250.925 254.277C248.966 255.947 244.792 257.206 242.508 258.364C244.285 260.515 247.239 263.059 247.308 266.165Z" fill="#263238"/>
<path d="M194.92 271.05C193.305 272.518 190.095 273.53 188.242 274.669C188.071 274.746 187.916 274.858 187.788 274.997C187.66 275.136 187.561 275.3 187.498 275.479C187.397 276.004 187.892 276.447 188.355 276.7C190.983 278.123 196.441 278.18 199.363 277.611C202.286 277.041 206.091 276.516 208.125 274.979C208.882 270.379 206.66 265.874 204.101 261.996C203.968 261.757 203.779 261.554 203.55 261.407C203.233 261.274 202.884 261.241 202.549 261.312C199.351 261.641 195.314 260.68 195.871 264.565C195.99 265.4 197.26 265.874 197.342 266.855C197.467 268.462 196.021 270.075 194.92 271.05Z" fill="#263238"/>
<path d="M177.666 211.652C176.245 215.517 194.2 262.837 195.952 265.552C196.372 266.184 204.62 266.007 207.073 265.273C207.699 262.875 196.553 214.328 196.553 214.328C206.623 204.977 214.646 198.371 220.335 187.615C214.652 198.371 211.686 210.133 211.686 217.428C211.686 224.723 235.498 251.733 243.753 262.255C244.197 262.831 253.616 256.561 253.629 255.593C253.629 254.802 231.099 215.549 231.756 214.201C240.618 195.853 254.962 184.395 249.955 166.521C249.836 166.084 210.359 168.134 208.65 169.963C190.226 189.722 180.275 204.496 177.666 211.652Z" fill="#73DDD9"/>
<path d="M172.691 123.68C172.816 123.143 172.885 121.048 172.465 120.688C172.177 120.435 172.115 120.561 171.752 120.435C170.851 120.112 170.869 120.131 171.045 119.169C171.22 118.207 171.232 117.613 169.449 116.246C168.153 115.696 167.058 116.955 167.058 116.955C165.725 116.556 164.473 117.904 164.473 117.904C164.014 117.799 163.532 117.879 163.131 118.129C162.73 118.378 162.441 118.777 162.327 119.239C162.245 120.302 160.312 119.277 160.406 121.137C160.508 122.777 160.904 124.385 161.576 125.882C162.177 126.949 162.993 127.877 163.973 128.603C166.094 130.533 168.479 138.726 169.399 141.466C169.493 141.725 178.417 138.669 178.085 137.828C176.833 134.664 172.315 130.235 172.378 126.755C172.378 125.722 172.483 124.692 172.691 123.68Z" fill="#F8A382"/>
<path d="M170.206 119.663C169.683 120.091 169.096 120.43 168.466 120.669C168.105 120.752 167.75 120.858 167.402 120.985C167.195 121.07 167.027 121.23 166.93 121.433C166.833 121.637 166.814 121.869 166.877 122.086C167.183 123.352 169.38 123.668 170.375 123.352L169.993 122.959C169.825 123.753 169.754 124.565 169.78 125.376C169.78 125.781 170.406 125.781 170.406 125.376C170.381 124.623 170.444 123.869 170.594 123.13C170.609 123.076 170.61 123.019 170.596 122.965C170.583 122.911 170.555 122.861 170.516 122.822C170.477 122.782 170.429 122.753 170.375 122.738C170.322 122.724 170.266 122.723 170.212 122.738C169.906 122.845 169.581 122.886 169.258 122.86C168.935 122.834 168.621 122.741 168.335 122.586C167.659 121.852 167.64 121.46 168.285 121.416C168.454 121.365 168.629 121.308 168.798 121.238C169.464 120.966 170.086 120.595 170.644 120.137C170.957 119.884 170.513 119.441 170.2 119.688L170.206 119.663Z" fill="#DD7F66"/>
<path d="M167.527 118.226C168.121 118.757 168.568 119.436 168.823 120.194C168.954 120.58 169.555 120.416 169.449 120.03C169.165 119.164 168.66 118.389 167.984 117.784C167.684 117.511 167.24 117.954 167.546 118.226H167.527Z" fill="#DD7F66"/>
<path d="M165.112 119.043C165.662 119.799 166.291 120.493 166.989 121.112C167.29 121.377 167.734 120.934 167.434 120.662C166.765 120.083 166.159 119.434 165.625 118.726C165.387 118.404 164.843 118.726 165.087 119.043H165.112Z" fill="#DD7F66"/>
<path d="M162.959 120.663C164.342 121.384 165.293 124.56 167.34 123.282C167.684 123.067 167.371 122.516 167.027 122.732C165.988 123.364 165.149 122.168 164.655 121.466C164.308 120.918 163.836 120.462 163.278 120.137C162.921 119.954 162.602 120.498 162.965 120.688L162.959 120.663Z" fill="#DD7F66"/>
<path d="M161.501 122.725C162.477 123.231 162.659 124.75 163.885 124.914C164.943 125.06 165.437 123.965 165.681 123.124C165.692 123.082 165.695 123.039 165.69 122.996C165.684 122.954 165.671 122.912 165.649 122.875C165.628 122.838 165.6 122.805 165.566 122.779C165.532 122.753 165.494 122.733 165.453 122.722C165.412 122.711 165.369 122.708 165.327 122.713C165.284 122.719 165.244 122.733 165.207 122.754C165.17 122.776 165.138 122.804 165.112 122.838C165.086 122.872 165.067 122.911 165.055 122.953C164.981 123.358 164.794 123.733 164.517 124.035C163.891 124.617 163.322 123.959 162.978 123.446C162.696 122.928 162.287 122.492 161.789 122.181C161.432 121.998 161.119 122.542 161.476 122.731L161.501 122.725Z" fill="#DD7F66"/>
<path d="M183.849 124.174V143.535C180.432 137.087 179.431 136.815 175.97 131.039C175.732 130.64 174.505 130.703 174.255 130.248C174.074 129.637 173.925 129.016 173.811 128.388C173.154 127.198 164.661 129.527 164.661 130.286C164.824 130.817 165.212 131.861 165.381 132.386C165.55 132.912 164.98 134.247 165.143 134.727C168.059 143.307 171.752 149.805 176.051 154.904C181.571 161.453 188.918 161.75 190.639 160.504C192.83 158.922 197.955 153.544 199.676 142.56C200.821 135.24 197.242 129.685 196.084 124.149C195.151 119.688 195.821 107.236 190.865 109.818C184.957 112.918 183.849 118.594 183.849 124.174Z" fill="#73DDD9"/>
<path d="M187.379 126.724C189.532 130.659 192.385 134.177 194.382 138.207C198.005 145.629 208.638 161.687 208.644 169.963C208.644 172.55 249.949 167.343 249.949 166.521C249.504 149.026 243.878 121.972 233.89 107.679C232.119 105.148 230.398 103.446 227.601 102.168C223.583 100.334 215.966 101.188 214.527 101.491C206.804 103.111 199.063 105.288 192.304 108.894C185.545 112.5 184.456 120.947 187.379 126.724Z" fill="#EFD9D5"/>
<path d="M203.081 110.672C198.525 112.146 194.194 108.141 194.357 107.894C194.357 107.894 196.459 106.869 196.547 105.781C196.666 104.294 193.606 101.245 193.487 99.7577C193.224 96.3475 201.447 84.9968 203.719 87.8123C205.559 90.0837 211.773 100.137 214.076 101.409C215.528 101.7 209.064 108.736 203.081 110.672Z" fill="#EF9275"/>
<path d="M188.411 101.776C190.439 104.016 192.948 106.148 195.921 106.357C197.592 106.471 198.894 106.553 200.252 105.604C202.229 104.225 203.037 101.105 203.832 98.7771C205.559 93.7155 204.151 90.6469 202.286 86.9392C200.999 84.3333 199.427 81.882 197.598 79.6315C197.158 79.047 196.625 78.5403 196.021 78.132C195.25 77.72 194.391 77.5029 193.518 77.4993C191.759 77.4123 190.004 77.7437 188.394 78.4667C186.784 79.1897 185.365 80.2843 184.249 81.6625C179.024 88.2363 183.642 96.4551 188.411 101.776Z" fill="#F8A382"/>
<path d="M182.985 86.275C183.254 83.1748 186.515 83.7442 187.16 84.6933C187.979 83.2887 191.109 80.1631 194.044 83.643C196.891 87.0216 198.199 88.3883 202.336 86.9077C202.574 87.6227 204.445 87.2937 204.683 88.0086C205.978 86.2054 206.297 82.6053 204.877 80.897C206.072 80.0809 205.609 79.3153 205.609 79.3153C204.357 74.2537 197.636 70.7105 194.788 70.8624C190.408 71.0901 186.953 72.6719 185.908 75.924C180.276 73.4944 176.302 80.3972 177.04 85.6233C177.428 88.3883 178.78 93.6397 181.527 93.6397C184.688 93.6587 182.716 89.4765 182.985 86.275Z" fill="black"/>
<path d="M205.978 86.3003C205.713 85.4347 205.193 84.6712 204.489 84.1111C204.132 83.8396 203.704 83.6809 203.259 83.655C202.813 83.6291 202.37 83.7372 201.985 83.9656C200.89 84.7248 200.984 86.3635 201.197 87.6859C201.197 87.6859 203.243 92.1654 204.401 92.3616C205.559 92.5577 206.341 92.3616 206.429 90.1534C206.568 88.8511 206.414 87.5339 205.978 86.3003Z" fill="#F8A382"/>
<path d="M189.957 93.1524C190.952 94.633 190.714 96.3792 190.758 98.0749C190.76 98.1229 190.772 98.1699 190.793 98.2126C190.815 98.2553 190.846 98.2926 190.884 98.3217C190.921 98.3508 190.965 98.371 191.012 98.3808C191.058 98.3907 191.106 98.3899 191.152 98.3786C191.778 98.2267 192.341 97.8028 192.98 97.651C193.368 97.5624 193.205 96.9487 192.811 97.0182C192.185 97.1638 191.628 97.594 190.99 97.7395L191.384 98.0496C191.34 96.2337 191.559 94.3862 190.495 92.8108C190.27 92.4754 189.725 92.8108 189.957 93.1271V93.1524Z" fill="#DD7F66"/>
<path d="M191.284 99.8209C191.334 100.087 191.39 100.352 191.44 100.618C191.442 100.673 191.458 100.726 191.486 100.773C191.514 100.82 191.554 100.858 191.6 100.886C191.647 100.913 191.7 100.927 191.754 100.928C191.809 100.929 191.862 100.916 191.91 100.89C194.135 99.8092 195.892 97.9409 196.847 95.6387L196.416 95.7526C196.979 96.1656 197.421 96.7251 197.696 97.3718C197.97 98.0184 198.066 98.7281 197.974 99.4254C197.881 100.123 197.604 100.782 197.171 101.333C196.738 101.884 196.165 102.306 195.514 102.554C195.145 102.712 195.464 103.256 195.834 103.105C196.579 102.799 197.228 102.296 197.715 101.649C198.202 101.002 198.507 100.234 198.599 99.4266C198.691 98.6191 198.567 97.8014 198.239 97.0592C197.911 96.3171 197.391 95.6778 196.735 95.2085C196.662 95.1667 196.577 95.1552 196.496 95.1765C196.415 95.1978 196.346 95.2501 196.303 95.3224C195.402 97.5272 193.725 99.3168 191.597 100.346L192.066 100.618C192.108 100.286 192.044 99.9495 191.885 99.6564C191.741 99.2831 191.134 99.4413 191.259 99.8209H191.284Z" fill="#B55E4D"/>
<path d="M186.703 94.9428C186.584 93.9938 187.81 94.0128 188.43 94.0571C188.831 94.0571 188.831 93.4244 188.43 93.4244C187.842 93.3285 187.24 93.4237 186.709 93.6964C186.497 93.8258 186.325 94.0134 186.215 94.2374C186.104 94.4614 186.058 94.7126 186.083 94.9618C186.133 95.3604 186.759 95.3668 186.709 94.9618L186.703 94.9428Z" fill="#B55E4D"/>
<path d="M192.554 92.2857C192.593 92.0012 192.688 91.7275 192.834 91.481C192.979 91.2345 193.173 91.0203 193.403 90.8513C193.632 90.6823 193.893 90.562 194.17 90.4975C194.447 90.4331 194.734 90.4258 195.014 90.4762C195.402 90.5521 195.571 89.9447 195.176 89.8435C194.818 89.7725 194.448 89.7749 194.09 89.8507C193.733 89.9265 193.393 90.074 193.093 90.2846C192.792 90.4951 192.537 90.7645 192.341 91.0767C192.145 91.3889 192.014 91.7376 191.953 92.1022C191.897 92.5009 192.504 92.6717 192.579 92.2667L192.554 92.2857Z" fill="#B55E4D"/>
<path d="M184.149 91.944C184.237 91.4442 185.094 91.3619 185.482 91.3113C186.037 91.2238 186.6 91.2026 187.16 91.248C187.56 91.248 187.56 90.6153 187.16 90.6153C186.221 90.552 183.768 90.4761 183.549 91.7921C183.48 92.1907 184.087 92.3616 184.174 91.9566L184.149 91.944Z" fill="#CC331F"/>
<path d="M190.946 89.5145C191.038 88.8464 191.305 88.2152 191.718 87.6859C192.132 87.1566 192.677 86.7482 193.299 86.5028C193.674 86.3573 193.512 85.7499 193.136 85.8701C192.409 86.1439 191.767 86.608 191.275 87.215C190.784 87.822 190.461 88.55 190.339 89.3247C190.282 89.7233 190.883 89.9005 190.965 89.4955L190.946 89.5145Z" fill="#CC331F"/>
<path d="M193.487 99.7578C193.487 99.7578 196.403 100.884 196.998 102.017C196.998 102.017 200.896 98.7834 196.572 95.4807C195.885 97.1288 194.829 98.593 193.487 99.7578Z" fill="#B55E4D"/>
<path d="M202.837 87.2243C202.837 87.0724 202.661 86.3132 202.786 86.1803C203.456 85.4337 203.951 87.2179 204.038 87.4457C204.439 88.477 205.14 90.1031 204.126 90.9636C203.813 91.223 204.257 91.6722 204.57 91.4128C204.88 91.1257 205.103 90.756 205.214 90.3462C205.324 89.9365 205.318 89.5035 205.196 89.0971C204.986 87.8558 204.53 86.6701 203.857 85.6109C203.749 85.3956 203.564 85.2296 203.34 85.1463C203.116 85.0629 202.869 85.0684 202.649 85.1617C201.954 85.5286 202.167 86.6169 202.204 87.2306C202.204 87.6355 202.83 87.6355 202.83 87.2306L202.837 87.2243Z" fill="#DD7F66"/>
<path d="M203.431 118.442C203.218 117.499 202.905 115.076 202.255 114.367C201.604 113.658 200.377 113.374 199.689 114.032C199.488 114.222 198.787 112.096 197.185 112.615C196.015 113.007 196.447 113.88 196.015 114.19C196.015 114.19 193.637 113.405 193.637 115.221C193.637 115.221 191.34 114.987 191.522 116.721C191.129 116.801 190.778 117.022 190.533 117.342C190.288 117.663 190.166 118.062 190.189 118.467C190.22 120.232 191.284 122.035 192.216 123.529C192.585 124.111 195.909 125.579 196.722 126.211C198.343 127.477 199.682 129.653 201.103 131.906C201.207 132.111 201.371 132.279 201.572 132.387C201.717 132.418 201.867 132.419 202.011 132.387C202.156 132.355 202.292 132.293 202.411 132.203L206.892 129.786C207.163 129.684 207.386 129.483 207.518 129.223C207.55 129.03 207.535 128.832 207.475 128.646C207.415 128.459 207.312 128.291 207.174 128.154C205.021 125.186 203.431 122.219 203.431 118.442Z" fill="#F8A382"/>
<path d="M191.315 117.594C191.41 118.413 191.639 119.21 191.991 119.954C192.16 120.321 192.698 120.004 192.529 119.637C192.228 118.992 192.029 118.302 191.941 117.594C191.897 117.195 191.265 117.189 191.315 117.594Z" fill="#DD7F66"/>
<path d="M193.455 116.17C193.758 116.885 193.986 117.629 194.138 118.391C194.225 118.783 194.826 118.619 194.763 118.22C194.591 117.409 194.342 116.616 194.019 115.854C193.862 115.481 193.324 115.803 193.474 116.17H193.455Z" fill="#DD7F66"/>
<path d="M196.19 114.898C196.441 115.62 196.691 116.335 196.935 117.05C197.066 117.429 197.673 117.265 197.561 116.879C197.31 116.164 197.06 115.449 196.816 114.734C196.678 114.354 196.078 114.513 196.19 114.898Z" fill="#DD7F66"/>
<path d="M199.557 115.063C199.668 115.306 199.836 115.518 200.047 115.68C200.257 115.842 200.504 115.95 200.765 115.993C201.159 116.063 201.328 115.449 200.934 115.36C200.752 115.337 200.579 115.267 200.432 115.156C200.285 115.045 200.169 114.898 200.095 114.728C199.926 114.361 199.388 114.677 199.557 115.05V115.063Z" fill="#DD7F66"/>
<path d="M219.546 137.524C216.148 134.829 206.604 124.237 205.571 123.642C203.325 122.377 197.542 126.426 197.26 127.034C196.635 128.337 204.82 145.68 211.148 150.811C214.715 153.702 220.134 157.802 223.145 156.98C230.655 154.923 234.009 141.004 235.192 136.195C237.42 127.154 238.853 115.531 233.89 107.679C230.198 101.846 221.461 98.1319 218.451 106.338C215.209 115.171 220.172 128.546 219.546 137.524Z" fill="#73DDD9"/>
<path d="M79.1608 288C101.171 288 119.013 283.394 119.013 277.712C119.013 272.03 101.171 267.424 79.1608 267.424C57.1508 267.424 39.3082 272.03 39.3082 277.712C39.3082 283.394 57.1508 288 79.1608 288Z" fill="#D3E1EF"/>
<path d="M63.4024 209.969C61.1933 218.232 60.1106 252.746 59.6475 268.854C60.7301 271.461 64.7167 271.48 66.7631 269.55C68.8096 267.621 69.8922 266.051 70.4179 263.274C74.0853 243.502 77.64 235.391 81.082 212.499C82.1146 205.666 83.3788 183.68 84.3113 169.71C87.1588 180.902 96.5399 207.507 95.1631 211.266C94.118 214.119 92.034 236.542 91.0952 259.003C91.0477 261.359 91.3687 263.708 92.0465 265.963C92.6723 267.734 94.9003 269.057 96.4773 268.051C97.0684 267.601 97.5447 267.016 97.8667 266.342C106.428 251.215 112.53 222.129 112.53 208.703C112.53 197.878 108.6 167.698 103.318 151.127C102.285 147.888 88.8047 143.497 79.5362 144.167C73.5283 144.604 57.5635 148.204 57.6323 154.499C57.6824 171.057 64.967 204.116 63.4024 209.969Z" fill="#EFD9D5"/>
<path d="M73.4219 281.325C74.442 281.224 75.6749 280.819 75.8189 279.8C75.8282 279.434 75.7373 279.073 75.5562 278.755C75.375 278.438 75.1108 278.178 74.7925 278.003C73.835 277.371 71.4193 276.478 70.3617 276.029C66.8821 274.536 72.7711 259.959 72.6334 256.346C71.3818 253.087 58.8277 252.423 59.0717 255.08C59.6976 261.831 60.0793 272.486 59.5662 275.004C58.7338 279.06 58.7714 278.921 62.7391 279.996C66.2249 280.958 69.7984 281.686 73.4219 281.325Z" fill="#73DDD9"/>
<path d="M89.2115 272.828C89.0628 273.129 89.0061 273.468 89.0488 273.802C89.1443 274.076 89.3107 274.318 89.5307 274.504C92.5346 277.611 97.4223 279.433 101.722 279.433C102.124 279.473 102.529 279.384 102.88 279.18C103.139 278.94 103.307 278.615 103.354 278.262C103.401 277.91 103.324 277.551 103.136 277.25C102.798 276.618 98.9055 273.264 98.3673 272.821C95.6951 270.525 103.524 258.092 103.768 254.555C103.324 253.448 94.3808 250.164 90.7573 252.246C89.9062 256.156 90.2441 270.076 89.2115 272.828Z" fill="#73DDD9"/>
<path d="M53.6583 68.4769C49.8158 70.8116 46.3049 73.8929 44.1896 77.8789C42.0743 81.8649 41.5048 86.8506 43.4136 90.9442C44.2271 92.7031 45.5038 94.4494 45.2222 96.3728C44.8467 98.9479 42.0242 100.169 39.9903 101.789C34.2828 106.268 34.2577 115.303 37.487 121.858C39.9027 126.812 44.4524 131.292 49.9159 131.317C54.4907 131.317 59.3721 128.324 63.3461 130.627C64.5477 131.323 65.4614 132.431 66.5754 133.266C70.03 135.86 75.1617 135.385 78.6163 132.798C82.0709 130.21 83.9734 125.888 84.449 121.561C84.8808 117.606 84.2925 113.336 86.1638 109.862C87.1964 107.964 88.8986 106.426 89.8499 104.459C92.7537 98.4608 87.7408 91.0708 89.8499 84.7374C90.3443 83.2506 91.2204 81.846 91.2142 80.3085C91.2142 77.3095 88.0475 75.2469 87.2965 72.3681C86.4579 69.1096 88.8298 65.9145 89.1302 62.5612C89.5119 58.2524 87.8785 50.9827 80.4062 50.8751C80.4062 50.8751 77.809 48.3443 76.088 47.9647C68.2964 46.1805 59.9354 53.8045 58.7025 55.728C57.6323 57.3793 56.4245 59.8279 56.2993 61.8399C55.9676 66.4586 54.9037 67.7177 53.6583 68.4769Z" fill="black"/>
<path d="M54.378 101.688C54.6095 104.56 57.238 108.995 59.8853 114.196C62.0476 118.763 63.4838 123.646 64.1409 128.666C64.435 132.146 58.0829 142.617 57.5822 154.499C71.9011 153.088 102.642 152.26 103.318 151.127C103.781 150.342 96.2646 127.432 95.8077 125.357C95.0129 121.706 94.4246 112.848 94.4246 112.848C96.0956 112.184 98.8054 109.236 98.4925 105.357C98.117 100.549 92.447 95.525 93.0165 86.2686C93.0916 85.0032 88.0099 84.7311 86.5079 85.174C84.5741 85.7498 79.1294 87.167 74.9739 87.224C70.3053 87.2872 60.993 85.6738 60.993 85.6738C53.7772 87.5719 53.5394 91.1594 54.378 101.688Z" fill="#73DDD9"/>
<path d="M65.9559 84.5795C65.2862 85.5539 63.2085 85.7817 60.9993 85.6741C65.6367 92.4187 75.3933 94.9622 82.6592 91.3305C84.6305 90.3498 86.7333 87.3697 86.5143 85.1743C84.6227 85.1514 82.7372 84.9523 80.8818 84.5795C78.8542 83.6368 79.2672 79.1573 78.6226 76.696C78.5906 76.4598 78.488 76.239 78.3285 76.0633C78.0858 75.9041 77.7961 75.8348 77.5086 75.8672C74.1292 75.9115 69.2227 73.0706 65.862 73.2921C66.4941 76.8922 66.9447 83.1433 65.9559 84.5795Z" fill="#EF9275"/>
<path d="M65.8557 73.3046C66.7544 75.6934 68.1283 77.8705 69.8923 79.7012C71.5945 81.4791 75.2493 83.1874 77.6588 82.7445C80.0682 82.3016 80.8192 79.7835 81.8268 77.5374C82.8344 75.2913 83.0784 72.7731 83.2161 70.3056C83.3913 67.1463 83.4226 63.9828 83.31 60.815C83.3323 59.5708 83.1353 58.3324 82.728 57.158C82.2531 56.0795 81.5299 55.1315 80.6189 54.3931C79.2013 53.1772 77.4933 52.358 75.6651 52.0172C73.8369 51.6764 71.9522 51.8258 70.1989 52.4507C61.7002 55.7218 63.44 66.6612 65.8557 73.3046Z" fill="#F8A382"/>
<path d="M79.0544 56.7466C78.9073 60.0557 79.98 63.3022 82.0647 65.8576C82.7218 66.7117 84.8871 68.0467 85.7007 67.3444C85.926 64.434 87.6345 62.5485 85.7007 58.0437C83.3539 52.5012 80.0119 51.4952 79.142 50.989C76.7389 49.5844 68.7471 50.6664 63.8969 54.7473C60.3673 57.7147 57.2506 69.9828 63.2148 68.8756C65.3614 68.477 68.4905 62.036 70.7998 61.2452C73.3344 60.3847 78.7853 60.5555 79.0544 56.7466Z" fill="black"/>
<path d="M66.6442 72.2668L66.4753 71.1343C65.7243 69.4513 66.2938 68.42 64.6854 67.5405C64.2421 67.2963 63.7368 67.1912 63.2341 67.2385C62.7314 67.2858 62.254 67.4835 61.8629 67.8063C60.4298 69.3501 61.4311 72.773 63.3524 74.1333C63.7182 74.4271 64.1512 74.6233 64.6115 74.704C65.0718 74.7847 65.5448 74.7473 65.9871 74.5952C66.8445 74.2092 67.2826 72.9502 66.6442 72.2668Z" fill="#F8A382"/>
<path d="M75.6749 67.7051C75.5512 68.1503 75.5326 68.6187 75.6207 69.0726C75.7087 69.5264 75.9009 69.9531 76.1818 70.3181C76.3508 70.5459 76.5823 70.7167 76.7576 70.9508C76.8731 71.0608 76.9619 71.1962 77.0173 71.3465C77.0726 71.4969 77.093 71.6581 77.0767 71.8176C76.9777 71.8803 76.8729 71.9333 76.7638 71.9758C76.476 72.1909 76.0316 72.2352 75.7124 72.425C75.3933 72.6148 75.7124 73.1843 76.0254 72.9755C76.5886 72.6338 77.6713 72.5705 77.8027 71.7733C77.8037 71.5542 77.759 71.3373 77.6717 71.1368C77.5844 70.9362 77.4563 70.7564 77.2958 70.6092C76.5761 69.7613 75.9878 69.097 76.2757 67.8885C76.3696 67.4899 75.7688 67.3191 75.6499 67.7177L75.6749 67.7051Z" fill="#DD7F66"/>
<path d="M71.0939 68.9894C71.215 68.797 71.3736 68.6317 71.5601 68.5035C71.7466 68.3753 71.9569 68.2868 72.1784 68.2436C72.3998 68.2004 72.6276 68.2033 72.8479 68.2521C73.0682 68.3009 73.2763 68.3946 73.4595 68.5275C73.7724 68.7742 74.2168 68.3313 73.8976 68.0783C73.6459 67.8789 73.3555 67.7353 73.0454 67.6566C72.7353 67.5778 72.4123 67.5658 72.0972 67.6213C71.7822 67.6767 71.4822 67.7985 71.2167 67.9785C70.9511 68.1586 70.7259 68.3931 70.5557 68.6667C70.3429 69.0147 70.8874 69.331 71.0939 68.9894Z" fill="#B55E4D"/>
<path d="M79.0669 67.9517C79.1698 67.839 79.2958 67.7505 79.4362 67.6924C79.5765 67.6342 79.7277 67.6078 79.8792 67.6151C80.0307 67.6223 80.1788 67.663 80.3131 67.7343C80.4474 67.8055 80.5646 67.9057 80.6565 68.0276C80.9006 68.3503 81.3449 67.8947 81.0946 67.5784C80.9439 67.3929 80.7556 67.2423 80.5424 67.1368C80.3291 67.0312 80.096 66.9732 79.8586 66.9666C79.6213 66.96 79.3854 67.005 79.1667 67.0985C78.9481 67.1921 78.7518 67.332 78.5913 67.5088C78.3222 67.8062 78.7665 68.2554 79.0356 67.9517H79.0669Z" fill="#B55E4D"/>
<path d="M69.4542 65.8701C70.08 64.6047 72.164 64.301 73.3844 64.7502C73.7662 64.8894 73.9289 64.282 73.5534 64.1175C72.0764 63.5671 69.6795 63.991 68.916 65.5221C68.7345 65.8891 69.2727 66.2054 69.4542 65.8448V65.8701Z" fill="#03004C"/>
<path d="M78.5975 64.2759C79.1885 64.0712 79.8254 64.0435 80.4316 64.1962C81.0378 64.3488 81.5875 64.6753 82.0145 65.1364C82.2523 65.4527 82.7968 65.1364 82.5527 64.8137C82.0371 64.2104 81.3498 63.7827 80.5848 63.5891C79.8198 63.3954 79.0143 63.4453 78.2783 63.7318C77.9153 63.8963 78.2282 64.4404 78.5975 64.2759Z" fill="#03004C"/>
<path d="M78.2659 73.6398C78.3333 74.0535 78.5034 74.4431 78.7603 74.7723L78.948 74.3104C77.2256 74.7249 75.4487 74.8574 73.6848 74.7027C73.6023 74.7043 73.5237 74.7382 73.4653 74.7972C73.407 74.8561 73.3735 74.9357 73.3719 75.0191C73.3452 75.5988 73.4419 76.1775 73.6554 76.7162C73.869 77.2548 74.1944 77.7409 74.6096 78.1416C75.0249 78.5422 75.5204 78.8481 76.0626 79.0385C76.6048 79.229 77.1812 79.2996 77.7527 79.2455C78.1532 79.2455 78.1532 78.5749 77.7527 78.6128C77.2637 78.6668 76.7689 78.6125 76.3028 78.4539C75.8366 78.2953 75.4101 78.036 75.0529 77.6942C74.6957 77.3523 74.4163 76.9359 74.2341 76.474C74.0519 76.0121 73.9712 75.5156 73.9977 75.0191L73.6848 75.3354C75.506 75.4881 77.3396 75.3472 79.117 74.9178C79.1623 74.9042 79.204 74.8803 79.239 74.848C79.2739 74.8157 79.3011 74.7759 79.3186 74.7314C79.336 74.6869 79.3433 74.6391 79.3398 74.5914C79.3363 74.5436 79.3222 74.4974 79.2985 74.456C79.0784 74.1667 78.9303 73.8282 78.8667 73.4689C78.7978 73.0703 78.1908 73.2412 78.2408 73.6398H78.2659Z" fill="#B55E4D"/>
<path d="M77.64 74.8988C77.2649 76.1962 77.2069 77.5662 77.471 78.8912C77.471 78.8912 73.6096 78.5242 73.716 75.019C75.0248 75.1076 76.3389 75.0674 77.64 74.8988Z" fill="#B55E4D"/>
<path d="M64.0408 68.7048C62.7891 68.0721 62.276 69.8373 62.5013 70.7674C62.7766 71.9063 63.8405 73.5639 65.1923 73.159C65.2334 73.1482 65.272 73.1293 65.3059 73.1034C65.3397 73.0776 65.3682 73.0452 65.3897 73.0082C65.4112 72.9712 65.4253 72.9302 65.4312 72.8877C65.437 72.8452 65.4346 72.8019 65.4239 72.7604C65.4132 72.7189 65.3945 72.6798 65.3689 72.6456C65.3433 72.6114 65.3113 72.5825 65.2747 72.5608C65.2381 72.5391 65.1976 72.5248 65.1555 72.5189C65.1135 72.513 65.0707 72.5155 65.0296 72.5263C64.2598 72.7604 63.6841 71.8936 63.3899 71.3052C63.2313 71.0189 63.1252 70.7059 63.077 70.3814C63.077 70.141 63.077 68.8819 63.7028 69.2299C64.0596 69.4197 64.3787 68.8756 64.0158 68.6858L64.0408 68.7048Z" fill="#DD7F66"/>
<path d="M68.8784 88.8946C71.0688 88.6795 73.4156 88.496 75.1992 90.0525C75.5059 90.3182 75.9502 89.869 75.6436 89.6032C73.7098 87.9266 71.2628 88.0215 68.8784 88.2619C68.4778 88.2999 68.4716 88.9326 68.8784 88.8946Z" fill="#DD7F66"/>
<path d="M78.1031 89.6029C78.0343 88.8247 79.6114 88.3944 80.1371 88.1603L82.3275 87.167C82.6967 86.9962 82.3775 86.452 82.0083 86.6165C80.8693 87.1354 79.6927 87.6162 78.5662 88.1793C77.978 88.4767 77.4147 88.8753 77.4773 89.6029C77.4773 90.0078 78.1031 90.0142 78.1031 89.6029Z" fill="#DD7F66"/>
<path d="M34.4079 19.5249C33.2689 17.8419 33.2001 18.2594 32.1737 18.0443C31.5479 17.4116 31.3226 15.6147 28.8318 15.6147C28.4131 15.6342 28.0053 15.756 27.6434 15.9698C27.2815 16.1836 26.9764 16.4829 26.7541 16.8422C26.3548 16.5883 25.8927 16.4535 25.4211 16.4535C24.9494 16.4535 24.4873 16.5883 24.0881 16.8422C23.3371 17.2281 22.7989 18.5758 22.7989 18.5758C20.9902 18.0443 20.3456 19.8412 20.3832 21.1636C19.532 20.3853 18.4681 22.0051 18.756 23.1313C18.8969 23.9368 19.3 24.6717 19.9013 25.2192C21.372 26.9085 22.0666 26.6111 23.1055 26.2758C23.4372 27.5412 22.0917 28.1739 25.7089 30.072C25.7089 30.072 28.569 40.8976 29.2824 42.2642C31.4102 42.4604 35.8911 41.834 37.9751 41.3911C37.6935 38.3035 33.8071 30.5149 34.2202 27.3324C34.289 26.6301 35.3279 20.8725 34.4079 19.5249Z" fill="#F8A382"/>
<path d="M31.041 18.4493L27.5739 21.8786C26.9919 22.448 26.5163 22.7264 26.8605 23.5869C27.6615 25.5736 30.6154 23.5869 31.454 22.6252L30.9346 22.3151C30.5768 23.5695 30.3977 24.8691 30.4027 26.1746C30.4027 26.2585 30.4356 26.339 30.4943 26.3983C30.553 26.4577 30.6326 26.491 30.7156 26.491C30.7986 26.491 30.8782 26.4577 30.9368 26.3983C30.9955 26.339 31.0285 26.2585 31.0285 26.1746C31.0243 24.9271 31.195 23.6852 31.5354 22.486C31.6168 22.1949 31.2225 21.9355 31.016 22.1759C30.4534 22.9336 29.6368 23.4578 28.7192 23.6501C26.9544 23.8779 27.43 22.8972 28.1559 22.1886L31.4853 18.8922C31.7732 18.6075 31.3351 18.1583 31.041 18.443V18.4493Z" fill="#DD7F66"/>
<path d="M21.3157 22.7641C21.8969 23.6576 22.6854 24.3939 23.6124 24.909C23.9692 25.1051 24.2821 24.561 23.9316 24.3648C23.0968 23.9121 22.3837 23.2606 21.8539 22.4667C21.6348 22.1314 21.0904 22.4667 21.3157 22.7894V22.7641Z" fill="#DD7F66"/>
<path d="M23.0554 20.2395C23.4794 21.3083 24.2066 22.2263 25.1457 22.8779C25.5775 23.2069 26.6226 23.9725 27.0232 23.2512C27.0638 23.1791 27.0748 23.0938 27.0538 23.0136C27.0328 22.9334 26.9815 22.8648 26.9109 22.8225C26.8403 22.7801 26.7561 22.7675 26.6765 22.7874C26.5968 22.8072 26.528 22.8579 26.485 22.9285C26.3911 23.0804 25.1457 22.0933 25.008 21.9668C24.402 21.4579 23.9291 20.806 23.6312 20.0687C23.506 19.6891 22.899 19.8536 23.0054 20.2395H23.0554Z" fill="#DD7F66"/>
<path d="M23.6687 25.0041C25.2083 25.7064 26.5413 24.6055 27.0858 23.1756C27.2297 22.7896 26.6226 22.6251 26.4599 23.0047C26.0782 24.017 25.1019 24.9788 23.9566 24.4599C23.5936 24.2954 23.2745 24.8396 23.6437 25.0041H23.6687Z" fill="#DD7F66"/>
<path d="M25.8591 18.6581C26.2285 19.898 26.9538 20.9991 27.9431 21.8216C28.256 22.081 28.7004 21.6318 28.3875 21.3724C27.473 20.6214 26.8035 19.6094 26.4662 18.4683C26.4446 18.3844 26.3909 18.3126 26.317 18.2686C26.2431 18.2247 26.1549 18.2123 26.0719 18.2342C25.9889 18.256 25.9179 18.3102 25.8745 18.385C25.8311 18.4597 25.8188 18.5489 25.8404 18.6328L25.8591 18.6581Z" fill="#DD7F66"/>
<path d="M28.6441 17.5634C28.9177 18.4276 29.2961 19.2543 29.7706 20.0246C29.9833 20.3663 30.5278 20.0246 30.3088 19.7019C29.8588 18.9817 29.5032 18.2054 29.2511 17.3926C29.126 17.0066 28.5189 17.1711 28.6253 17.5634H28.6441Z" fill="#DD7F66"/>
<path d="M19.3005 24.1625C19.4255 24.747 19.7205 25.2804 20.1476 25.6942C20.5747 26.108 21.1144 26.3832 21.6974 26.4845C22.7425 26.6617 23.9629 26.3833 24.3196 25.2634C24.4448 24.8774 23.844 24.7129 23.6938 25.0989C23.3934 26.0226 22.1167 26.0163 21.3657 25.7316C20.9921 25.5938 20.6596 25.3616 20.3999 25.057C20.1403 24.7524 19.9621 24.3856 19.8825 23.9917C19.8601 23.9078 19.8057 23.8363 19.7311 23.793C19.6566 23.7497 19.5681 23.7381 19.4851 23.7607C19.4021 23.7834 19.3314 23.8384 19.2886 23.9138C19.2458 23.9891 19.2343 24.0786 19.2567 24.1625H19.3005Z" fill="#DD7F66"/>
<path d="M47.2874 62.074C43.8829 53.3237 41.3984 42.9347 38.6009 33.8365C38.3506 33.0076 36.567 32.685 36.2854 31.8498C36.0038 31.0146 35.7034 30.1668 35.3904 29.319C31.8667 29.3628 28.4153 30.3355 25.3772 32.1408C25.59 32.9127 25.7903 33.653 26.0031 34.3616C26.2158 35.0702 25.2458 36.8924 25.3772 37.4808C29.5014 53.1023 27.2547 52.9694 33.707 70.9002C35.841 76.8287 46.962 97.2903 55.7611 105.99C56.5184 106.743 57.8952 102.985 58.4834 101.991C62.5388 95.0822 64.8293 90.8367 61.0306 85.6739C57.77 81.2892 51.0424 71.7228 47.2874 62.074Z" fill="#73DDD9"/>
<path d="M125.284 34.9501C125.428 34.6653 126.016 30.673 126.329 29.5911C126.849 27.7942 128.107 26.8515 130.529 26.3706C131.599 26.1555 132.675 26.2694 133.839 25.9846C135.811 25.5101 135.053 25.6999 136.167 26.2694C137.281 26.8388 137.025 27.3007 137.657 29.6164C138.358 32.1472 140.567 33.1342 139.534 34.9817C138.502 36.8292 136.067 38.7779 134.039 38.7779C130.616 38.7779 130.453 40.8026 128.701 43.7826C128.125 44.7696 127.374 47.2182 126.273 47.5282C125.528 47.7433 120.641 44.681 118.988 43.8395C121.623 39.3284 122.868 39.6068 125.284 34.9501Z" fill="#EF9275"/>
<path d="M168.948 49.6666C164.62 50.6365 160.088 49.8318 156.345 47.4289C152.603 45.026 149.956 41.221 148.984 36.848L143.978 14.1529L176.652 6.76294L181.659 29.458C182.139 31.6288 182.192 33.8743 181.813 36.0656C181.434 38.257 180.631 40.3513 179.451 42.2285C178.27 44.1057 176.735 45.729 174.932 47.0053C173.13 48.2817 171.096 49.186 168.948 49.6666Z" fill="#73DDD9"/>
<path d="M174.987 57.8159C174.086 58.0184 172.897 56.1076 172.665 55.07L169.912 42.6184L165.099 43.7067L167.859 56.1583C168.084 57.1959 167.815 59.4357 166.914 59.6445C160.881 61.0048 156.694 65.2945 158.234 72.2985L188.161 65.5286C186.621 58.5309 181.02 56.4493 174.987 57.8159Z" fill="#73DDD9"/>
<path d="M148.496 20.2334C146.619 16.1714 139.96 16.0133 136.505 17.595C130.61 20.2967 129.358 28.8761 132.312 34.2098C134.872 38.8412 141.593 41.8339 146.356 38.683C150.023 36.2598 150.956 30.1795 147.357 27.2437C141.324 22.334 138.07 35.5764 144.647 33.7669C146.199 33.3367 145.542 30.8944 143.984 31.3247C143.295 31.5145 143.22 30.7805 143.314 30.2617C143.652 28.3636 145.818 29.3633 146.525 30.1542C146.942 30.7227 147.161 31.4143 147.151 32.1219C147.163 32.8955 147.011 33.6628 146.706 34.3722C146.4 35.0816 145.948 35.7166 145.379 36.2345C141.894 39.1829 136.374 36.4179 134.459 32.9317C132.187 28.7939 133.038 21.6823 137.832 19.7525C140.148 18.8225 145.041 18.7655 146.324 21.5114C147.007 22.9856 149.166 21.7013 148.484 20.246L148.496 20.2334Z" fill="#73DDD9"/>
<path d="M177.422 14.3682C177.466 11.2806 182.228 9.24959 184.713 9.22428C189.619 9.18632 193.205 14.9503 192.974 19.5184C192.786 23.3146 189.613 27.7119 185.464 27.56C184.625 27.4966 183.816 27.2227 183.109 26.7631C182.402 26.3035 181.819 25.6727 181.415 24.928C180.789 23.7258 178.836 20.9356 182.222 20.4105C183.298 20.246 185.026 22.1884 183.893 22.3086C182.316 22.5047 182.297 25.0419 183.893 24.8394C188.505 24.2763 186.834 18.0315 182.835 17.8354C179.75 17.6772 177.829 20.6509 178.26 23.5297C178.65 25.6521 179.853 27.5329 181.609 28.7622C186.396 32.1661 192.504 28.3193 194.557 23.5424C197.11 17.6203 193.75 9.02182 187.441 7.09207C182.892 5.6938 174.994 8.74976 174.925 14.3618C174.925 15.9879 177.428 15.9942 177.428 14.3618L177.422 14.3682Z" fill="#73DDD9"/>
<path d="M142.355 8.81355L175.792 1.25105C176.38 1.11807 176.996 1.22667 177.505 1.55297C178.014 1.87927 178.374 2.39653 178.505 2.99096L178.71 3.91713C178.841 4.50992 178.734 5.13112 178.412 5.64406C178.09 6.157 177.58 6.51967 176.994 6.65229L143.55 14.2162C142.962 14.3491 142.346 14.2405 141.837 13.9142C141.329 13.5879 140.969 13.0707 140.837 12.4763L140.632 11.5501C140.567 11.256 140.56 10.9519 140.612 10.6551C140.663 10.3583 140.772 10.0747 140.932 9.82048C141.092 9.56627 141.3 9.34647 141.544 9.17369C141.788 9.0009 142.064 8.87851 142.355 8.81355Z" fill="#73DDD9"/>
<path d="M170.619 18.0854L154.129 21.8148L155.632 28.6067L172.121 24.8772L170.619 18.0854Z" fill="#73DDD9"/>
<path d="M152.032 38.4679C153.547 43.9977 161.056 47.9584 166.501 47.0094C167.684 46.8006 167.183 44.9721 166 45.1745C161.563 45.9591 155.061 42.4033 153.847 37.9617C153.764 37.7379 153.602 37.5536 153.391 37.4449C153.181 37.3363 152.938 37.3112 152.71 37.3747C152.482 37.4383 152.287 37.5857 152.161 37.7881C152.035 37.9904 151.989 38.2329 152.032 38.4679Z" fill="#73DDD9"/>
<path d="M130.253 30.2807C130.635 30.7236 132.312 30.2807 133.138 30.0909C131.949 30.3693 130.065 31.7233 130.86 33.1026C131.01 33.3746 133.288 33.0203 135.191 32.3813C133.789 33.0836 130.929 34.2794 132.062 35.627C132.791 35.8079 133.551 35.8235 134.286 35.6725C135.022 35.5216 135.716 35.2079 136.317 34.7539C135.322 35.627 133.601 36.2597 133.964 37.2025C134.202 37.8352 134.859 38.6197 138.283 36.69C138.796 36.3989 139.91 35.8169 140.122 34.7539C140.335 33.691 140.216 33.3556 139.747 33.1532C140.373 32.4762 140.216 30.5591 139.121 30.7489C139.121 30.7489 140.097 28.351 137.87 28.4395C138.082 28.2707 138.249 28.0513 138.357 27.8011C138.465 27.5508 138.509 27.2774 138.487 27.0053C138.465 26.7333 138.376 26.4711 138.229 26.2422C138.082 26.0132 137.881 25.8248 137.644 25.6936C135.998 24.7888 128.2 27.8701 130.253 30.2807Z" fill="#F8A382"/>
<path d="M130.904 26.2693C132.087 26.2693 131.88 28.8444 134.722 30.0655C135.016 30.6982 134.027 31.5207 133.32 31.5334C132.697 31.5225 132.091 31.3321 131.572 30.9846C131.053 30.6371 130.644 30.147 130.391 29.572C129.765 32.2293 128.582 32.9823 127.318 32.6406C126.486 32.4128 126.223 30.6033 126.329 29.572C126.523 27.7498 128.664 26.845 130.904 26.2693Z" fill="#EF9275"/>
<path d="M134.44 30.1543C135.304 29.9835 136.061 29.4647 136.943 29.3002C137.338 29.2179 137.175 28.6105 136.781 28.6675C135.917 28.8383 135.16 29.3571 134.277 29.5279C133.883 29.6039 134.046 30.2113 134.44 30.1606V30.1543Z" fill="#DD7F66"/>
<path d="M131.161 30.7742C129.909 31.7865 130.372 33.8175 132.099 33.672C133.028 33.5275 133.937 33.277 134.809 32.9254C135.713 32.6797 136.581 32.3182 137.394 31.8498C137.738 31.6347 137.394 31.0842 137.081 31.3056C136.126 31.8391 135.105 32.2433 134.046 32.5078C133.636 32.6541 133.218 32.7767 132.794 32.8747C132.642 32.9322 132.485 32.9746 132.325 33.0013L131.073 32.3243C131.063 32.1081 131.107 31.8927 131.202 31.6989C131.298 31.505 131.441 31.3391 131.618 31.2171C131.93 30.964 131.486 30.5211 131.173 30.7742H131.161Z" fill="#DD7F66"/>
<path d="M133.157 32.8115C131.805 33.1595 130.654 36.1269 132.625 36.2281C134.596 36.3293 137.043 35.0323 138.589 33.8175C138.908 33.5644 138.458 33.1215 138.145 33.3683C137.113 34.1775 135.951 34.8004 134.709 35.2094C134.358 35.304 134 35.3737 133.639 35.4182C133.101 35.5005 131.761 36.0509 132.387 34.273C132.471 34.0643 132.6 33.877 132.765 33.7249C132.929 33.5728 133.125 33.4596 133.339 33.3936C133.422 33.3718 133.493 33.3175 133.536 33.2428C133.579 33.168 133.592 33.0789 133.57 32.995C133.549 32.9111 133.495 32.8393 133.421 32.7954C133.347 32.7515 133.259 32.7391 133.176 32.7609L133.157 32.8115Z" fill="#DD7F66"/>
<path d="M134.828 35.3929C133.389 35.8105 133.107 37.6073 134.722 37.968C136.549 38.3666 138.62 37.1202 139.565 35.589C139.778 35.241 139.24 34.9563 139.027 35.2663C138.447 36.1547 137.59 36.8225 136.593 37.1644C136.16 37.3309 135.697 37.4041 135.235 37.3796C134.277 37.329 133.983 36.2913 134.991 35.9939C135.074 35.9721 135.145 35.9179 135.188 35.8431C135.232 35.7684 135.244 35.6792 135.222 35.5953C135.201 35.5114 135.147 35.4396 135.073 35.3957C134.999 35.3518 134.911 35.3394 134.828 35.3612V35.3929Z" fill="#DD7F66"/>
<path d="M129.058 33.843C129.711 33.3533 130.211 32.6851 130.501 31.9172C130.79 31.1493 130.856 30.3137 130.691 29.509L130.122 29.7494C130.885 30.7618 131.73 31.7235 133.069 31.831C133.308 31.8639 133.551 31.8458 133.783 31.7781C134.014 31.7103 134.229 31.5944 134.413 31.4377C134.598 31.2809 134.748 31.0869 134.854 30.8681C134.96 30.6493 135.019 30.4105 135.028 30.167C135.085 29.7684 134.478 29.5976 134.402 30.0025C134.405 30.1944 134.362 30.3842 134.278 30.5559C134.193 30.7277 134.069 30.8765 133.916 30.9898C133.763 31.1032 133.585 31.1778 133.397 31.2075C133.21 31.2371 133.018 31.221 132.838 31.1604C131.843 30.9642 131.223 30.205 130.641 29.4331C130.441 29.161 129.972 29.3002 130.072 29.6735C130.201 30.3436 130.144 31.0369 129.907 31.6759C129.669 32.315 129.26 32.8748 128.726 33.2926C128.407 33.5393 128.726 34.0835 129.039 33.843H129.058Z" fill="#DD7F66"/>
<path d="M131.423 27.4082C132.309 28.5092 133.346 29.4764 134.503 30.2807C134.815 30.5337 135.26 30.0909 134.947 29.8378C133.831 29.0787 132.828 28.1626 131.968 27.1172C131.736 26.7881 131.192 27.1172 131.423 27.4398V27.4082Z" fill="#DD7F66"/>
<path d="M105.02 65.8956C107.379 62.0488 115.215 45.2568 119.495 38.2148C119.933 37.4872 122.587 36.5824 122.95 36.0383C123.313 35.4942 123.576 35.1209 123.839 34.7729C125.203 33.0583 131.505 36.7343 132.713 40.6444C132.344 41.3214 131.999 41.9794 131.668 42.6184C131.336 43.2575 131.956 45.5415 131.668 46.2122C126.968 58.436 125.172 63.6811 116.254 76.892C109.745 86.5407 99.6191 98.0749 89.7811 104.199C88.3667 105.079 86.483 85.1741 86.483 85.1741C95.789 76.892 104.275 67.1041 105.02 65.8956Z" fill="#73DDD9"/>
<path d="M31.2662 143.06L32.6806 145.964L35.8598 146.432L33.563 148.697L34.1012 151.893L31.2662 150.38L28.425 151.893L28.9695 148.697L26.6727 146.432L29.8456 145.964L31.2662 143.06Z" fill="#EFD9D5"/>
<path d="M224.277 12.8561L226.724 14.9567L229.822 14.1088L228.602 17.1078L230.354 19.8221L227.156 19.5754L225.141 22.0999L224.384 18.949L221.386 17.7975L224.121 16.0955L224.277 12.8561Z" fill="#EFD9D5"/>
<path d="M150.004 209.203L151.143 212.234L154.26 213.012L151.757 215.036L151.994 218.27L149.31 216.492L146.343 217.719L147.188 214.594L145.117 212.113L148.321 211.961L150.004 209.203Z" fill="#EFD9D5"/>
<path d="M129.208 151.728L129.934 153.664L131.918 154.158L130.322 155.449L130.472 157.518L128.764 156.379L126.867 157.163L127.406 155.164L126.085 153.589L128.132 153.487L129.208 151.728Z" fill="#EFD9D5"/>
<path d="M226.875 79.9353L227.601 81.8714L229.591 82.3649L227.989 83.6556L228.145 85.7245L226.43 84.5857L224.534 85.3702L225.072 83.3709L223.752 81.7954L225.798 81.6942L226.875 79.9353Z" fill="#73DDD9"/>
<path d="M159.88 96.588L160.606 98.5241L162.59 99.0176L160.994 100.315L161.144 102.377L159.435 101.238L157.539 102.023L158.077 100.024L156.757 98.4482L158.803 98.3469L159.88 96.588Z" fill="#EFD9D5"/>
<path d="M112.736 9.49622L113.456 11.4323L115.446 11.9258L113.85 13.2165L114 15.2855L112.292 14.1466L110.396 14.9311L110.934 12.9318L109.613 11.3564L111.654 11.2551L112.736 9.49622Z" fill="#EFD9D5"/>
<path d="M3.12287 24.3522L3.84883 26.2882L5.8327 26.7818L4.23684 28.0725L4.38704 30.1351L2.67854 29.0025L0.782283 29.7871L1.32049 27.7878L0 26.2123L2.04645 26.1111L3.12287 24.3522Z" fill="#73DDD9"/>
<path d="M26.3661 213.904L27.0921 215.84L29.0822 216.334L27.4863 217.631L27.6365 219.693L25.9218 218.561L24.0318 219.339L24.57 217.346L23.2432 215.764L25.2897 215.663L26.3661 213.904Z" fill="#EFD9D5"/>
<path d="M268.179 106.882L269.737 108.217L271.715 107.679L270.939 109.59L272.059 111.323L270.019 111.172L268.736 112.779L268.248 110.773L266.339 110.039L268.079 108.951L268.179 106.882Z" fill="#EFD9D5"/>
<path d="M260.663 35.6965L262.227 37.0315L264.199 36.4874L263.429 38.4045L264.543 40.1381L262.503 39.9799L261.22 41.5933L260.738 39.5813L258.823 38.8474L260.563 37.7591L260.663 35.6965Z" fill="#73DDD9"/>
<path d="M265.319 195.1L266.877 196.441L268.855 195.897L268.079 197.808L269.199 199.542L267.159 199.39L265.876 201.003L265.388 198.991L263.473 198.257L265.219 197.169L265.319 195.1Z" fill="#73DDD9"/>
<path d="M88.5169 17.1584L89.6496 20.1891L92.7662 20.961L90.2629 22.992L90.5008 26.2251L87.816 24.4472L84.8495 25.6746L85.6944 22.5428L83.6229 20.0689L86.8272 19.9107L88.5169 17.1584Z" fill="#73DDD9"/>
<path d="M120.653 122.478L119.02 127.92C119.02 127.92 127.043 127.774 130.541 133.076L134.352 128.856C134.352 128.856 129.803 122.712 120.653 122.478Z" fill="#73DDD9"/>
<path d="M260.306 10.5719L258.673 16.0132C258.673 16.0132 266.696 15.8676 270.194 21.1697L274.006 16.9496C274.006 16.9496 269.456 10.8123 260.306 10.5719Z" fill="#EFD9D5"/>
<path d="M262.885 228.38L261.251 233.822C261.251 233.822 269.274 233.676 272.773 238.978L276.584 234.758C276.584 234.758 272.015 228.621 262.885 228.38Z" fill="#73DDD9"/>
<path d="M7.91047 108.198L6.29584 113.639C6.29584 113.639 14.3189 113.494 17.8173 118.796L21.6286 114.576C21.6286 114.576 17.0538 108.439 7.91047 108.198Z" fill="#73DDD9"/>
<path d="M150.18 169.475C150.18 169.475 143.809 170.108 145.004 176.22C146.199 182.332 143.227 184.3 140.46 181.984L141.675 187.47C141.675 187.47 152.939 187.602 150.223 178.966C147.507 170.33 153.49 173.708 153.49 173.708L150.18 169.475Z" fill="#73DDD9"/>
<path d="M16.1088 63.3901C16.1088 63.3901 16.7346 56.9492 10.5515 56.9618C4.36831 56.9745 3.04156 53.6528 5.82023 51.3561L0.26289 51.5143C0.26289 51.5143 -2.01512 62.6751 6.88413 61.6375C15.7834 60.5999 11.3713 65.883 11.3713 65.883L16.1088 63.3901Z" fill="#EFD9D5"/>
<path d="M220.447 40.9861C220.447 40.9861 216.742 46.2628 222.118 49.3568C227.494 52.4507 227.012 55.9938 223.47 56.5949L228.377 59.2459C228.377 59.2459 235.83 50.7044 227.588 47.1486C219.346 43.5928 225.773 41.2139 225.773 41.2139L220.447 40.9861Z" fill="#73DDD9"/>
<path d="M136.605 244.071C136.605 244.071 136.637 250.537 142.789 249.886C148.94 249.234 150.593 252.416 148.064 254.947L153.578 254.213C153.578 254.213 154.704 242.875 145.961 244.849C137.219 246.823 141.067 241.091 141.067 241.091L136.605 244.071Z" fill="#73DDD9"/>
<path d="M33.4692 243.318C33.4692 243.318 28.3625 239.421 25.1457 244.767C21.929 250.114 18.4431 249.519 17.9487 245.925L15.1826 250.803C15.1826 250.803 23.4122 258.585 27.1671 250.354C30.9221 242.122 33.0875 248.703 33.0875 248.703L33.4692 243.318Z" fill="#73DDD9"/>
<path d="M278.856 157.087C278.856 157.087 280.614 150.874 274.525 149.761C268.436 148.647 267.729 145.148 270.864 143.389L265.388 142.535C265.388 142.535 261.17 153.101 270.113 153.677C279.056 154.253 273.774 158.669 273.774 158.669L278.856 157.087Z" fill="#73DDD9"/>
<path d="M130.053 80.0617C130.053 80.0617 133.971 83.4783 132.093 87.11C130.216 90.7417 133.407 94.8543 134.628 94.8543L139.497 93.747C139.497 93.747 136.937 90.0014 138.114 87.053C139.29 84.1046 134.778 78.7583 134.778 78.7583L130.053 80.0617Z" fill="#EFD9D5"/>
<path d="M14.5881 174.486C14.5881 174.486 18.4995 177.903 16.622 181.535C14.7445 185.167 17.9362 189.279 19.1253 189.279L24.0005 188.172C24.0005 188.172 21.4409 184.426 22.6112 181.478C23.7815 178.529 19.2755 173.183 19.2755 173.183L14.5881 174.486Z" fill="#73DDD9"/>
<path d="M52.657 8.85734C52.657 8.85734 56.5685 12.2803 54.691 15.912C52.8135 19.5437 56.0052 23.6563 57.1943 23.6563L62.0695 22.5427C62.0695 22.5427 59.5098 18.8034 60.6801 15.8487C61.8504 12.894 57.3445 7.5603 57.3445 7.5603L52.657 8.85734Z" fill="#73DDD9"/>
<path d="M271.083 74.9115C271.083 74.9115 271.233 80.144 267.328 81.1943C263.423 82.2445 262.572 87.4074 263.398 88.3185L267.497 91.1973C267.497 91.1973 268.498 86.7684 271.446 85.6422C274.394 84.5159 275.201 77.5499 275.201 77.5499L271.083 74.9115Z" fill="#73DDD9"/>
</svg>
