<svg width="298" height="285" viewBox="0 0 298 285" fill="none" xmlns="http://www.w3.org/2000/svg">
<path d="M241.181 133.136L231.714 157.187L267.43 171.221L276.897 147.171L241.181 133.136Z" fill="#EBEBEB"/>
<path d="M276.885 147.475C276.741 147.556 276.587 147.619 276.427 147.663L275.079 148.148L270.144 149.832L253.762 155.348L253.627 155.395L253.553 155.267L253.385 154.971L244.682 139.769L242.086 135.162L241.412 133.896C241.322 133.754 241.25 133.603 241.196 133.444C241.302 133.574 241.394 133.714 241.473 133.862L242.228 135.095L244.924 139.668L253.688 154.816L253.863 155.113L253.654 155.038L270.077 149.616L275.052 148.02L276.4 147.602C276.558 147.547 276.721 147.505 276.885 147.475Z" fill="#E0E0E0"/>
<path d="M231.697 157.497C231.657 157.416 235.641 155.173 240.596 152.493C245.551 149.812 249.616 147.704 249.663 147.778C249.711 147.852 245.726 150.101 240.765 152.782C235.803 155.463 231.745 157.585 231.697 157.497Z" fill="#E0E0E0"/>
<path d="M261.636 152.156C261.731 152.156 263.099 156.44 264.69 161.794C266.281 167.149 267.494 171.5 267.387 171.527C267.279 171.554 265.924 167.243 264.333 161.889C262.742 156.534 261.562 152.183 261.636 152.156Z" fill="#E0E0E0"/>
<path d="M123.132 234.324L88.7941 251.451L100.348 274.574L134.686 257.447L123.132 234.324Z" fill="#EBEBEB"/>
<path d="M123.375 234.558C123.33 234.716 123.274 234.872 123.207 235.022L122.668 236.336C122.176 237.508 121.481 239.144 120.645 241.145L113.782 257.007L113.722 257.135H113.58L113.243 257.061L96.1198 253.35L90.9356 252.184L89.5334 251.848C89.3687 251.814 89.2065 251.769 89.048 251.713C89.2163 251.716 89.3838 251.738 89.5468 251.78L90.9625 252.05L96.167 253.107L113.324 256.69L113.661 256.765L113.466 256.866C116.162 250.696 118.636 245.119 120.423 241.051C121.319 239.064 122.047 237.44 122.567 236.282C122.816 235.75 123.011 235.319 123.16 234.995C123.216 234.842 123.288 234.695 123.375 234.558Z" fill="#E0E0E0"/>
<path d="M100.589 274.809C100.495 274.809 101.493 270.33 102.814 264.854C104.135 259.378 105.295 254.953 105.383 254.98C105.47 255.007 104.479 259.459 103.158 264.935C101.837 270.411 100.677 274.83 100.589 274.809Z" fill="#E0E0E0"/>
<path d="M116.654 248.999C116.695 248.911 120.821 250.784 125.863 253.182C130.906 255.58 134.971 257.6 134.897 257.681C134.823 257.762 130.737 255.896 125.688 253.498C120.639 251.101 116.614 249.08 116.654 248.999Z" fill="#E0E0E0"/>
<path d="M66.7203 147.528C79.7718 138.826 82.9537 122.365 82.6773 107.52C82.6301 105.041 82.947 102.434 81.7875 100.239C80.6279 98.0428 77.8572 96.5205 75.5921 97.5443C73.7112 98.3863 72.8955 100.515 71.7966 102.259C70.3585 104.607 68.2856 106.5 65.8169 107.722C64.2057 108.516 62.217 108.988 60.653 108.106C58.5025 106.893 58.2935 103.936 58.3474 101.471L58.6508 87.6971C58.7047 85.2386 58.7519 82.7195 57.9766 80.3688C57.2014 78.0181 55.5564 75.8224 53.1902 75.1354C50.8239 74.4483 47.8577 75.7483 47.3184 78.1529C47.0959 79.1497 47.3184 80.1735 47.2038 81.2175C47.0892 82.2615 46.6173 83.3661 45.6263 83.6355C44.6353 83.905 43.6375 83.1977 42.9297 82.4636C40.3881 79.9378 38.6893 76.7047 37.1051 73.4986C35.5208 70.2925 33.977 66.9989 31.7119 64.2508C29.4468 61.5027 26.2108 59.3069 22.6311 59.051C19.0514 58.795 15.2155 60.9167 14.2515 64.372C13.2875 67.8273 15.2964 71.3837 17.4874 74.2261C20.751 78.4558 24.6113 82.1902 28.9479 85.3127C29.7299 85.8785 30.5726 86.4847 30.8557 87.4007C31.3748 89.0509 29.7703 90.6607 28.1187 91.1793C26.2446 91.7586 24.2289 91.543 22.2806 91.7383C20.3323 91.9337 18.2357 92.7487 17.4335 94.5538C16.3751 97.0594 18.4716 99.7266 20.5413 101.491C24.6986 105.012 29.4241 107.802 34.5163 109.742C36.3433 110.416 38.2713 111.042 39.7342 112.336C41.1971 113.629 42.0533 115.858 41.1297 117.582C40.2061 119.307 37.9005 119.825 35.9792 119.448C34.0579 119.071 32.3523 118.007 30.5321 117.3C27.1209 115.952 22.6783 116.134 20.4199 119.031C18.9503 120.93 18.775 123.611 19.4761 125.914C20.2793 128.189 21.5335 130.278 23.1637 132.057C28.5295 138.599 35.5296 143.608 43.4555 146.579C51.3767 149.421 58.7451 150.27 66.7068 147.528" fill="#EBEBEB"/>
<path d="M62.9452 138.18C60.5671 130.059 57.722 122.082 54.424 114.289C53.5611 112.205 52.7094 110.153 51.869 108.133C51.0196 106.112 50.1836 104.091 49.2466 102.212C47.4229 98.553 45.3973 94.998 43.1793 91.5632C41.0961 88.2696 38.9861 85.2184 37.0041 82.376C35.0221 79.5336 33.094 76.9337 31.2536 74.6235C28.3605 70.9676 25.1821 67.5465 21.7481 64.3922C20.5347 63.2741 19.5639 62.4322 18.9032 61.8732L18.1415 61.24L17.8785 61.038C17.8785 61.038 17.9527 61.1188 18.1212 61.2737L18.8561 61.9473C19.5302 62.5265 20.4538 63.3752 21.6538 64.5068C25.0478 67.6929 28.1981 71.1287 31.0783 74.7851C32.9053 77.0954 34.7996 79.7155 36.7816 82.5511C38.7636 85.3868 40.8265 88.4582 42.9231 91.7518C45.1193 95.1794 47.1246 98.7254 48.9297 102.374C49.8668 104.273 50.696 106.253 51.5387 108.281C52.3814 110.308 53.2308 112.322 54.0937 114.43C57.3873 122.211 60.2368 130.171 62.6284 138.274" fill="#E0E0E0"/>
<path d="M49.152 102.178C49.263 101.836 49.3442 101.484 49.3947 101.128C49.5295 100.454 49.698 99.4573 49.8868 98.2314C50.2711 95.7865 50.6958 92.385 51.1475 88.6401C51.5991 84.8951 52.0778 81.5005 52.4958 79.0689C52.7115 77.8498 52.9002 76.8664 53.0351 76.1861C53.1215 75.8389 53.1801 75.4852 53.2104 75.1287C53.0727 75.4615 52.9666 75.8065 52.8935 76.1592C52.7115 76.8327 52.489 77.8027 52.2194 79.0218C51.7137 81.4466 51.1946 84.8413 50.743 88.5929C50.2913 92.3446 49.9003 95.6719 49.5969 98.1978C49.4419 99.3697 49.3138 100.346 49.2194 101.101C49.1645 101.457 49.1419 101.818 49.152 102.178Z" fill="#E0E0E0"/>
<path d="M17.1233 95.7798C17.2316 95.8072 17.3422 95.8253 17.4536 95.8336L18.4042 95.9279C19.2266 96.0088 20.4266 96.1233 21.8895 96.3051C24.822 96.6554 28.8669 97.2885 33.2961 98.1776C37.7252 99.0667 41.6892 100.064 44.5408 100.872C45.97 101.262 47.1161 101.606 47.9116 101.842L48.8284 102.111C48.9351 102.149 49.046 102.174 49.1587 102.185C49.0648 102.124 48.9626 102.076 48.8554 102.044L47.9587 101.707C47.1767 101.424 46.0442 101.033 44.588 100.616C41.7499 99.747 37.7791 98.7232 33.3433 97.8206C28.9074 96.9181 24.8423 96.3388 21.8828 96.0559C20.4064 95.901 19.1862 95.8269 18.3772 95.7932H17.4199C17.3222 95.7748 17.2223 95.7702 17.1233 95.7798Z" fill="#E0E0E0"/>
<path d="M62.5945 137.58C62.6825 137.462 62.755 137.333 62.8102 137.196C62.9585 136.9 63.1473 136.523 63.3765 136.051C63.8551 135.061 64.5225 133.606 65.318 131.801C66.9158 128.198 68.9719 123.146 71.1696 117.542C73.3673 111.938 75.383 106.88 76.9133 103.249L78.7538 98.9588L79.2459 97.7869C79.3111 97.6531 79.3631 97.5132 79.4009 97.3693C79.3119 97.488 79.2373 97.6169 79.1785 97.7532L78.6189 98.8982C78.1335 99.8883 77.4729 101.343 76.6774 103.148C75.0729 106.752 73.0235 111.803 70.8258 117.407C68.6281 123.011 66.6124 128.07 65.0753 131.7L63.2417 135.991L62.7428 137.163C62.6772 137.296 62.6274 137.436 62.5945 137.58Z" fill="#E0E0E0"/>
<path d="M20.1234 123.382C20.26 123.45 20.402 123.506 20.5481 123.55L21.7818 123.968L26.3593 125.483C30.2019 126.77 35.4872 128.608 41.3253 130.656C47.1634 132.704 52.4622 134.502 56.3318 135.728C58.2599 136.334 59.8306 136.819 60.9227 137.129L62.1767 137.479C62.3203 137.531 62.4697 137.564 62.6216 137.58C62.4867 137.508 62.3442 137.452 62.1969 137.412L60.9632 136.987L56.4127 135.472C52.5701 134.192 47.2848 132.353 41.4467 130.306C35.6086 128.258 30.3098 126.46 26.4469 125.234C24.5121 124.621 22.9413 124.143 21.8492 123.833L20.5953 123.476C20.4423 123.426 20.2839 123.394 20.1234 123.382Z" fill="#E0E0E0"/>
<path d="M67.3607 0.708252H29.3253C26.7042 0.708252 24.5793 2.83122 24.5793 5.45004V24.2219C24.5793 26.8407 26.7042 28.9637 29.3253 28.9637H67.3607C69.9818 28.9637 72.1067 26.8407 72.1067 24.2219V5.45004C72.1067 2.83122 69.9818 0.708252 67.3607 0.708252Z" fill="#E0E0E0"/>
<path d="M53.4868 28.0676L64.7248 38.0362L65.6484 28.2428" fill="#E0E0E0"/>
<path d="M42.1612 15.2434C42.1612 15.7909 41.9987 16.3261 41.6943 16.7814C41.3898 17.2366 40.9571 17.5914 40.4508 17.801C39.9445 18.0105 39.3874 18.0653 38.8499 17.9585C38.3125 17.8517 37.8188 17.588 37.4313 17.2009C37.0438 16.8137 36.7799 16.3204 36.673 15.7835C36.5661 15.2465 36.6209 14.6898 36.8307 14.184C37.0404 13.6782 37.3955 13.2458 37.8512 12.9416C38.3068 12.6375 38.8425 12.4751 39.3905 12.4751C40.1253 12.4751 40.8301 12.7668 41.3497 13.2859C41.8693 13.8051 42.1612 14.5092 42.1612 15.2434Z" fill="white"/>
<path d="M51.68 15.2434C51.68 15.7912 51.5174 16.3267 51.2126 16.7821C50.9079 17.2375 50.4747 17.5923 49.9681 17.8016C49.4614 18.0109 48.9039 18.0654 48.3663 17.958C47.8286 17.8506 47.3349 17.5863 46.9477 17.1985C46.5605 16.8107 46.2971 16.3168 46.191 15.7793C46.0848 15.2419 46.1407 14.6851 46.3514 14.1793C46.5621 13.6736 46.9183 13.2417 47.3749 12.9384C47.8314 12.635 48.3678 12.4738 48.916 12.4751C49.2796 12.4751 49.6396 12.5468 49.9753 12.686C50.3111 12.8252 50.6161 13.0292 50.8729 13.2863C51.1296 13.5435 51.3331 13.8487 51.4716 14.1845C51.6101 14.5203 51.6809 14.8802 51.68 15.2434Z" fill="white"/>
<path d="M61.2057 15.2434C61.2057 15.7912 61.043 16.3267 60.7382 16.7821C60.4335 17.2375 60.0004 17.5923 59.4937 17.8016C58.987 18.0109 58.4295 18.0654 57.8919 17.958C57.3542 17.8506 56.8606 17.5863 56.4733 17.1985C56.0861 16.8107 55.8228 16.3168 55.7166 15.7793C55.6105 15.2419 55.6663 14.6851 55.877 14.1793C56.0878 13.6736 56.444 13.2417 56.9005 12.9384C57.357 12.635 57.8934 12.4738 58.4417 12.4751C59.1753 12.4769 59.8784 12.7693 60.3965 13.2883C60.9147 13.8073 61.2057 14.5104 61.2057 15.2434Z" fill="white"/>
<path d="M205.025 31.0189L195.557 55.0697L231.273 69.1046L240.741 45.0538L205.025 31.0189Z" fill="#EBEBEB"/>
<path d="M240.738 45.3645C240.593 45.4467 240.439 45.5122 240.279 45.5598L238.931 46.0381L233.996 47.7421L217.608 53.2585L217.473 53.3057L217.399 53.1777L217.23 52.8813L208.52 37.6793C207.442 35.753 206.552 34.1836 205.918 33.052L205.244 31.7857C205.155 31.6433 205.08 31.4921 205.021 31.3345C205.129 31.4643 205.224 31.6041 205.305 31.7521L206.053 32.9847C206.727 34.1028 207.624 35.6789 208.75 37.5581L217.513 52.7062L217.682 53.0093L217.48 52.9285L233.895 47.5401L238.877 45.937L240.225 45.5194C240.392 45.4549 240.563 45.4032 240.738 45.3645Z" fill="#E0E0E0"/>
<path d="M195.57 55.387C195.523 55.3062 199.507 53.0632 204.462 50.3825C209.417 47.7018 213.482 45.5936 213.529 45.6677C213.576 45.7418 209.592 47.9914 204.631 50.6721C199.669 53.3529 195.57 55.4746 195.57 55.387Z" fill="#E0E0E0"/>
<path d="M225.495 50.0459C225.583 50.0459 226.951 54.3364 228.542 59.6844C230.133 65.0324 231.354 69.397 231.239 69.4239C231.124 69.4509 229.783 65.1334 228.192 59.7854C226.601 54.4374 225.401 50.0728 225.495 50.0459Z" fill="#E0E0E0"/>
<path d="M294.063 284.825C294.063 284.919 228.232 285 147.038 285C65.8439 285 0 284.919 0 284.825C0 284.731 65.8169 284.65 147.038 284.65C228.259 284.65 294.063 284.724 294.063 284.825Z" fill="#263238"/>
<path d="M152.357 145.063C157.16 145.063 161.054 141.173 161.054 136.374C161.054 131.576 157.16 127.686 152.357 127.686C147.554 127.686 143.661 131.576 143.661 136.374C143.661 141.173 147.554 145.063 152.357 145.063Z" fill="#FF7D09"/>
<path d="M182.289 145.063C187.092 145.063 190.986 141.173 190.986 136.374C190.986 131.576 187.092 127.686 182.289 127.686C177.486 127.686 173.593 131.576 173.593 136.374C173.593 141.173 177.486 145.063 182.289 145.063Z" fill="#73DDD9"/>
<path d="M240.171 91.4151C240.34 91.38 240.512 91.3686 240.684 91.3814C241.189 91.3836 241.693 91.44 242.187 91.5498C243.007 91.7206 243.796 92.0159 244.526 92.4254C245.541 92.9939 246.431 93.7614 247.142 94.6818C248.058 95.8562 248.65 97.2493 248.861 98.7231C248.925 99.1356 248.961 99.5519 248.969 99.9691C248.969 100.387 248.969 100.804 248.969 101.235C248.969 102.098 248.969 103 248.969 103.93C249.003 107.668 249.03 111.965 249.07 116.781C249.117 126.419 249.171 138.139 249.239 151.63C249.239 155.003 249.252 158.483 249.279 162.07C249.279 163.867 249.279 165.687 249.279 167.533C249.279 168.456 249.279 169.385 249.279 170.321C249.279 170.786 249.279 171.258 249.279 171.729C249.271 172.239 249.226 172.748 249.144 173.251C248.795 175.345 247.732 177.254 246.134 178.654C244.537 180.053 242.504 180.858 240.38 180.93L228.097 180.97L228.825 180.297C228.03 188.925 227.194 198.038 226.318 207.495L226.183 208.97L225.037 208.027L192.064 180.883L192.604 181.071L125.041 181.105H109.178C108.639 181.105 108.147 181.105 107.574 181.105C106.123 181.072 104.701 180.7 103.42 180.019C102.14 179.339 101.036 178.368 100.198 177.185C99.5307 176.246 99.0396 175.194 98.749 174.08C98.4994 172.998 98.3973 171.888 98.4456 170.779C98.4456 168.714 98.4456 166.653 98.4456 164.596C98.4456 160.497 98.4456 156.426 98.4456 152.385C98.4456 136.22 98.4793 120.661 98.4928 105.822C98.4928 103.97 98.4928 102.125 98.4928 100.299C98.4668 99.3094 98.5919 98.3214 98.8636 97.3692C99.1402 96.4108 99.5656 95.5017 100.124 94.675C101.247 93.0463 102.86 91.8172 104.729 91.1658C105.645 90.8395 106.608 90.6643 107.58 90.6472C108.497 90.6472 109.353 90.6472 110.243 90.6472L130.71 90.6876L167.444 90.7954L220.641 91.0715L235.102 91.2399L238.864 91.3275C239.292 91.3184 239.721 91.3477 240.144 91.4151C239.721 91.4869 239.292 91.5162 238.864 91.5026L235.102 91.5902L220.641 91.7586L167.444 92.0347L130.71 92.1425L110.243 92.1829C109.374 92.1829 108.463 92.1829 107.614 92.1829C106.804 92.1972 106.002 92.3451 105.241 92.6207C103.693 93.1673 102.36 94.1909 101.432 95.5439C100.494 96.9333 100.022 98.5842 100.084 100.259C100.084 102.084 100.084 103.93 100.084 105.782C100.084 120.6 100.117 136.193 100.138 152.344C100.138 156.386 100.138 160.456 100.138 164.556V170.739C100.088 171.703 100.175 172.669 100.394 173.608C100.747 174.977 101.474 176.221 102.495 177.2C103.515 178.179 104.788 178.855 106.171 179.152C106.633 179.248 107.102 179.305 107.574 179.32C108.052 179.32 108.612 179.32 109.131 179.32H125.122L192.684 179.354H192.988L193.224 179.549L226.122 206.781L224.835 207.313C225.745 197.883 226.621 188.75 227.457 180.128L227.518 179.455H228.192H240.434C242.241 179.401 243.973 178.725 245.337 177.54C246.701 176.355 247.613 174.735 247.917 172.955C247.986 172.525 248.024 172.091 248.032 171.655C248.032 171.184 248.032 170.712 248.032 170.247C248.032 169.311 248.032 168.382 248.032 167.459C248.032 165.613 248.032 163.792 248.032 161.996C248.032 158.404 248.045 154.924 248.072 151.556C248.14 138.085 248.194 126.345 248.241 116.707C248.281 111.891 248.308 107.594 248.342 103.856C248.342 102.926 248.342 102.023 248.342 101.161C248.342 100.73 248.342 100.313 248.342 99.8951C248.341 99.5032 248.317 99.1118 248.268 98.7231C248.095 97.3357 247.568 96.0161 246.738 94.8906C246.083 93.9932 245.255 93.2352 244.304 92.6611C243.612 92.2398 242.862 91.92 242.079 91.7114C240.866 91.442 240.171 91.4824 240.171 91.4151Z" fill="#73DDD9"/>
<path d="M53.089 134.657H184.399C186.795 134.657 189.093 135.608 190.787 137.301C192.481 138.993 193.433 141.289 193.433 143.683V214.446C193.433 216.839 192.481 219.135 190.787 220.828C189.093 222.52 186.795 223.471 184.399 223.471H53.089C50.6949 223.471 48.3989 222.521 46.706 220.83C45.0132 219.138 44.0621 216.844 44.0621 214.452V143.683C44.0613 142.498 44.2941 141.324 44.7473 140.229C45.2006 139.134 45.8653 138.139 46.7036 137.301C47.542 136.463 48.5374 135.798 49.633 135.344C50.7286 134.89 51.903 134.657 53.089 134.657Z" fill="#73DDD9"/>
<path d="M134.924 220.629L170.242 251.962L173.141 221.188" fill="#73DDD9"/>
<path d="M90.6187 189.006C95.4217 189.006 99.3152 185.115 99.3152 180.317C99.3152 175.518 95.4217 171.628 90.6187 171.628C85.8158 171.628 81.9222 175.518 81.9222 180.317C81.9222 185.115 85.8158 189.006 90.6187 189.006Z" fill="white"/>
<path d="M120.551 189.006C125.354 189.006 129.247 185.115 129.247 180.317C129.247 175.518 125.354 171.628 120.551 171.628C115.748 171.628 111.854 175.518 111.854 180.317C111.854 185.115 115.748 189.006 120.551 189.006Z" fill="white"/>
<path d="M150.483 189.006C155.286 189.006 159.179 185.115 159.179 180.317C159.179 175.518 155.286 171.628 150.483 171.628C145.68 171.628 141.786 175.518 141.786 180.317C141.786 185.115 145.68 189.006 150.483 189.006Z" fill="white"/>
<g opacity="0.3">
<path opacity="0.3" d="M187.858 135.014L173.822 134.603H65.2844C74.3045 143.568 87.2009 148.364 99.8681 149.468C112.535 150.573 125.27 148.647 137.802 146.478C150.335 144.309 162.921 141.884 175.642 141.978C178.339 141.978 181.11 142.113 183.604 141.116C186.098 140.119 188.228 137.708 187.858 135.014Z" fill="black"/>
</g>
<path d="M212.221 145.063C217.024 145.063 220.918 141.173 220.918 136.374C220.918 131.576 217.024 127.686 212.221 127.686C207.418 127.686 203.525 131.576 203.525 136.374C203.525 141.173 207.418 145.063 212.221 145.063Z" fill="#73DDD9"/>
<path d="M137.277 8.6156C133.774 8.66863 130.378 9.82769 127.574 11.9268C124.771 14.0259 122.704 16.9575 121.67 20.3017C120.686 23.757 120.881 27.4346 120.248 30.9774C119.614 34.5203 117.828 38.2248 114.464 39.5046C112.273 40.3331 109.744 39.9895 107.587 40.8517C106.572 41.258 105.676 41.9122 104.98 42.7545C104.284 43.5967 103.811 44.6 103.603 45.6724C103.396 46.7448 103.461 47.852 103.794 48.8926C104.126 49.9332 104.714 50.8739 105.504 51.6285C104.171 52.7756 103.278 54.3489 102.976 56.0803C102.674 57.8116 102.982 59.5941 103.848 61.1239C104.714 62.6538 106.084 63.8364 107.724 64.4704C109.365 65.1045 111.175 65.1506 112.846 64.6011C111.598 66.6217 112.01 69.3159 113.473 71.1614C115.03 72.9505 117.228 74.058 119.594 74.2463C121.936 74.4215 124.291 74.2099 126.564 73.6199C131.674 72.4883 136.798 70.6697 140.641 67.1201C144.854 63.227 147.085 57.6904 148.778 52.1875C152 41.7138 153.719 30.4319 151.083 19.7965" fill="#263238"/>
<path d="M113.783 66.9855L108.1 79.399L95.6615 52.0124C95.075 49.7965 94.4144 47.2976 94.2795 46.7992C94.0791 46.0327 94.0085 45.2382 94.0706 44.4485C94.1119 43.4679 94.2888 42.4978 94.5964 41.5657C94.9672 40.7372 94.138 39.8953 93.4234 40.2994C92.7088 40.7035 91.6369 42.9936 91.6706 45.8697C91.7043 48.7457 81.6797 41.8755 80.0551 43.5055L81.2685 53.1373C82.3674 54.1409 85.4685 56.9092 87.1943 58.4381L98.9244 87.6028C99.5817 89.3979 100.74 90.9674 102.261 92.1257C103.783 93.284 105.605 93.9828 107.512 94.1394C109.419 94.2959 111.33 93.9037 113.021 93.0092C114.711 92.1146 116.11 90.7551 117.052 89.0914L124.609 75.782L113.783 66.9855Z" fill="#FFBE9D"/>
<path d="M87.4302 34.655C87.4793 34.6375 87.5314 34.6305 87.5834 34.6345C87.6353 34.6385 87.6858 34.6534 87.7316 34.6781C87.7774 34.7029 87.8174 34.7371 87.8491 34.7783C87.8809 34.8196 87.9035 34.8671 87.9156 34.9177L94.3672 54.0533C94.4281 54.2204 94.4306 54.4033 94.3743 54.572C94.318 54.7408 94.2062 54.8855 94.0571 54.9828L86.3988 59.2733C86.3212 59.3136 86.2357 59.336 86.1483 59.339C86.061 59.3421 85.9741 59.3255 85.894 59.2907C85.8138 59.2558 85.7425 59.2035 85.6852 59.1376C85.6279 59.0716 85.5861 58.9937 85.5628 58.9096L78.309 39.1005C78.2365 38.9219 78.2344 38.7225 78.3032 38.5425C78.372 38.3625 78.5066 38.2153 78.6798 38.1305L87.4302 34.655Z" fill="#263238"/>
<path d="M87.639 36.0629L93.5715 53.1306L85.9874 57.1719L79.4684 39.3026L87.639 36.0629Z" fill="#F5F5F5"/>
<path d="M80.918 40.4611C81.1472 41.0471 81.5247 41.9901 81.7606 42.5761C81.7879 42.645 81.8289 42.7077 81.8809 42.7605C81.933 42.8133 81.9951 42.855 82.0637 42.8833C82.1323 42.9116 82.2058 42.9258 82.28 42.9251C82.3542 42.9244 82.4275 42.9088 82.4955 42.8791L86.5404 41.1885L87.9358 41.3906L87.5448 40.6564L88.0032 40.4678C88.0722 40.4406 88.135 40.3997 88.1878 40.3477C88.2407 40.2957 88.2825 40.2336 88.3108 40.165C88.3391 40.0965 88.3533 40.023 88.3526 39.9489C88.3519 39.8748 88.3362 39.8016 88.3066 39.7337L87.4842 37.8141C87.4263 37.6806 87.3181 37.5754 87.1831 37.5212C87.048 37.4669 86.897 37.4681 86.7628 37.5244L81.2483 39.7471C81.1788 39.7711 81.1149 39.8089 81.0604 39.8582C81.0059 39.9074 80.9619 39.9672 80.931 40.0339C80.9002 40.1005 80.8831 40.1727 80.8809 40.2462C80.8786 40.3196 80.8912 40.3927 80.918 40.4611Z" fill="#E0E0E0"/>
<path d="M84.3358 50.5509L85.1785 52.6591C85.2058 52.7272 85.2465 52.7891 85.2981 52.8413C85.3496 52.8935 85.4111 52.935 85.4789 52.9632C85.5467 52.9914 85.6194 53.0058 85.6928 53.0057C85.7662 53.0055 85.8389 52.9907 85.9066 52.9622L89.9514 51.2716L91.3469 51.4736L90.9559 50.7394L91.4143 50.5509C91.4833 50.5236 91.5461 50.4827 91.5989 50.4307C91.6518 50.3787 91.6936 50.3166 91.7219 50.2481C91.7502 50.1796 91.7644 50.1061 91.7637 50.032C91.763 49.9578 91.7473 49.8846 91.7177 49.8167L90.8952 47.9038C90.8679 47.8374 90.8277 47.777 90.777 47.7261C90.7262 47.6753 90.6659 47.6349 90.5995 47.6074C90.5331 47.5798 90.462 47.5657 90.3901 47.5657C90.3182 47.5657 90.247 47.5799 90.1806 47.6074L84.6594 49.8302C84.5903 49.8556 84.5269 49.8945 84.4731 49.9447C84.4192 49.9949 84.3759 50.0553 84.3458 50.1225C84.3156 50.1896 84.2992 50.2621 84.2975 50.3357C84.2958 50.4092 84.3088 50.4824 84.3358 50.5509Z" fill="#E0E0E0"/>
<path d="M89.0549 42.8455C89.311 43.418 89.729 44.3542 89.9717 44.9267C90.0015 44.9943 90.0175 45.0671 90.0187 45.1409C90.0198 45.2147 90.0062 45.2879 89.9785 45.3564C89.9509 45.4248 89.9098 45.487 89.8577 45.5393C89.8055 45.5916 89.7435 45.633 89.6751 45.6609L85.6302 47.3448L84.801 48.4831L84.5448 47.6815L84.0931 47.8836C84.0254 47.9125 83.9527 47.9277 83.8791 47.9284C83.8055 47.9291 83.7324 47.9153 83.6642 47.8878C83.5959 47.8603 83.5338 47.8195 83.4813 47.768C83.4288 47.7164 83.387 47.655 83.3583 47.5872L82.5628 45.6542C82.5087 45.5191 82.5094 45.3682 82.5648 45.2337C82.6201 45.0991 82.7259 44.9914 82.8595 44.9335L88.3133 42.5626C88.3804 42.5313 88.4531 42.5139 88.5271 42.5112C88.6011 42.5086 88.6748 42.5208 88.744 42.5472C88.8132 42.5736 88.8763 42.6136 88.9297 42.6648C88.9831 42.716 89.0257 42.7775 89.0549 42.8455Z" fill="#E0E0E0"/>
<path d="M80.0551 43.9836C81.3562 44.1992 82.9539 44.3272 84.255 44.5427C84.6304 44.5751 84.9929 44.695 85.3134 44.8929C85.4683 44.998 85.5823 45.153 85.6363 45.3321C85.6903 45.5111 85.681 45.7033 85.61 45.8763C85.401 46.2535 84.8887 46.2804 84.4572 46.267C83.4999 46.267 82.4348 46.4421 81.4775 46.4084C82.7045 46.5162 83.837 46.6172 85.2055 46.7789C85.4961 46.8071 85.7684 46.9331 85.9779 47.1363C86.1873 47.3394 86.3215 47.6076 86.3583 47.897C86.337 48.1417 86.2301 48.3711 86.0562 48.5448C85.8823 48.7185 85.6527 48.8254 85.4078 48.8467C84.905 48.8814 84.4005 48.8814 83.8977 48.8467C83.8977 48.8467 81.9224 48.8467 81.8348 49.1296C83.0685 49.1296 84.6932 49.3855 85.9269 49.5C86.2639 49.5 86.4123 49.985 86.4932 50.315C86.5421 50.4771 86.534 50.6511 86.4702 50.8079C86.4065 50.9648 86.2908 51.0951 86.1426 51.1772C85.9863 51.2286 85.821 51.2469 85.6572 51.231C84.0595 51.1839 83.2303 51.2849 81.6123 51.231" fill="#FFBE9D"/>
<path d="M109.643 88.2627C109.767 86.7236 109.713 85.1755 109.481 83.6489C109.134 82.1429 108.611 80.6827 107.924 79.2977C108.251 79.629 108.518 80.0141 108.713 80.436C109.241 81.4222 109.616 82.4828 109.825 83.5815C110.043 84.6906 110.086 85.8268 109.953 86.9493C109.929 87.402 109.824 87.8467 109.643 88.2627Z" fill="#EB996E"/>
<path d="M86.2235 49.7028C85.2929 49.7709 84.3574 49.7211 83.4392 49.5545C82.6775 49.4803 81.9763 49.3253 81.5112 49.3253C81.2541 49.3416 81.0035 49.4128 80.7764 49.5343C80.7764 49.5343 80.7764 49.4399 80.8977 49.332C81.063 49.1865 81.2713 49.0989 81.491 49.0826C82.1562 49.0623 82.8219 49.1029 83.4797 49.2039C84.4112 49.2579 85.3326 49.4254 86.2235 49.7028Z" fill="#EB996E"/>
<path d="M85.7853 46.9074C84.8639 46.9759 83.9376 46.9283 83.028 46.7658C82.273 46.6917 81.5786 46.5299 81.1269 46.5434C80.6753 46.5568 80.4528 46.8198 80.4123 46.7793C80.3719 46.7389 80.5404 46.395 81.0865 46.3007C81.3862 46.2601 81.6901 46.2601 81.9899 46.3007L83.055 46.4153C83.9821 46.4649 84.8993 46.6302 85.7853 46.9074Z" fill="#EB996E"/>
<path d="M124.252 104.61C124.252 104.61 83.2235 101.512 71.3517 110.793C59.48 120.075 65.1631 135.041 65.1631 135.041H132.254L134.829 104.125L124.252 104.61Z" fill="#263238"/>
<path d="M131.971 125.901C131.77 125.905 131.57 125.892 131.371 125.86C130.98 125.813 130.4 125.759 129.666 125.658C128.182 125.47 126.039 125.167 123.403 124.722C116.54 123.543 109.751 121.969 103.071 120.007C99.1672 118.849 95.4594 117.697 92.0415 116.828C89.0211 116.048 85.9329 115.559 82.8192 115.366C80.72 115.25 78.6145 115.372 76.5429 115.73C75.8013 115.824 75.2485 116.006 74.8642 116.074C74.6693 116.125 74.4711 116.164 74.271 116.188C74.4569 116.113 74.6485 116.052 74.844 116.006C75.3937 115.84 75.9518 115.703 76.5159 115.595C78.5944 115.181 80.7155 115.021 82.8327 115.117C85.9658 115.276 89.0754 115.745 92.1156 116.518C95.5538 117.347 99.2683 118.539 103.172 119.664C109.838 121.619 116.603 123.226 123.436 124.48C126.059 124.951 128.196 125.295 129.666 125.524L131.364 125.786C131.769 125.854 131.971 125.894 131.971 125.901Z" fill="#455A64"/>
<path d="M93.2481 116.666C92.0965 115.703 90.8626 114.842 89.5605 114.093C88.2038 113.447 86.7913 112.924 85.3403 112.531C85.7946 112.499 86.2509 112.547 86.6886 112.672C87.7492 112.903 88.7741 113.274 89.7358 113.777C90.6953 114.282 91.5838 114.912 92.3784 115.649C92.7236 115.937 93.0177 116.281 93.2481 116.666Z" fill="#455A64"/>
<path d="M153.948 100.75C153.948 100.75 116.418 101.768 104.547 111.049C92.675 120.331 98.358 135.297 98.358 135.297L168.739 136.361V127.302L159.611 126.318L159.544 125.901C163.083 122.028 160.386 108.53 154.494 101.411L153.948 100.75Z" fill="#263238"/>
<path d="M164.485 126.931C164.284 126.931 164.084 126.915 163.885 126.884C163.494 126.844 162.921 126.783 162.179 126.689C160.696 126.5 158.553 126.197 155.923 125.746C149.058 124.571 142.266 122.997 135.584 121.031C131.674 119.872 127.98 118.701 124.555 117.859C121.54 117.073 118.456 116.577 115.347 116.377C113.247 116.261 111.142 116.383 109.07 116.74C108.329 116.835 107.776 117.023 107.392 117.091C107.197 117.143 106.999 117.179 106.798 117.198C106.984 117.124 107.176 117.065 107.371 117.023C107.921 116.855 108.479 116.716 109.043 116.606C111.119 116.203 113.235 116.051 115.347 116.154C118.478 116.294 121.588 116.746 124.63 117.502C128.074 118.337 131.782 119.522 135.686 120.654C142.356 122.604 149.125 124.203 155.964 125.443C158.586 125.921 160.723 126.264 162.2 126.493L163.899 126.756C164.099 126.797 164.295 126.855 164.485 126.931Z" fill="#455A64"/>
<path d="M125.762 117.663C124.61 116.699 123.376 115.835 122.075 115.084C120.715 114.444 119.303 113.921 117.854 113.521C118.309 113.489 118.766 113.54 119.203 113.669C121.335 114.132 123.303 115.16 124.899 116.646C125.241 116.935 125.533 117.279 125.762 117.663Z" fill="#455A64"/>
<path d="M134.546 102.306C134.356 102.356 134.162 102.39 133.966 102.407L132.295 102.643C130.852 102.859 128.762 103.209 126.227 103.721C123.692 104.233 120.618 104.899 117.254 105.701C113.609 106.541 110.114 107.936 106.893 109.837C105.236 110.827 103.719 112.035 102.383 113.427C101.15 114.734 100.1 116.202 99.2614 117.791C97.8452 120.495 97.0941 123.496 97.0704 126.547C97.052 128.602 97.3522 130.647 97.9603 132.609C98.176 133.283 98.3783 133.835 98.5198 134.192C98.5974 134.372 98.665 134.557 98.7221 134.745C98.6143 134.579 98.5239 134.403 98.4524 134.219C98.2185 133.707 98.0115 133.183 97.8322 132.65C97.0049 130.196 96.68 127.602 96.8769 125.02C97.0738 122.438 97.7884 119.923 98.9783 117.623C99.8181 116.001 100.878 114.503 102.127 113.171C103.483 111.753 105.025 110.525 106.711 109.52C109.952 107.604 113.473 106.206 117.147 105.378C120.517 104.59 123.571 103.957 126.146 103.472C128.722 102.987 130.825 102.677 132.274 102.502C133.002 102.414 133.569 102.353 133.96 102.327C134.155 102.309 134.351 102.303 134.546 102.306Z" fill="#455A64"/>
<path d="M168.739 127.753L175.157 127.349L179.411 129.821L187.561 130.71C191.464 130.912 192.085 135.108 189.685 135.108C187.777 135.108 176.363 135.849 176.363 135.849L168.739 136.051V127.753Z" fill="#E0E0E0"/>
<path d="M179.168 129.834C178.889 130.076 178.548 130.235 178.184 130.292C177.311 130.511 176.392 130.454 175.553 130.13C174.714 129.805 173.997 129.229 173.499 128.481C173.266 128.195 173.121 127.849 173.081 127.484C173.128 127.484 173.296 127.834 173.701 128.339C174.218 128.994 174.902 129.499 175.681 129.8C176.46 130.101 177.306 130.187 178.13 130.05C178.77 129.949 179.148 129.781 179.168 129.834Z" fill="#455A64"/>
<path d="M189.354 135.014C189.354 135.054 189.031 135.135 188.572 134.899C188.293 134.726 188.053 134.496 187.867 134.225C187.681 133.953 187.554 133.646 187.494 133.323C187.302 132.694 187.362 132.016 187.662 131.43C187.918 130.986 188.228 130.858 188.249 130.898C188.269 130.939 188.053 131.127 187.885 131.572C187.681 132.119 187.665 132.718 187.837 133.276C187.941 133.845 188.248 134.357 188.7 134.717C189.058 134.96 189.361 134.973 189.354 135.014Z" fill="#455A64"/>
<path d="M126.133 49.7225C126.133 49.7225 118.131 67.2954 118.603 70.2792C119.075 73.263 121.414 85.1714 121.414 85.1714L123.106 104.543C123.106 104.543 153.328 100.885 153.955 100.885C154.582 100.885 153.011 84.8615 153.011 84.8615L157.616 54.0668C157.616 54.0668 155.505 49.8706 145.987 48.4158C140.29 47.5334 126.133 49.7225 126.133 49.7225Z" fill="#EFD9D5"/>
<path d="M148.225 73.4043C148.61 76.5371 149.577 79.5705 151.076 82.3491C151.656 83.3931 152.195 84.8614 153.153 85.5754C154.649 86.7002 156.8 85.6427 158.155 84.3562C159.51 83.0698 160.885 81.4398 162.752 81.3724C163.946 81.332 165.051 81.9517 166.218 82.2009C167.384 82.4501 168.914 82.0662 169.164 80.9077C169.239 80.2233 169.077 79.534 168.705 78.9544C165.845 73.2773 163.655 67.2874 162.179 61.1053C161.557 59.3495 160.762 57.6596 159.806 56.0604C159.132 54.9221 157.393 53.2719 155.681 51.8844" fill="#EFD9D5"/>
<path d="M131.836 48.5571C123.517 48.8468 117.281 54.3429 115.508 58.3034C113.425 62.9509 111.807 68.5683 109.367 73.0407C108.819 73.8734 108.395 74.7809 108.106 75.7349C107.972 76.2179 107.987 76.7304 108.151 77.2044C108.315 77.6784 108.619 78.0914 109.023 78.3886C110.277 79.1296 112.097 78.1664 113.25 79.0622C113.884 79.5472 114.072 80.4093 114.598 81.0155C115.272 81.7362 116.331 81.8844 117.295 81.9921L122.911 82.5983" fill="#EFD9D5"/>
<path d="M146.357 65.7057C146.221 65.4958 146.112 65.2695 146.034 65.0321C145.793 64.4 145.625 63.7423 145.535 63.0721C145.205 60.8301 145.66 58.5432 146.823 56.5979C147.987 54.6526 149.787 53.1684 151.919 52.3963C152.552 52.1611 153.211 51.9985 153.881 51.9114C154.126 51.873 154.377 51.873 154.622 51.9114C153.733 52.0965 152.858 52.3487 152.007 52.6657C149.963 53.4683 148.244 54.9251 147.118 56.8081C145.992 58.6912 145.523 60.8941 145.784 63.0721C145.913 63.9623 146.105 64.8423 146.357 65.7057Z" fill="#263238"/>
<path d="M123.51 58.8221C123.394 59.1266 123.249 59.4197 123.079 59.6978C122.924 59.9739 122.742 60.3107 122.56 60.7148C122.378 61.1189 122.135 61.5635 121.926 62.0619C121.407 63.2644 120.968 64.4997 120.612 65.7597C120.184 67.3055 119.875 68.8817 119.688 70.4745C119.521 72.0673 119.471 73.6702 119.54 75.2702C119.605 76.5764 119.756 77.8768 119.991 79.1633C120.079 79.7157 120.207 80.2006 120.302 80.6384C120.396 81.0762 120.497 81.4399 120.585 81.743C120.684 82.0531 120.759 82.3707 120.807 82.6928C120.658 82.4022 120.539 82.0976 120.45 81.7835C120.318 81.4236 120.206 81.0571 120.113 80.6856C119.998 80.2545 119.85 79.7628 119.749 79.2105C119.476 77.9162 119.298 76.6038 119.216 75.2837C119.013 72.0433 119.381 68.7925 120.302 65.6789C120.676 64.411 121.145 63.1727 121.704 61.9744C121.905 61.5142 122.13 61.0646 122.378 60.6273C122.551 60.2849 122.742 59.9521 122.951 59.6304C123.112 59.3442 123.299 59.0736 123.51 58.8221Z" fill="#263238"/>
<path d="M168.672 78.53C168.672 78.53 168.672 78.604 168.604 78.7253C168.508 78.9021 168.377 79.0579 168.22 79.1833C167.604 79.6132 166.844 79.7849 166.103 79.6615C165.159 79.5537 164.182 78.988 163.042 78.7859C162.42 78.7065 161.788 78.7655 161.191 78.9588C160.595 79.1521 160.048 79.4749 159.591 79.904C158.532 80.7527 157.67 81.7832 156.652 82.4769C156.179 82.8264 155.644 83.0804 155.074 83.2246C154.575 83.3241 154.065 83.3558 153.557 83.3189C152.824 83.2866 152.11 83.0713 151.481 82.6925C151.314 82.5799 151.166 82.4411 151.043 82.2816C150.971 82.1649 150.937 82.1042 150.942 82.0998C151.132 82.2738 151.338 82.4315 151.555 82.5712C152.181 82.8918 152.874 83.0625 153.577 83.0697C154.06 83.0884 154.542 83.0454 155.013 82.9417C155.542 82.7933 156.039 82.5465 156.476 82.2143C157.434 81.5407 158.276 80.5102 159.382 79.6278C159.919 79.1899 160.525 78.8439 161.175 78.604C161.796 78.3868 162.465 78.3403 163.11 78.4693C164.323 78.732 165.274 79.2911 166.144 79.4123C166.836 79.5558 167.557 79.4357 168.166 79.0755C168.36 78.9189 168.53 78.7351 168.672 78.53Z" fill="#FAFAFA"/>
<path d="M166.744 74.5899C166.743 74.6556 166.727 74.7202 166.696 74.7785C166.621 74.9493 166.508 75.1011 166.366 75.223C166.09 75.4343 165.769 75.5809 165.428 75.652C165.088 75.7231 164.735 75.7169 164.398 75.6339C163.535 75.4924 162.645 74.9267 161.58 74.8728C160.399 74.8907 159.253 75.2769 158.303 75.9774C157.252 76.6846 156.348 77.5198 155.411 78.153C154.594 78.7494 153.647 79.142 152.647 79.298C151.962 79.4032 151.26 79.3122 150.625 79.0353C150.39 78.9457 150.18 78.8027 150.011 78.6177C150.011 78.6177 150.24 78.7524 150.685 78.9141C151.301 79.1227 151.961 79.1691 152.6 79.0488C153.552 78.8722 154.448 78.4729 155.216 77.8835C156.119 77.2571 157.009 76.4152 158.094 75.6878C159.104 74.9446 160.326 74.5455 161.58 74.5495C162.121 74.5993 162.651 74.7334 163.15 74.9469C163.566 75.1266 163.994 75.2752 164.431 75.3914C164.739 75.479 165.062 75.4996 165.378 75.452C165.694 75.4044 165.997 75.2895 166.265 75.1153C166.45 74.9655 166.612 74.7883 166.744 74.5899Z" fill="#FAFAFA"/>
<path d="M119.513 79.7089C119.513 79.7089 119.391 79.8908 119.027 79.9716C118.773 80.0113 118.513 79.9971 118.264 79.9298C118.016 79.8625 117.784 79.7436 117.585 79.5809C117.04 79.0776 116.612 78.4615 116.331 77.7758C116.185 77.384 115.956 77.028 115.661 76.7318C115.365 76.4355 115.01 76.2059 114.619 76.0583C113.767 75.9232 112.896 75.9691 112.064 76.193C111.334 76.3703 110.569 76.3353 109.859 76.0919C109.62 75.9984 109.401 75.8579 109.217 75.6785C109.033 75.4992 108.887 75.2848 108.787 75.0479C108.659 74.7044 108.726 74.4956 108.74 74.5024C108.753 74.5091 108.74 74.6977 108.908 74.994C109.139 75.3984 109.508 75.7067 109.947 75.8629C110.622 76.0498 111.335 76.0498 112.01 75.8629C112.886 75.6131 113.807 75.5625 114.706 75.7147C115.186 75.8431 115.612 76.1188 115.926 76.5028C116.194 76.8477 116.421 77.223 116.601 77.6209C116.854 78.277 117.234 78.8767 117.72 79.3856C118.069 79.6916 118.523 79.8509 118.987 79.8301C119.165 79.8024 119.341 79.7619 119.513 79.7089Z" fill="#FAFAFA"/>
<path d="M118.495 75.7415C118.495 75.7415 118.347 75.8223 118.09 75.7415C117.737 75.6058 117.439 75.354 117.248 75.0275C117.032 74.578 116.724 74.1788 116.344 73.8555C115.788 73.6101 115.163 73.5672 114.578 73.7343C113.929 73.8726 113.258 73.8726 112.61 73.7343C112.077 73.6104 111.575 73.3813 111.133 73.0608C110.705 72.804 110.363 72.4267 110.149 71.9763C110.203 71.9359 110.526 72.4007 111.275 72.8587C112.252 73.4461 113.418 73.6343 114.531 73.3841C115.193 73.2028 115.899 73.2723 116.513 73.5794C116.934 73.9447 117.261 74.407 117.463 74.9265C117.614 75.2245 117.849 75.4724 118.138 75.6404C118.347 75.7415 118.495 75.7415 118.495 75.7415Z" fill="#FAFAFA"/>
<path d="M150.173 79.2237C150.173 79.2237 149.748 79.1362 148.986 78.9611C148.225 78.7859 147.119 78.5233 145.744 78.2875C145.07 78.1663 144.301 78.0383 143.492 77.9373C142.635 77.8145 141.767 77.7806 140.903 77.8362C139.958 77.9649 139.045 78.2639 138.207 78.7186C137.317 79.1631 136.42 79.702 135.45 80.1802C134.506 80.6748 133.471 80.9727 132.409 81.0558C131.423 81.0955 130.437 80.9865 129.483 80.7325C127.923 80.2482 126.333 79.8635 124.724 79.5807C123.639 79.4177 122.53 79.5217 121.495 79.8838C121.13 80.049 120.775 80.2334 120.43 80.4361C120.43 80.4361 120.497 80.3553 120.659 80.2206C120.903 80.039 121.165 79.8832 121.441 79.7559C122.488 79.336 123.625 79.19 124.744 79.3315C126.373 79.5798 127.981 79.9444 129.558 80.4227C130.482 80.6558 131.436 80.7556 132.389 80.719C133.404 80.6281 134.392 80.3374 135.294 79.8636C136.245 79.3989 137.142 78.86 138.052 78.4088C138.928 77.9446 139.88 77.6412 140.863 77.5129C141.751 77.4637 142.641 77.5088 143.519 77.6476C144.342 77.7621 145.097 77.9036 145.784 78.045C147.132 78.3347 148.258 78.631 149.013 78.8466C149.391 78.9611 149.688 79.0486 149.876 79.1227C150.065 79.1968 150.18 79.2103 150.173 79.2237Z" fill="#FAFAFA"/>
<path d="M150.868 82.6052C150.868 82.6052 150.463 82.4435 149.748 82.1405C149.034 81.8374 147.982 81.4198 146.661 81.0156C145.944 80.7878 145.208 80.6211 144.463 80.5172C143.613 80.4443 142.757 80.5569 141.955 80.8472C140.236 81.4332 138.585 82.6928 136.562 83.4876C135.571 83.8655 134.515 84.0485 133.454 84.0264C132.481 84.0056 131.511 83.902 130.555 83.7166C128.97 83.3551 127.362 83.1053 125.742 82.9689C124.654 82.9 123.562 83.0395 122.526 83.3798C121.798 83.6425 121.441 83.8917 121.421 83.8647C121.401 83.8378 121.502 83.7839 121.67 83.6694C121.925 83.5072 122.193 83.3674 122.472 83.2518C123.516 82.8503 124.632 82.6713 125.749 82.7264C127.384 82.8243 129.009 83.0495 130.609 83.4C132.403 83.7031 134.479 83.9456 136.434 83.1643C138.389 82.3829 140.034 81.1436 141.827 80.5441C142.674 80.2477 143.577 80.1442 144.47 80.241C145.231 80.3508 145.98 80.5312 146.708 80.7799C147.755 81.1317 148.78 81.5479 149.775 82.0259C150.126 82.1943 150.396 82.3358 150.571 82.4368C150.676 82.4802 150.776 82.5368 150.868 82.6052Z" fill="#FAFAFA"/>
<path d="M141.861 81.3994C141.861 81.3994 141.692 81.4533 141.375 81.4803C140.926 81.5169 140.474 81.5056 140.027 81.4466C139.36 81.3676 138.704 81.2116 138.072 80.9819C137.301 80.6961 136.568 80.3184 135.888 79.857C135.215 79.3788 134.602 78.8226 134.061 78.2001C133.625 77.6895 133.251 77.1287 132.949 76.5297C132.735 76.1315 132.566 75.7115 132.443 75.2769C132.362 74.9738 132.322 74.7987 132.349 74.7919C132.375 74.7852 132.605 75.4655 133.164 76.4152C133.492 76.9763 133.873 77.5042 134.304 77.9913C134.843 78.577 135.442 79.1052 136.09 79.5674C136.746 80.0149 137.449 80.3898 138.187 80.6855C138.795 80.9192 139.425 81.0929 140.067 81.2041C141.16 81.386 141.861 81.3321 141.861 81.3994Z" fill="#263238"/>
<g opacity="0.3">
<path opacity="0.3" d="M132.369 75.5194C132.827 78.025 133.784 80.5239 135.611 82.3021C137.438 84.0802 140.263 84.9962 142.636 84.0465C142.895 83.9754 143.134 83.8427 143.331 83.6598C143.528 83.4769 143.678 83.2491 143.769 82.9958C143.799 82.6878 143.725 82.3786 143.558 82.1175C143.392 81.8563 143.144 81.6581 142.852 81.5544C142.259 81.3696 141.639 81.2854 141.018 81.3052C139.249 81.1871 137.54 80.6196 136.052 79.6566C134.565 78.6936 133.348 77.3669 132.517 75.8023" fill="black"/>
</g>
<path d="M152.135 85.5148C152.005 85.306 151.907 85.079 151.845 84.8412C151.676 84.4169 151.447 83.7972 151.171 83.0294C150.631 81.4869 149.937 79.3518 149.236 76.9674C148.535 74.5831 147.975 72.4008 147.598 70.8179C147.409 70.0231 147.267 69.3833 147.18 68.932C147.12 68.7121 147.086 68.4861 147.079 68.2584C147.188 68.4709 147.268 68.6976 147.315 68.932C147.463 69.4439 147.638 70.0568 147.84 70.7842C148.272 72.3536 148.879 74.5157 149.573 76.9001C150.267 79.2844 150.921 81.4263 151.407 82.962C151.622 83.6827 151.811 84.3091 151.966 84.8075C152.048 85.0363 152.105 85.2735 152.135 85.5148Z" fill="#263238"/>
<path d="M121.704 104.798C121.704 104.798 127.528 98.5612 132.625 97.3354C137.721 96.1095 155.977 89.6636 155.977 89.6636L154.825 86.0332C155.999 85.9085 157.089 85.3629 157.892 84.4975L159.072 83.3255C160.676 81.5743 162.611 80.6313 165.415 81.581L167.182 82.1064L169.022 87.4948C169.451 88.7514 169.597 90.0873 169.448 91.4066C169.299 92.726 168.86 93.9961 168.163 95.126C167.465 96.2559 166.525 97.2175 165.412 97.9418C164.298 98.6662 163.038 99.1353 161.721 99.3156L121.704 104.798Z" fill="#FFBE9D"/>
<path d="M163.548 90.4384C162.34 90.036 161.1 89.7385 159.84 89.5493C158.577 89.4732 157.309 89.5092 156.052 89.6571C157.277 89.2203 158.585 89.0638 159.879 89.199C161.173 89.3342 162.42 89.7578 163.528 90.4384H163.548Z" fill="#EB996E"/>
<path d="M122.58 19.5406C122.088 11.0808 133.117 5.14011 140.647 7.26179C147.719 9.28244 150.76 12.7714 151.899 17.4997C153.038 22.2281 153.004 27.347 151.151 31.8531C150.234 34.0691 148.589 36.3255 146.202 36.5679" fill="#263238"/>
<path d="M145.157 14.3474C145.755 14.4098 146.307 14.6946 146.704 15.145C147.101 15.5955 147.314 16.1788 147.301 16.7789L145.953 49.2104C145.906 53.0429 140.303 55.2049 136.205 55.1174C132.059 55.0298 131.917 53.0024 131.856 49.3585C131.762 43.2966 131.762 40.9863 131.762 41.02C131.762 41.0537 126.51 40.1511 125.459 33.3078C124.919 29.9401 125.088 24.3429 125.378 19.7964C125.634 15.7013 128.351 10.6698 132.436 11.1076L145.157 14.3474Z" fill="#FFBE9D"/>
<path d="M127.117 24.2353C127.117 24.4625 127.204 24.681 127.361 24.8453C127.518 25.0097 127.733 25.1072 127.96 25.1176C128.071 25.1268 128.183 25.1135 128.29 25.0786C128.396 25.0437 128.494 24.9879 128.578 24.9144C128.662 24.8409 128.731 24.7513 128.78 24.6508C128.829 24.5504 128.857 24.4412 128.863 24.3296C128.867 24.1008 128.781 23.8796 128.623 23.7134C128.466 23.5472 128.249 23.4493 128.02 23.4405C127.909 23.4323 127.796 23.4464 127.69 23.4821C127.584 23.5178 127.486 23.5743 127.402 23.6483C127.318 23.7223 127.249 23.8124 127.2 23.9131C127.151 24.0139 127.123 24.1235 127.117 24.2353Z" fill="#263238"/>
<path d="M126.551 22.7072C126.659 22.8218 127.326 22.3364 128.263 22.3364C129.2 22.3364 129.901 22.8083 130.002 22.6937C130.104 22.5791 129.942 22.4375 129.638 22.215C129.231 21.933 128.745 21.7846 128.25 21.7903C127.765 21.7884 127.292 21.9419 126.901 22.2285C126.598 22.451 126.497 22.66 126.551 22.7072Z" fill="#263238"/>
<path d="M136.333 24.2353C136.332 24.4636 136.421 24.6831 136.579 24.8476C136.738 25.0121 136.954 25.1089 137.182 25.1177C137.293 25.1259 137.405 25.112 137.511 25.0767C137.617 25.0414 137.715 24.9855 137.799 24.9122C137.883 24.8389 137.951 24.7497 138 24.6497C138.05 24.5496 138.079 24.4409 138.085 24.3296C138.087 24.1013 138.001 23.881 137.844 23.7152C137.686 23.5494 137.471 23.451 137.243 23.4405C137.131 23.4323 137.018 23.4464 136.911 23.482C136.805 23.5176 136.706 23.574 136.621 23.6479C136.537 23.7219 136.468 23.8118 136.418 23.9127C136.369 24.0135 136.339 24.1232 136.333 24.2353Z" fill="#263238"/>
<path d="M135.82 22.8889C135.928 23.0036 136.596 22.5114 137.533 22.5114C138.47 22.5114 139.171 22.9833 139.272 22.8687C139.373 22.7541 139.211 22.6125 138.908 22.3901C138.499 22.1109 138.015 21.9627 137.519 21.9654C137.035 21.9634 136.562 22.117 136.171 22.4036C135.868 22.626 135.767 22.835 135.82 22.8889Z" fill="#263238"/>
<path d="M132.396 29.8729C131.9 29.7165 131.385 29.6237 130.866 29.5967C130.623 29.5967 130.4 29.5226 130.36 29.361C130.336 29.1127 130.39 28.8629 130.515 28.647L131.23 26.815C132.221 24.2083 132.935 22.0597 132.827 22.0193C132.05 23.5178 131.39 25.0738 130.852 26.6735C130.616 27.3471 130.387 27.9331 130.178 28.519C130.024 28.8082 129.981 29.1434 130.057 29.462C130.09 29.547 130.142 29.623 130.21 29.6839C130.278 29.7448 130.359 29.7887 130.448 29.8123C130.582 29.8465 130.72 29.8668 130.859 29.8729C131.369 29.936 131.886 29.936 132.396 29.8729Z" fill="#263238"/>
<path d="M131.749 41.0202C134.965 41.069 138.132 40.2249 140.897 38.5819C140.897 38.5819 138.679 43.2968 131.836 42.6232L131.749 41.0202Z" fill="#EB996E"/>
<path d="M132.793 32.1427C132.973 31.917 133.207 31.7406 133.473 31.6298C133.74 31.5191 134.03 31.4777 134.317 31.5096C134.526 31.5288 134.728 31.59 134.912 31.6896C135.097 31.7891 135.259 31.925 135.389 32.0888C135.516 32.2446 135.591 32.4358 135.604 32.6361C135.617 32.8364 135.568 33.0358 135.463 33.2069C135.313 33.3772 135.115 33.4985 134.895 33.5549C134.675 33.6114 134.443 33.6004 134.229 33.5235C133.783 33.3655 133.373 33.1205 133.023 32.8028C132.918 32.7264 132.827 32.633 132.753 32.5266C132.72 32.4741 132.703 32.4135 132.703 32.3515C132.703 32.2896 132.72 32.2289 132.753 32.1764" fill="#EB996E"/>
<path d="M135.173 30.5263C135.018 30.5263 135.018 31.5366 134.142 32.264C133.265 32.9914 132.173 32.8769 132.167 33.0184C132.16 33.1598 132.409 33.2205 132.841 33.2339C133.442 33.24 134.027 33.035 134.492 32.6547C134.936 32.2913 135.222 31.7695 135.288 31.1998C135.355 30.7687 135.241 30.5195 135.173 30.5263Z" fill="#263238"/>
<path d="M135.396 21.2381C135.49 21.4941 136.427 21.3728 137.533 21.5008C138.638 21.6288 139.555 21.9386 139.683 21.7096C139.751 21.6018 139.596 21.3594 139.232 21.1101C138.751 20.8057 138.208 20.6146 137.642 20.5516C137.077 20.4886 136.504 20.5552 135.969 20.7464C135.571 20.9148 135.355 21.1169 135.396 21.2381Z" fill="#263238"/>
<path d="M126.895 19.986C127.063 20.195 127.71 19.986 128.492 19.986C129.274 19.986 129.935 20.1276 130.09 19.9051C130.157 19.7973 130.05 19.5815 129.76 19.3793C129.375 19.1317 128.923 19.0092 128.465 19.0287C128.005 19.0326 127.559 19.1838 127.191 19.4602C126.915 19.6557 126.807 19.8782 126.895 19.986Z" fill="#263238"/>
<path d="M135.807 8.85132C133.483 8.9639 131.225 9.65877 129.241 10.872C128.126 11.4426 127.135 12.2279 126.325 13.1828C125.515 14.1376 124.902 15.2431 124.522 16.4355C124.426 16.6818 124.382 16.9449 124.391 17.2089C124.401 17.4728 124.463 17.7321 124.576 17.9712C124.792 18.246 125.098 18.4367 125.44 18.5105C125.782 18.5843 126.139 18.5365 126.45 18.3753C127.062 18.0364 127.585 17.556 127.973 16.9743C128.139 17.6048 128.511 18.1618 129.03 18.5568C129.549 18.9518 130.186 19.1621 130.838 19.1544C131.49 19.1466 132.121 18.9213 132.631 18.5141C133.14 18.1069 133.499 17.5412 133.65 16.907C133.701 17.5614 134.003 18.1708 134.493 18.6085C134.983 19.0463 135.622 19.2787 136.279 19.2577C136.936 19.2015 137.562 18.9539 138.08 18.5456C138.598 18.1374 138.984 17.5864 139.191 16.9609C139.347 18.1559 139.756 19.3041 140.391 20.3286C140.716 20.8297 141.187 21.2192 141.74 21.4445C142.294 21.6697 142.903 21.7199 143.486 21.5881C143.238 22.5922 143.254 23.6434 143.533 24.6393C143.89 25.6092 145.555 46.5027 146.539 46.1929C147.524 45.8831 147.254 24.6393 147.477 23.6559C147.96 21.7882 148.205 19.8667 148.205 17.9375C148.269 15.9536 147.627 14.0114 146.392 12.4561C145.158 10.9009 143.411 9.83361 141.463 9.44404C139.515 8.99606 137.515 8.81255 135.517 8.89847" fill="#263238"/>
<path d="M112.023 35.8877C112.023 35.8877 111.949 35.7665 111.753 35.5779C111.472 35.3002 111.112 35.1167 110.722 35.0525C110.42 34.9944 110.109 34.9985 109.809 35.0645C109.509 35.1305 109.225 35.2571 108.976 35.4364C108.67 35.7 108.437 36.0382 108.3 36.4182C108.163 36.7982 108.126 37.2071 108.194 37.6053C108.255 38.0721 108.431 38.5165 108.706 38.8985C109.019 39.3015 109.426 39.6209 109.893 39.828C110.413 40.0544 110.974 40.1712 111.541 40.1712C112.108 40.1712 112.669 40.0544 113.189 39.828C114.352 39.3035 115.354 38.4808 116.095 37.4436C116.915 36.3405 117.546 35.1092 117.962 33.7997C118.852 31.1055 119.095 28.3709 119.466 25.9192C119.742 23.7277 120.323 21.5854 121.191 19.5541C121.789 18.178 122.677 16.9467 123.794 15.9439C124.104 15.6739 124.436 15.4284 124.785 15.2097C124.9 15.1305 125.025 15.0649 125.155 15.0144C125.155 15.0144 124.663 15.3242 123.888 16.018C122.822 17.0376 121.98 18.2669 121.414 19.6282C120.585 21.6481 120.037 23.7714 119.782 25.9394C119.425 28.3844 119.196 31.1325 118.286 33.8805C117.86 35.2274 117.21 36.4933 116.365 37.6255C115.58 38.7035 114.527 39.558 113.311 40.1041C112.751 40.3478 112.148 40.4735 111.538 40.4735C110.927 40.4735 110.324 40.3478 109.765 40.1041C109.258 39.8696 108.818 39.5132 108.484 39.0669C108.185 38.6466 107.997 38.1578 107.938 37.6457C107.872 37.208 107.922 36.7609 108.083 36.3485C108.244 35.9362 108.51 35.573 108.855 35.295C109.126 35.1062 109.435 34.9762 109.76 34.9136C110.085 34.851 110.42 34.857 110.742 34.9313C111.15 35.0171 111.52 35.2292 111.801 35.5375C111.899 35.6371 111.975 35.7565 112.023 35.8877Z" fill="#263238"/>
<path d="M148.265 47.0822C148.265 47.0417 148.663 46.8666 149.324 46.4086C150.242 45.7437 151.026 44.912 151.636 43.9569C152.539 42.5391 153.129 40.9457 153.368 39.2825C153.622 37.2345 153.534 35.1585 153.106 33.1397C152.688 30.9843 152.067 28.9704 151.535 27.1316C151.002 25.2928 150.544 23.6157 150.274 22.1878C150.054 21.0593 149.923 19.9152 149.883 18.7661C149.883 18.362 149.883 18.0454 149.883 17.8299C149.876 17.721 149.887 17.6117 149.917 17.5066C149.95 17.5066 149.917 17.9579 150.004 18.7594C150.092 19.8918 150.256 21.017 150.497 22.1271C150.8 23.5349 151.265 25.1918 151.845 27.0238C152.484 29.0154 153.02 31.0388 153.449 33.0858C153.89 35.1399 153.97 37.2549 153.685 39.3363C153.428 41.0413 152.8 42.6692 151.845 44.1051C151.203 45.0714 150.37 45.8966 149.398 46.5298C149.135 46.7024 148.858 46.8512 148.569 46.9744C148.471 47.0194 148.369 47.0554 148.265 47.0822Z" fill="#263238"/>
<path d="M149.485 42.6971C149.412 42.751 149.33 42.792 149.243 42.8183C149.003 42.9053 148.754 42.9663 148.501 43.0002C147.547 43.0981 146.586 42.898 145.751 42.4277C144.515 41.7168 143.578 40.5826 143.115 39.235C142.559 37.608 142.377 35.8769 142.582 34.1699C142.744 32.3648 143.074 30.6877 143.223 29.1453C143.371 27.6028 143.459 26.2086 143.485 25.0366C143.512 23.8646 143.485 22.9149 143.485 22.2548C143.456 21.9165 143.456 21.5762 143.485 21.2378C143.56 21.5697 143.603 21.908 143.614 22.2481C143.667 22.9217 143.721 23.8579 143.728 25.0434C143.734 26.4242 143.671 27.8044 143.539 29.1789C143.405 30.7348 143.088 32.4255 142.926 34.2036C142.725 35.8583 142.891 37.5369 143.411 39.1205C143.84 40.4095 144.711 41.505 145.872 42.2121C146.658 42.6852 147.564 42.9193 148.481 42.8857C149.135 42.8116 149.472 42.6634 149.485 42.6971Z" fill="#263238"/>
<path d="M105.389 48.8533C105.384 48.6241 105.421 48.3959 105.497 48.1798C105.709 47.5828 106.1 47.0654 106.616 46.698C107.43 46.1053 108.401 45.7677 109.407 45.7281C110.567 45.6203 111.881 45.7887 113.304 45.7281C114.859 45.5882 116.359 45.0802 117.679 44.2463C119.187 43.2752 120.477 42.0024 121.468 40.5081C122.551 38.8484 123.313 36.9999 123.713 35.059C124.142 32.9682 124.32 30.8338 124.245 28.7007C124.245 26.505 123.942 24.3765 123.814 22.2885C123.617 20.2786 123.744 18.25 124.191 16.2805C124.606 14.6019 125.487 13.0749 126.734 11.8758C127.981 10.6767 129.542 9.85465 131.236 9.50456C132.534 9.24688 133.873 9.28603 135.153 9.61906C136.111 9.86724 137.022 10.2699 137.85 10.8112C138.372 11.15 138.856 11.5453 139.292 11.99C139.447 12.1449 139.542 12.2728 139.616 12.3537C139.69 12.4345 139.724 12.4816 139.717 12.4884C139.127 11.9008 138.476 11.377 137.775 10.9257C136.942 10.4117 136.032 10.0343 135.079 9.80766C133.825 9.50511 132.519 9.4844 131.256 9.74704C129.733 10.08 128.322 10.8043 127.164 11.8485C125.827 13.0465 124.886 14.6229 124.468 16.368C124.042 18.3043 123.924 20.2954 124.117 22.2683C124.259 24.3361 124.528 26.478 124.569 28.694C124.637 30.8546 124.451 33.0157 124.016 35.1331C123.604 37.1149 122.82 39.0006 121.704 40.6899C120.683 42.2167 119.353 43.513 117.8 44.4955C116.438 45.3436 114.891 45.8518 113.29 45.9773C111.821 46.0581 110.52 45.8695 109.387 45.9773C108.422 46.0071 107.486 46.3134 106.691 46.8596C106.18 47.2012 105.785 47.6898 105.558 48.2606C105.416 48.6243 105.416 48.8533 105.389 48.8533Z" fill="#455A64"/>
<path d="M139.184 7.41721C139.184 7.38354 139.515 7.53172 139.859 7.94258C140.329 8.4896 140.614 9.17073 140.674 9.88914C140.735 10.6085 140.571 11.329 140.202 11.9502C139.912 12.4149 139.636 12.6237 139.609 12.6237C139.582 12.6237 139.771 12.3274 139.98 11.8626C140.265 11.269 140.386 10.6099 140.33 9.95378C140.275 9.29766 140.044 8.66837 139.663 8.13117C139.393 7.67316 139.151 7.45763 139.184 7.41721Z" fill="#455A64"/>
<path d="M152.647 24.8818C152.563 24.6137 152.502 24.3388 152.465 24.0601C152.364 23.5213 152.222 22.7534 152.013 21.8037C151.804 20.854 151.555 19.7224 151.218 18.4898C151.049 17.8702 150.861 17.2236 150.625 16.5702C150.402 15.9009 150.074 15.2712 149.654 14.7045C148.849 13.5919 147.75 12.7263 146.479 12.2056C145.439 11.7887 144.302 11.6788 143.202 11.889C142.455 12.0206 141.744 12.3049 141.112 12.7242C140.896 12.8998 140.671 13.0639 140.438 13.2159C140.438 13.2159 140.479 13.1486 140.573 13.0408C140.716 12.8843 140.874 12.7421 141.045 12.6165C141.668 12.138 142.392 11.8064 143.162 11.6466C144.31 11.3902 145.509 11.4793 146.607 11.9025C147.943 12.4318 149.101 13.3315 149.944 14.4957C150.386 15.0895 150.727 15.7516 150.955 16.4557C151.191 17.1293 151.373 17.8028 151.541 18.4023C151.858 19.6551 152.094 20.7934 152.263 21.77C152.431 22.7467 152.553 23.5078 152.607 24.0534C152.656 24.3266 152.67 24.6051 152.647 24.8818Z" fill="#455A64"/>
<path d="M139.885 12.8521C139.147 12.7707 138.421 12.5941 137.728 12.3268C136.976 12.0769 136.205 11.8899 135.423 11.7677C134.474 11.6303 133.507 11.7369 132.611 12.0776C131.716 12.4117 130.922 12.9708 130.306 13.7008C129.804 14.2918 129.43 14.9796 129.207 15.7215C129.026 16.4261 128.929 17.1495 128.917 17.8768C128.84 17.689 128.803 17.487 128.809 17.2841C128.776 16.736 128.828 16.1861 128.964 15.6541C129.161 14.8524 129.534 14.1047 130.056 13.4651C130.698 12.6761 131.538 12.0717 132.49 11.7138C133.44 11.3556 134.467 11.2512 135.47 11.4108C136.269 11.5618 137.052 11.7873 137.809 12.0843C139.09 12.576 139.899 12.805 139.885 12.8521Z" fill="#455A64"/>
<path d="M275.604 241.233C276.204 239.172 277.479 237.192 279.461 236.323C281.443 235.454 283.896 235.939 286 236.707C288.103 237.475 290.173 238.492 292.404 238.626C294.636 238.761 297.164 237.71 297.831 235.575C298.458 233.554 297.245 231.426 295.734 229.964C294.132 228.426 292.167 227.316 290.022 226.735C287.877 226.154 285.62 226.121 283.459 226.639C281.298 227.158 279.302 228.211 277.655 229.702C276.008 231.193 274.763 233.073 274.034 235.171" fill="#5DCCC8"/>
<path d="M257.902 250.191C254.625 247.079 254.787 241.664 256.425 237.448C258.063 233.231 261.63 230.005 265.614 227.87C269.506 225.829 273.811 224.696 278.204 224.555C282.598 224.414 286.966 225.268 290.982 227.055C289.016 227.139 287.101 227.702 285.404 228.697C283.707 229.692 282.28 231.086 281.247 232.76C279.454 235.743 279.05 239.36 277.566 242.513C275.894 246.063 272.923 248.838 269.265 250.266C265.607 251.694 261.54 251.668 257.902 250.191Z" fill="#73DDD9"/>
<path d="M256.331 231.507C252.697 227.23 252.212 220.359 252.751 214.776C253.29 209.192 254.578 203.568 253.695 198.025C253.176 194.744 251.901 191.612 251.47 188.312C251.039 185.012 251.652 181.294 254.207 179.165C257.146 176.72 261.771 177.299 264.825 179.589C267.879 181.88 269.652 185.497 270.946 189.087C273.771 196.981 274.829 205.737 272.497 213.819C270.164 221.902 264.683 229.089 256.641 231.52" fill="#73DDD9"/>
<path d="M254.585 266.632C254.567 266.469 254.567 266.304 254.585 266.141C254.585 265.817 254.585 265.339 254.585 264.726C254.625 263.494 254.74 261.716 255.016 259.54C255.333 256.983 255.797 254.446 256.405 251.942C257.157 248.867 258.322 245.908 259.87 243.146C261.425 240.387 263.333 237.842 265.546 235.575C267.343 233.719 269.337 232.063 271.492 230.638C272.396 230.012 273.279 229.54 274.034 229.096C274.789 228.651 275.483 228.361 276.056 228.099L277.364 227.553C277.513 227.482 277.669 227.426 277.829 227.385C277.694 227.476 277.549 227.553 277.398 227.614L276.117 228.22C275.578 228.503 274.91 228.853 274.148 229.271C273.387 229.688 272.544 230.207 271.647 230.847C269.529 232.289 267.568 233.948 265.796 235.797C263.621 238.058 261.741 240.583 260.2 243.314C256.83 249.147 255.946 255.27 255.279 259.567C254.976 261.743 254.821 263.507 254.74 264.733C254.699 265.312 254.672 265.784 254.652 266.141C254.648 266.307 254.626 266.472 254.585 266.632Z" fill="#263238"/>
<path d="M223.277 214.621C216.536 218.662 216.583 222.353 217.709 225.836C218.835 229.318 222.947 231.729 226.365 230.429C228.3 229.688 229.695 228.011 230.895 226.327C232.095 224.644 233.207 222.838 234.886 221.613C236.565 220.387 238.985 219.942 240.67 221.141" fill="#5DCCC8"/>
<path d="M218.255 219.06C220.008 216.635 224.322 215.934 227.086 217.147C229.85 218.359 231.805 220.757 233.625 223.148C235.445 225.539 237.171 228.072 239.659 229.735C242.146 231.399 245.618 232.005 248.099 230.328C248.891 229.74 249.553 228.996 250.046 228.142C250.539 227.289 250.851 226.343 250.964 225.364C251.185 223.408 251.052 221.427 250.573 219.518C249.98 216.702 249.009 213.765 246.758 211.974C244.25 209.987 240.764 209.893 237.556 209.994C233.875 210.115 230.14 210.391 226.695 211.664C223.25 212.937 219.718 215.705 218.255 219.073" fill="#73DDD9"/>
<path d="M249.003 261.257C248.971 261.066 248.956 260.872 248.956 260.678L248.895 259.015C248.854 257.533 248.787 255.452 248.713 252.892C248.639 250.333 248.517 247.227 248.335 243.813C248.153 240.398 247.884 236.646 247.365 232.746C247.148 230.847 246.778 228.968 246.259 227.129C245.725 225.431 245.037 223.785 244.203 222.212C242.816 219.527 240.98 217.099 238.776 215.032C237.282 213.649 235.592 212.493 233.76 211.603C233.265 211.352 232.756 211.127 232.237 210.93C232.052 210.87 231.873 210.791 231.704 210.694C231.892 210.739 232.076 210.795 232.257 210.862C232.792 211.027 233.315 211.23 233.821 211.469C235.693 212.32 237.421 213.456 238.944 214.836C241.196 216.9 243.071 219.338 244.486 222.043C245.339 223.629 246.041 225.291 246.583 227.007C247.117 228.866 247.496 230.765 247.715 232.686C248.234 236.606 248.484 240.364 248.659 243.786C248.834 247.207 248.908 250.279 248.962 252.872C249.016 255.465 249.03 257.553 249.03 258.994V260.665C249.037 260.863 249.028 261.061 249.003 261.257Z" fill="#263238"/>
<path d="M251.423 264.289C251.096 263.352 250.846 262.39 250.675 261.413C250.208 258.745 250.101 256.026 250.358 253.33C250.766 249.331 251.623 245.391 252.913 241.583C254.295 237.266 256.162 232.645 257.76 227.688C258.547 225.279 259.191 222.825 259.688 220.339C260.13 218.021 260.447 215.68 260.638 213.328C260.946 209.337 261.02 205.331 260.861 201.332C260.746 197.917 260.571 195.155 260.456 193.249C260.402 192.32 260.362 191.579 260.335 191.054C260.335 190.818 260.335 190.629 260.335 190.481C260.323 190.416 260.323 190.35 260.335 190.286C260.338 190.348 260.338 190.411 260.335 190.474C260.335 190.622 260.369 190.811 260.396 191.047C260.443 191.572 260.504 192.306 260.585 193.243C260.74 195.149 260.955 197.91 261.104 201.325C261.298 205.334 261.248 209.352 260.955 213.355C260.771 215.721 260.459 218.075 260.018 220.407C259.527 222.913 258.883 225.388 258.09 227.816C256.486 232.793 254.605 237.4 253.216 241.704C251.919 245.488 251.042 249.402 250.6 253.377C250.322 256.058 250.39 258.763 250.803 261.426C250.964 262.369 251.113 263.096 251.248 263.581C251.302 263.81 251.342 263.992 251.382 264.14C251.401 264.188 251.414 264.238 251.423 264.289Z" fill="#263238"/>
<path d="M268.068 267.32H236.538L235.816 261.258H268.068V267.32Z" fill="#73DDD9"/>
<path d="M239.922 266.632L243.866 284.825H260.996L264.683 266.632H239.922Z" fill="#73DDD9"/>
<path d="M268.068 267.32C268.068 267.421 261.137 267.481 252.562 267.454C243.987 267.427 237.057 267.333 237.057 267.232C237.057 267.131 243.987 267.077 252.562 267.104C261.137 267.131 268.068 267.225 268.068 267.32Z" fill="#455A64"/>
<path d="M262.654 276.298C261.792 275.67 260.86 275.143 259.877 274.729C258.802 274.307 257.66 274.079 256.506 274.055C255.089 274.06 253.685 274.318 252.36 274.816C250.924 275.301 249.582 275.867 248.268 276.163C247.104 276.415 245.904 276.45 244.728 276.264C243.936 276.15 243.168 275.904 242.457 275.537C242.267 275.433 242.084 275.316 241.91 275.187C241.796 275.099 241.735 275.045 241.742 275.038C242.68 275.553 243.707 275.887 244.769 276.022C245.914 276.162 247.074 276.105 248.2 275.853C249.454 275.537 250.796 274.964 252.245 274.473C253.612 273.977 255.059 273.737 256.513 273.765C257.701 273.804 258.872 274.064 259.964 274.533C260.701 274.84 261.393 275.246 262.02 275.739C262.192 275.869 262.354 276.011 262.506 276.163C262.614 276.231 262.667 276.291 262.654 276.298Z" fill="#455A64"/>
<path d="M262.418 277.517C261.576 276.905 260.673 276.384 259.721 275.961C258.689 275.539 257.587 275.311 256.472 275.288C255.105 275.292 253.75 275.536 252.468 276.008C251.079 276.473 249.771 277.012 248.524 277.355C247.43 277.673 246.29 277.801 245.153 277.733C244.375 277.687 243.616 277.48 242.922 277.126C242.737 277.029 242.561 276.917 242.396 276.79C242.281 276.702 242.227 276.648 242.234 276.641C242.241 276.635 242.497 276.79 242.982 277.005C243.675 277.297 244.415 277.459 245.167 277.483C246.284 277.517 247.4 277.369 248.47 277.046C249.683 276.702 250.978 276.156 252.38 275.698C253.701 275.212 255.099 274.97 256.506 274.984C258.443 275.037 260.309 275.723 261.818 276.938C262.027 277.113 262.182 277.254 262.283 277.355C262.384 277.456 262.425 277.504 262.418 277.517Z" fill="white"/>
<path d="M262.984 275.113C262.088 274.468 261.131 273.913 260.126 273.456C259.029 272.985 257.859 272.705 256.668 272.627C255.207 272.597 253.755 272.853 252.394 273.382C251.011 273.925 249.597 274.386 248.16 274.762C246.951 274.972 245.715 274.972 244.506 274.762C243.691 274.631 242.901 274.379 242.16 274.015C241.963 273.91 241.773 273.79 241.594 273.658C241.472 273.563 241.412 273.509 241.418 273.503C241.425 273.496 241.702 273.658 242.221 273.893C242.965 274.203 243.747 274.413 244.547 274.52C245.727 274.688 246.927 274.663 248.099 274.446C249.4 274.163 250.796 273.55 252.279 273.051C253.683 272.508 255.183 272.254 256.688 272.304C257.913 272.4 259.111 272.712 260.227 273.227C260.977 273.562 261.681 273.989 262.324 274.5C262.5 274.636 262.669 274.783 262.829 274.937C262.924 275.025 262.984 275.113 262.984 275.113Z" fill="white"/>
<path d="M42.5386 255.741C41.1903 257.681 38.5409 257.034 37.314 255.849C36.0871 254.664 35.5747 252.953 35.1028 251.316C34.0242 247.578 32.9388 243.658 33.7545 239.866C33.9394 238.7 34.4487 237.61 35.2241 236.72C35.6113 236.284 36.1068 235.957 36.6606 235.772C37.2145 235.588 37.8072 235.552 38.3791 235.669C39.7274 236.02 40.5432 237.32 41.1431 238.559C42.9002 242.222 43.8212 246.23 43.8397 250.292C43.8397 252.185 43.624 254.165 42.5521 255.728" fill="#EFD9D5"/>
<path d="M37.4691 265.561C35.1901 264.495 32.6298 264.183 30.1613 264.672C28.8106 264.791 27.5385 265.357 26.5479 266.282C25.6513 267.279 25.476 269.03 26.5479 269.886C27.215 270.336 28.0188 270.538 28.8198 270.458C30.7546 270.458 32.8983 270.101 34.4421 271.26C35.3185 271.933 35.905 273.024 36.9634 273.348C37.4895 273.47 38.0412 273.418 38.535 273.199C39.0287 272.98 39.4378 272.607 39.7005 272.135C40.203 271.168 40.314 270.044 40.0106 268.997C39.8819 268.267 39.5854 267.576 39.1444 266.98C38.7034 266.384 38.1299 265.898 37.4691 265.561Z" fill="#EFD9D5"/>
<path d="M46.2935 258.523C45.5949 257.612 45.1296 256.544 44.938 255.412C44.7465 254.281 44.8346 253.12 45.1946 252.03C45.9368 249.849 47.2692 247.916 49.044 246.446C51.0579 244.664 53.4005 243.291 55.9405 242.405C56.924 242.007 57.982 241.828 59.0416 241.879C59.5708 241.908 60.0849 242.066 60.5386 242.34C60.9923 242.613 61.3718 242.994 61.6438 243.449C62.3651 244.83 61.6438 246.507 60.9157 247.874C59.5932 250.287 58.0806 252.591 56.3922 254.764C55.0439 256.516 53.4799 258.24 51.4103 259.028C49.3406 259.816 47.1901 259.701 46.098 258.294" fill="#EFD9D5"/>
<path d="M42.6532 284.994C42.5793 284.707 42.5386 284.414 42.5319 284.118C42.4645 283.444 42.3903 282.67 42.2959 281.707C42.2015 280.744 42.033 279.491 41.7566 278.184C41.4395 276.762 41.0089 275.368 40.469 274.015C39.9432 272.666 39.2282 271.398 38.3454 270.25C37.6227 269.315 36.7018 268.551 35.6488 268.013C34.9344 267.67 34.1698 267.443 33.3837 267.34C33.0884 267.323 32.7951 267.281 32.5073 267.212C32.8051 267.175 33.1062 267.175 33.4039 267.212C34.2212 267.271 35.0208 267.479 35.7634 267.825C36.8721 268.346 37.8438 269.119 38.6016 270.081C39.5247 271.243 40.2678 272.538 40.8061 273.92C41.3556 275.292 41.782 276.71 42.0802 278.157C42.3103 279.336 42.4679 280.528 42.5521 281.727C42.6263 282.751 42.66 283.572 42.6734 284.145C42.6984 284.428 42.6916 284.712 42.6532 284.994Z" fill="#263238"/>
<path d="M42.4847 283.148C42.4672 283.011 42.4672 282.873 42.4847 282.737V281.565C42.4847 280.555 42.4847 279.086 42.4375 277.268C42.3431 273.644 42.033 268.633 41.4263 263.123C40.8195 257.613 40.0106 252.67 39.2757 249.113C39.1072 248.224 38.9319 247.423 38.7634 246.722C38.5948 246.022 38.4735 245.409 38.3454 244.924C38.2173 244.439 38.1432 244.082 38.069 243.785C38.0314 243.654 38.0088 243.518 38.0016 243.381C38.0657 243.502 38.1133 243.632 38.1432 243.765L38.4802 244.883C38.6353 245.368 38.7903 245.975 38.9656 246.675C39.1409 247.375 39.3431 248.17 39.5319 249.059C40.5364 253.69 41.2903 258.371 41.7903 263.083C42.397 268.599 42.6667 273.624 42.6937 277.261C42.6937 279.079 42.6937 280.548 42.6262 281.565C42.6262 282.036 42.5723 282.427 42.5588 282.73C42.5534 282.872 42.5284 283.013 42.4847 283.148Z" fill="#263238"/>
<path d="M42.4645 273.462C42.4322 273.054 42.4322 272.644 42.4645 272.236C42.5117 271.455 42.6196 270.317 42.8421 268.929C43.4411 265.307 44.4802 261.772 45.9364 258.402C47.3337 254.993 49.3418 251.869 51.8621 249.181C52.299 248.72 52.7651 248.288 53.2576 247.888C53.4666 247.706 53.6554 247.524 53.8509 247.382L54.3902 247.012C54.7146 246.759 55.0596 246.534 55.4216 246.338C54.239 247.272 53.1134 248.275 52.0509 249.342C49.6208 252.058 47.6675 255.164 46.2735 258.53C45.4765 260.369 44.8009 262.259 44.251 264.187C43.7252 265.959 43.3746 267.589 43.105 268.963C42.8353 270.337 42.7072 271.462 42.6196 272.236C42.5952 272.648 42.5434 273.057 42.4645 273.462Z" fill="#263238"/>
</svg>
