<svg width="346" height="284" viewBox="0 0 346 284" fill="none" xmlns="http://www.w3.org/2000/svg">
<g opacity="0.46">
<path opacity="0.46" d="M248.295 58.351H109.707C109.367 58.3501 109.032 58.2654 108.727 58.1033C108.422 57.9412 108.156 57.7061 107.948 57.4159C107.74 57.1258 107.597 56.7883 107.529 56.4293C107.461 56.0703 107.471 55.6993 107.556 55.3448L120.475 1.79616C120.6 1.27241 120.885 0.809583 121.285 0.483426C121.685 0.157269 122.176 -0.012902 122.678 0.000763282H261.259C261.599 0.0053359 261.933 0.0933203 262.235 0.258006C262.538 0.422693 262.802 0.659732 263.007 0.951047C263.212 1.24236 263.353 1.58026 263.418 1.93897C263.484 2.29769 263.472 2.66774 263.385 3.02092L250.466 56.6044C250.332 57.1119 250.047 57.5581 249.655 57.8738C249.263 58.1895 248.785 58.3572 248.295 58.351Z" fill="#BFD9FF"/>
<path opacity="0.46" d="M128.718 11.4551H176.938" stroke="#A9C2FF" stroke-width="3.45" stroke-linecap="round" stroke-linejoin="round"/>
<path opacity="0.46" d="M125.004 35.4353H173.23" stroke="#A9C2FF" stroke-width="3.45" stroke-linecap="round" stroke-linejoin="round"/>
<path opacity="0.46" d="M145.286 26.3751H193.506" stroke="#A9C2FF" stroke-width="3.45" stroke-linecap="round" stroke-linejoin="round"/>
<path opacity="0.46" d="M127.477 19.4508H141.947" stroke="#A9C2FF" stroke-width="3.45" stroke-linecap="round" stroke-linejoin="round"/>
<path opacity="0.46" d="M125.501 26.3751H139.97" stroke="#A9C2FF" stroke-width="3.45" stroke-linecap="round" stroke-linejoin="round"/>
<path opacity="0.46" d="M184.605 11.4551H201.787" stroke="#A9C2FF" stroke-width="3.45" stroke-linecap="round" stroke-linejoin="round"/>
<path opacity="0.46" d="M193.028 46.688H167.365C167.334 46.6881 167.304 46.6805 167.276 46.6659C167.248 46.6513 167.224 46.6301 167.206 46.6039C167.187 46.5776 167.174 46.5471 167.168 46.5146C167.162 46.4822 167.163 46.4486 167.171 46.4167L168.321 41.6637C168.331 41.6183 168.355 41.5779 168.389 41.5489C168.423 41.5199 168.465 41.5039 168.508 41.5037H194.171C194.202 41.5025 194.232 41.509 194.26 41.5228C194.287 41.5366 194.312 41.5572 194.331 41.5829C194.349 41.6087 194.362 41.6389 194.368 41.6711C194.374 41.7032 194.373 41.7365 194.365 41.7681L193.215 46.528C193.205 46.5734 193.181 46.6138 193.147 46.6429C193.113 46.6719 193.071 46.6878 193.028 46.688V46.688Z" stroke="#84AEE5" stroke-width="1.15" stroke-miterlimit="10"/>
<path opacity="0.46" d="M161.125 46.688H135.461C135.431 46.6881 135.4 46.6805 135.373 46.6659C135.345 46.6513 135.321 46.6301 135.302 46.6038C135.283 46.5776 135.271 46.5471 135.265 46.5146C135.259 46.4821 135.26 46.4486 135.267 46.4166L136.417 41.6637C136.43 41.6183 136.455 41.5783 136.49 41.5496C136.525 41.5208 136.567 41.5047 136.611 41.5037H162.274C162.305 41.5039 162.334 41.5114 162.361 41.5256C162.388 41.5398 162.412 41.5603 162.43 41.5857C162.449 41.6111 162.462 41.6407 162.469 41.6723C162.475 41.7038 162.475 41.7366 162.468 41.7681L161.319 46.528C161.306 46.5734 161.281 46.6134 161.246 46.6421C161.211 46.6709 161.169 46.687 161.125 46.688V46.688Z" stroke="#84AEE5" stroke-width="1.15" stroke-miterlimit="10"/>
<path opacity="0.46" d="M238.135 39.7917C236.843 37.9058 231.481 36.528 230.009 34.6421C229.253 33.6818 229.253 31.8586 229.434 30.3624C229.885 30.0735 230.296 29.7174 230.655 29.3046C231.187 28.424 231.668 27.5083 232.095 26.5628C232.174 26.6519 232.27 26.7225 232.375 26.7703C232.481 26.8182 232.594 26.8423 232.709 26.8412C233.413 26.8412 236.08 22.9025 235.389 21.97C235.002 21.455 234.362 21.9004 233.891 22.3805C234.595 20.6408 235.092 19.3047 235.092 19.3047C235.157 19.082 235.221 18.8663 235.273 18.6088C236.332 14.0368 233.749 10.3347 229.505 10.3347C225.261 10.3347 220.959 14.0368 219.9 18.6088C219.848 18.8385 219.809 19.0542 219.777 19.3047C219.777 19.3047 219.654 20.6408 219.551 22.3805C219.305 21.9004 218.872 21.455 218.259 21.97C217.154 22.8746 218.013 26.7855 218.705 26.8412C218.97 26.8294 219.227 26.7324 219.441 26.5628C219.432 27.4803 219.49 28.3971 219.615 29.3046C219.838 29.8192 220.175 30.2664 220.597 30.606C220.122 32.1636 219.27 33.5568 218.13 34.6421C215.785 36.528 209.81 37.9058 207.62 39.7917C205.65 41.4897 203.893 46.4513 203.564 47.4465H238.729C238.781 46.4513 239.317 41.4897 238.135 39.7917Z" fill="#8DBCF8"/>
</g>
<path d="M224.182 100.974H85.6007C85.2608 100.974 84.9254 100.89 84.6202 100.729C84.3151 100.568 84.0481 100.333 83.8399 100.044C83.6317 99.7545 83.4877 99.4176 83.419 99.059C83.3502 98.7003 83.3585 98.3295 83.4433 97.9749L96.3622 44.4263C96.4866 43.9119 96.766 43.4566 97.1564 43.1317C97.5468 42.8068 98.0263 42.6306 98.5196 42.6309H237.101C237.441 42.6307 237.776 42.7144 238.081 42.8757C238.386 43.037 238.653 43.2715 238.861 43.5611C239.068 43.8508 239.212 44.1879 239.28 44.5466C239.347 44.9053 239.338 45.276 239.252 45.6301L226.333 99.2136C226.205 99.7215 225.925 100.169 225.536 100.488C225.146 100.806 224.671 100.977 224.182 100.974V100.974Z" stroke="#7094D8" stroke-width="1.15" stroke-miterlimit="10"/>
<path d="M221.585 96.9659H83.0042C82.6635 96.966 82.3274 96.8821 82.0216 96.7205C81.7158 96.5588 81.4485 96.3238 81.2401 96.0335C81.0318 95.7432 80.888 95.4054 80.8198 95.0458C80.7516 94.6863 80.7608 94.3147 80.8467 93.9596L93.7656 40.411C93.8912 39.898 94.1711 39.4442 94.5614 39.1206C94.9517 38.7971 95.4306 38.6219 95.9231 38.6226H234.504C234.844 38.6224 235.18 38.7061 235.485 38.8674C235.79 39.0287 236.056 39.2632 236.264 39.5528C236.472 39.8425 236.615 40.1796 236.683 40.5383C236.751 40.897 236.741 41.2677 236.655 41.6218L223.737 95.1705C223.614 95.6849 223.337 96.1407 222.947 96.4658C222.557 96.791 222.078 96.967 221.585 96.9659Z" fill="#A5C5FF"/>
<path d="M126.489 96.9728H195.857" stroke="#7094D8" stroke-width="1.15" stroke-miterlimit="10"/>
<path d="M107.201 38.6295H165.808" stroke="#7094D8" stroke-width="1.15" stroke-miterlimit="10"/>
<path d="M210.398 88.9839H179.237C178.918 89.0038 178.599 88.9383 178.309 88.7932C178.019 88.6481 177.767 88.428 177.575 88.1524C177.383 87.8768 177.258 87.5543 177.209 87.2137C177.161 86.8731 177.192 86.525 177.299 86.2004L185.161 52.2341C185.363 51.4655 185.783 50.784 186.362 50.285C186.941 49.786 187.65 49.4942 188.39 49.4505H219.57C219.889 49.4306 220.208 49.4961 220.498 49.6412C220.788 49.7863 221.04 50.0065 221.232 50.2821C221.424 50.5577 221.55 50.8802 221.598 51.2208C221.646 51.5613 221.615 51.9095 221.508 52.2341L213.647 86.2004C213.445 86.9733 213.023 87.6582 212.44 88.1579C211.857 88.6575 211.142 88.9466 210.398 88.9839Z" fill="#B7DEFF"/>
<path d="M195.108 89.1163L197.834 77.3349L193.364 75.2959C193.364 75.2959 185.031 78.5805 184.321 79.3738C183.726 80.0697 180.736 86.9103 179.799 89.1163H195.108Z" fill="#023F61"/>
<path d="M210.527 89.1163C210.598 86.9103 210.785 80.0697 210.527 79.3738C210.184 78.5805 203.37 75.2959 203.37 75.2959L197.957 77.3349L195.231 89.1163H210.527Z" fill="#023F61"/>
<path d="M197.925 89.1162L202.194 78.9214L193.022 79.4851L192.124 89.1162H197.925Z" fill="#BEBECF"/>
<path d="M195.018 73.1454L193.015 74.5024L191.704 77.8984L191.368 82.5469L194.178 81.3013L196.361 84.1335L199.281 81.5239L201.07 83.3402L203.77 77.1051L203.299 73.2568L202.168 72.6862L195.018 73.1454Z" fill="#DEE0E8"/>
<path d="M195.631 64.2592C195.556 64.0516 195.436 63.8664 195.281 63.7192C195.126 63.572 194.94 63.467 194.74 63.4131C194.539 63.3593 194.329 63.3581 194.128 63.4096C193.927 63.4612 193.74 63.564 193.584 63.7095C192.208 64.802 193.816 69.0261 194.817 67.7526C195.819 66.4791 195.631 64.2592 195.631 64.2592Z" fill="#FB8E74"/>
<path d="M205.437 64.1409C205.437 64.1409 206.729 62.3942 207.73 63.3754C208.731 64.3567 205.476 68.8103 204.939 67.6134C204.403 66.4165 205.437 64.1409 205.437 64.1409Z" fill="#FB8E74"/>
<path d="M202.369 76.4372L203.777 68.3927L195.631 69.1303L193.836 76.6877C193.836 76.6877 195.257 80.2576 196.781 81.8442C196.781 81.8651 201.522 77.481 202.369 76.4372Z" fill="#FB8877"/>
<path d="M208.976 60.8909C208.673 61.8722 207.924 62.1157 207.872 62.6863C207.771 63.6235 207.459 64.5196 206.961 65.2959C206.729 65.5751 206.464 65.8207 206.173 66.0266C206.173 66.0266 199.184 68.1143 195.638 65.2124C195.496 64.403 195.496 63.5723 195.638 62.7629C195.883 61.4477 195.289 61.218 195.974 60.5639C196.257 60.3374 196.488 60.0427 196.647 59.7032C196.806 59.3637 196.89 58.9888 196.891 58.6084C196.86 58.1777 196.914 57.7448 197.047 57.3375C197.181 56.9301 197.391 56.5572 197.666 56.2424C198.376 55.5465 199.009 55.7553 199.701 55.1011C199.701 55.1011 200.721 53.264 202.065 53.0135C203.408 52.763 206.251 52.0392 207.936 54.273C209.622 56.5068 208.847 58.4484 209.338 59.1443C209.829 59.8402 208.976 60.8909 208.976 60.8909Z" fill="#713336"/>
<path d="M195.573 62.8673C195.573 62.8673 192.279 72.6515 198.486 73.3892C203.977 73.5284 205.928 66.312 206.709 62.6099C207.491 58.9077 207.013 55.0386 202.62 55.1639C198.228 55.2891 196.058 60.6475 195.573 62.8673Z" fill="#FBA990"/>
<path d="M197.298 59.3322C197.414 59.5744 197.478 59.842 197.483 60.1146C197.489 60.3871 197.436 60.6575 197.33 60.9049C196.955 61.6983 195.928 62.0044 195.78 63.0483C195.631 64.0921 195.179 66.2633 194.901 66.3538C194.624 66.4442 194.824 64.2661 194.869 63.4797C195.08 61.3629 195.78 59.3366 196.904 57.5856C198.37 55.5884 199.274 54.7463 201.884 54.294C204.494 53.8417 206.47 54.9899 207.194 56.7296C207.917 58.4693 206.761 62.8117 206.761 62.8117C206.761 62.8117 206.929 60.724 206.289 60.2508C205.65 59.7776 205.107 59.4018 205.217 59.1165C205.327 58.8312 203.15 59.8681 200.98 59.1165C198.809 58.3649 198.112 58.7059 197.75 58.9425C197.578 59.0416 197.425 59.1737 197.298 59.3322Z" fill="#713336"/>
<path d="M191.148 78.0166C191.097 78.2393 188.119 85.8871 188.119 85.8871L190.735 87.2789L189.999 88.8655" stroke="#022755" stroke-width="0.49" stroke-miterlimit="10"/>
<path d="M204.067 78.0166C204.016 78.2393 203.454 85.8871 203.454 85.8871L200.185 87.2789V88.8655" stroke="#022755" stroke-width="0.49" stroke-miterlimit="10"/>
<path d="M210.398 88.9839H179.237C178.918 89.0038 178.599 88.9383 178.309 88.7932C178.019 88.6481 177.767 88.428 177.575 88.1524C177.383 87.8768 177.258 87.5543 177.209 87.2137C177.161 86.8731 177.192 86.525 177.299 86.2004L185.161 52.2341C185.363 51.4655 185.783 50.784 186.362 50.285C186.941 49.786 187.65 49.4942 188.39 49.4505H219.57C219.889 49.4306 220.208 49.4961 220.498 49.6412C220.788 49.7863 221.04 50.0065 221.232 50.2821C221.424 50.5577 221.55 50.8802 221.598 51.2208C221.646 51.5613 221.615 51.9095 221.508 52.2341L213.647 86.2004C213.445 86.9733 213.023 87.6582 212.44 88.1579C211.857 88.6575 211.142 88.9466 210.398 88.9839Z" stroke="white" stroke-width="1.15" stroke-miterlimit="10"/>
<path d="M102.008 51.4197H150.228" stroke="#73A5FF" stroke-width="3.45" stroke-linecap="round" stroke-linejoin="round"/>
<path d="M98.3 75.3933H146.52" stroke="#73A5FF" stroke-width="3.45" stroke-linecap="round" stroke-linejoin="round"/>
<path d="M118.576 66.3397H166.796" stroke="#73A5FF" stroke-width="3.45" stroke-linecap="round" stroke-linejoin="round"/>
<path d="M100.774 59.4087H115.237" stroke="#73A5FF" stroke-width="3.45" stroke-linecap="round" stroke-linejoin="round"/>
<path d="M98.791 66.3397H113.26" stroke="#73A5FF" stroke-width="3.45" stroke-linecap="round" stroke-linejoin="round"/>
<path d="M157.895 51.4197H175.084" stroke="#73A5FF" stroke-width="3.45" stroke-linecap="round" stroke-linejoin="round"/>
<path d="M166.318 86.6458H140.655C140.625 86.6456 140.595 86.6381 140.568 86.6239C140.541 86.6097 140.517 86.5891 140.499 86.5637C140.48 86.5383 140.467 86.5088 140.461 86.4772C140.454 86.4456 140.454 86.4129 140.461 86.3814L141.611 81.6284C141.622 81.5825 141.647 81.5419 141.682 81.5129C141.717 81.484 141.76 81.4683 141.805 81.4684H167.468C167.498 81.4683 167.527 81.4757 167.554 81.4899C167.581 81.5041 167.604 81.5249 167.623 81.5505C167.641 81.5761 167.653 81.6059 167.659 81.6375C167.665 81.6692 167.663 81.7018 167.655 81.7328L166.512 86.4857C166.501 86.5317 166.475 86.5723 166.44 86.6013C166.405 86.6302 166.362 86.6459 166.318 86.6458V86.6458Z" stroke="#7094D8" stroke-width="1.15" stroke-miterlimit="10"/>
<path d="M134.415 86.6458H108.751C108.722 86.6459 108.692 86.6386 108.665 86.6243C108.638 86.6101 108.615 86.5893 108.597 86.5637C108.579 86.5381 108.566 86.5083 108.561 86.4767C108.555 86.4451 108.556 86.4125 108.564 86.3814L109.714 81.6285C109.723 81.5825 109.747 81.5413 109.781 81.5121C109.815 81.4828 109.858 81.4674 109.901 81.4684H135.597C135.627 81.4686 135.657 81.4761 135.684 81.4903C135.711 81.5045 135.734 81.5251 135.753 81.5505C135.772 81.5759 135.785 81.6054 135.791 81.637C135.798 81.6686 135.798 81.7013 135.791 81.7329L134.641 86.4858C134.63 86.539 134.6 86.5854 134.558 86.6153C134.516 86.6452 134.465 86.6562 134.415 86.6458V86.6458Z" stroke="#7094D8" stroke-width="1.15" stroke-miterlimit="10"/>
<path d="M163.954 32.6379H194.003" stroke="#7094D8" stroke-width="1.15" stroke-miterlimit="10"/>
<path d="M223.071 173.437H84.4834C84.1436 173.437 83.8083 173.354 83.5032 173.192C83.1982 173.031 82.9316 172.797 82.7238 172.507C82.5161 172.217 82.3728 171.88 82.3049 171.521C82.237 171.163 82.2464 170.792 82.3324 170.438L95.2513 116.854C95.3734 116.34 95.6512 115.884 96.0408 115.559C96.4304 115.234 96.9095 115.058 97.4023 115.059H235.984C236.324 115.058 236.66 115.141 236.966 115.301C237.272 115.462 237.539 115.697 237.748 115.986C237.956 116.276 238.1 116.614 238.168 116.973C238.236 117.332 238.227 117.704 238.141 118.058L225.222 171.607C225.105 172.127 224.83 172.59 224.44 172.922C224.05 173.254 223.568 173.435 223.071 173.437Z" fill="#BFD9FF"/>
<path d="M103.494 126.548H151.713" stroke="#A9C2FF" stroke-width="3.45" stroke-linecap="round" stroke-linejoin="round"/>
<path d="M99.7793 150.521H148.006" stroke="#A9C2FF" stroke-width="3.45" stroke-linecap="round" stroke-linejoin="round"/>
<path d="M120.062 141.468H168.282" stroke="#A9C2FF" stroke-width="3.45" stroke-linecap="round" stroke-linejoin="round"/>
<path d="M102.253 134.537H116.722" stroke="#A9C2FF" stroke-width="3.45" stroke-linecap="round" stroke-linejoin="round"/>
<path d="M100.277 141.468H114.746" stroke="#A9C2FF" stroke-width="3.45" stroke-linecap="round" stroke-linejoin="round"/>
<path d="M159.381 126.548H176.57" stroke="#A9C2FF" stroke-width="3.45" stroke-linecap="round" stroke-linejoin="round"/>
<path d="M167.804 161.774H142.14C142.11 161.774 142.081 161.766 142.054 161.752C142.027 161.738 142.003 161.717 141.985 161.692C141.966 161.667 141.953 161.637 141.946 161.605C141.94 161.574 141.94 161.541 141.947 161.51L143.096 156.757C143.106 156.711 143.129 156.669 143.163 156.64C143.198 156.611 143.24 156.596 143.284 156.597H168.954C168.984 156.597 169.013 156.604 169.04 156.618C169.067 156.632 169.09 156.653 169.108 156.679C169.127 156.704 169.139 156.734 169.145 156.766C169.15 156.797 169.149 156.83 169.141 156.861L167.991 161.614C167.982 161.66 167.959 161.701 167.924 161.73C167.89 161.76 167.848 161.775 167.804 161.774Z" stroke="#84AEE5" stroke-width="1.15" stroke-miterlimit="10"/>
<path d="M135.901 161.774H110.237C110.207 161.774 110.178 161.766 110.151 161.752C110.124 161.738 110.1 161.717 110.081 161.692C110.063 161.667 110.05 161.637 110.043 161.605C110.036 161.574 110.037 161.541 110.043 161.51L111.193 156.757C111.205 156.711 111.23 156.67 111.265 156.641C111.3 156.612 111.343 156.596 111.387 156.597H137.05C137.08 156.597 137.11 156.604 137.137 156.618C137.164 156.633 137.188 156.653 137.206 156.679C137.225 156.704 137.238 156.734 137.245 156.765C137.251 156.797 137.251 156.829 137.244 156.861L136.094 161.614C136.083 161.66 136.058 161.7 136.023 161.729C135.988 161.758 135.945 161.774 135.901 161.774V161.774Z" stroke="#84AEE5" stroke-width="1.15" stroke-miterlimit="10"/>
<path d="M212.91 154.878C211.618 152.992 206.257 151.621 204.784 149.735C204.029 148.768 204.029 146.951 204.209 145.455C204.661 145.166 205.072 144.81 205.43 144.398C205.963 143.517 206.444 142.601 206.871 141.656C206.954 141.748 207.055 141.82 207.166 141.867C207.278 141.913 207.397 141.934 207.517 141.927C208.214 141.927 210.882 137.995 210.191 137.056C209.803 136.534 209.164 136.986 208.692 137.466C209.396 135.72 209.894 134.391 209.894 134.391C209.965 134.168 210.023 133.945 210.075 133.695C211.134 129.123 208.55 125.414 204.306 125.414C200.062 125.414 195.76 129.123 194.701 133.695C194.649 133.917 194.611 134.14 194.578 134.391C194.578 134.391 194.456 135.72 194.352 137.466C194.107 136.986 193.706 136.534 193.06 137.056C191.949 137.961 192.808 141.871 193.5 141.927C193.765 141.92 194.022 141.826 194.236 141.656C194.227 142.573 194.286 143.49 194.41 144.398C194.634 144.912 194.973 145.357 195.399 145.692C194.917 147.25 194.064 148.644 192.925 149.735C190.58 151.621 184.605 152.992 182.415 154.878C180.477 156.576 178.688 161.537 178.359 162.532H213.524C213.556 161.537 214.092 156.576 212.91 154.878Z" fill="#8DBCF8"/>
<g opacity="0.46">
<path opacity="0.46" d="M208.725 244.835H70.1433C69.8035 244.836 69.4682 244.752 69.1631 244.591C68.8581 244.429 68.5914 244.195 68.3837 243.905C68.176 243.615 68.0327 243.278 67.9648 242.92C67.8969 242.561 67.9064 242.19 67.9923 241.836L80.9112 188.253C81.0356 187.738 81.3149 187.283 81.7054 186.958C82.0958 186.633 82.5753 186.457 83.0687 186.457H221.65C221.99 186.457 222.325 186.541 222.63 186.702C222.935 186.863 223.202 187.098 223.41 187.388C223.617 187.677 223.761 188.014 223.829 188.373C223.896 188.732 223.887 189.102 223.801 189.457L210.882 243.04C210.758 243.554 210.478 244.01 210.088 244.335C209.698 244.659 209.218 244.836 208.725 244.835Z" fill="#BFD9FF"/>
<path opacity="0.46" d="M89.147 197.947H137.373" stroke="#A9C2FF" stroke-width="3.45" stroke-linecap="round" stroke-linejoin="round"/>
<path opacity="0.46" d="M85.4392 221.92H133.659" stroke="#A9C2FF" stroke-width="3.45" stroke-linecap="round" stroke-linejoin="round"/>
<path opacity="0.46" d="M105.715 212.866H153.942" stroke="#A9C2FF" stroke-width="3.45" stroke-linecap="round" stroke-linejoin="round"/>
<path opacity="0.46" d="M87.9133 205.935H102.376" stroke="#A9C2FF" stroke-width="3.45" stroke-linecap="round" stroke-linejoin="round"/>
<path opacity="0.46" d="M85.9365 212.866H100.399" stroke="#A9C2FF" stroke-width="3.45" stroke-linecap="round" stroke-linejoin="round"/>
<path opacity="0.46" d="M145.034 197.947H162.223" stroke="#A9C2FF" stroke-width="3.45" stroke-linecap="round" stroke-linejoin="round"/>
<path opacity="0.46" d="M153.457 233.172H127.794C127.764 233.172 127.735 233.165 127.708 233.151C127.681 233.137 127.657 233.116 127.639 233.09C127.621 233.065 127.609 233.035 127.603 233.003C127.597 232.972 127.599 232.939 127.607 232.908L128.75 228.155C128.761 228.109 128.787 228.068 128.822 228.039C128.857 228.01 128.9 227.995 128.944 227.995H154.607C154.637 227.995 154.667 228.003 154.694 228.017C154.721 228.031 154.744 228.052 154.763 228.077C154.782 228.102 154.795 228.132 154.801 228.163C154.808 228.195 154.808 228.228 154.801 228.259L153.683 233.012C153.671 233.065 153.641 233.11 153.599 233.14C153.557 233.169 153.507 233.181 153.457 233.172V233.172Z" stroke="#84AEE5" stroke-width="1.15" stroke-miterlimit="10"/>
<path opacity="0.46" d="M121.561 233.172H95.8972C95.8671 233.172 95.8375 233.165 95.8106 233.15C95.7836 233.136 95.7599 233.116 95.7413 233.09C95.7227 233.065 95.7097 233.035 95.7031 233.004C95.6965 232.972 95.6966 232.939 95.7034 232.908L96.8532 228.155C96.8622 228.109 96.8859 228.068 96.9201 228.039C96.9543 228.009 96.9969 227.994 97.0405 227.995H122.71C122.74 227.995 122.77 228.002 122.797 228.016C122.823 228.031 122.847 228.051 122.865 228.077C122.883 228.103 122.896 228.132 122.901 228.164C122.907 228.196 122.906 228.228 122.898 228.259L121.748 233.012C121.739 233.058 121.715 233.099 121.681 233.129C121.647 233.158 121.604 233.173 121.561 233.172V233.172Z" stroke="#84AEE5" stroke-width="1.15" stroke-miterlimit="10"/>
<path opacity="0.46" d="M198.57 226.276C197.278 224.39 191.917 223.019 190.438 221.133C189.689 220.166 189.689 218.35 189.869 216.854C190.319 216.563 190.73 216.207 191.09 215.796C191.62 214.914 192.101 213.998 192.531 213.054C192.61 213.143 192.706 213.212 192.811 213.259C192.917 213.306 193.03 213.328 193.144 213.326C193.848 213.326 196.516 209.394 195.825 208.489C195.431 207.967 194.798 208.42 194.326 208.9C195.031 207.153 195.528 205.824 195.528 205.824C195.593 205.601 195.657 205.379 195.709 205.128C196.768 200.556 194.184 196.847 189.94 196.847C185.697 196.847 181.395 200.556 180.335 205.128C180.284 205.351 180.245 205.573 180.206 205.824C180.206 205.824 180.083 207.153 179.986 208.9C179.735 208.42 179.308 207.967 178.695 208.489C177.59 209.394 178.443 213.305 179.134 213.326C179.401 213.318 179.66 213.223 179.877 213.054C179.865 213.972 179.923 214.889 180.051 215.796C180.271 216.31 180.609 216.755 181.033 217.09C180.503 218.559 179.702 220.215 178.565 221.133C176.214 223.019 170.246 224.39 168.056 226.276C166.086 227.974 164.329 232.936 163.993 233.931H199.165C199.21 232.936 199.752 227.974 198.57 226.276Z" fill="#8DBCF8"/>
</g>
<path d="M181.02 245.1H205.747" stroke="#7094D8" stroke-width="1.15" stroke-miterlimit="10"/>
<path d="M96.9371 173.702H155.796" stroke="#7094D8" stroke-width="1.15" stroke-miterlimit="10"/>
<path d="M169.27 173.702H183.617" stroke="#7094D8" stroke-width="1.15" stroke-miterlimit="10"/>
<path d="M231.197 115.358H236.171C236.511 115.358 236.845 115.444 237.149 115.609C237.452 115.774 237.715 116.014 237.917 116.308C238.118 116.602 238.253 116.944 238.31 117.305C238.367 117.665 238.344 118.036 238.244 118.385L236.145 125.748" stroke="#7094D8" stroke-width="1.15" stroke-miterlimit="10"/>
<path d="M73.767 21.2044H71.2284C71.086 21.2112 70.9442 21.1806 70.8152 21.1152C70.6863 21.0497 70.574 20.9514 70.4882 20.8288C70.4023 20.7062 70.3454 20.5629 70.3225 20.4113C70.2995 20.2598 70.3112 20.1045 70.3564 19.9588L71.0023 17.2309C71.0903 16.8864 71.2768 16.5806 71.5355 16.3569C71.7941 16.1333 72.1116 16.0032 72.4428 15.9853H74.9814C75.1227 15.9808 75.263 16.0131 75.3902 16.0796C75.5175 16.146 75.628 16.2445 75.7123 16.3668C75.7967 16.4891 75.8523 16.6315 75.8747 16.782C75.897 16.9324 75.8852 17.0864 75.8405 17.2309L75.1945 19.9588C75.1064 20.3006 74.9216 20.6043 74.6657 20.8276C74.4098 21.0509 74.0957 21.1826 73.767 21.2044Z" fill="#BFD9FF"/>
<path d="M71.9132 29.214H69.3746C69.233 29.2208 69.092 29.1904 68.9638 29.1253C68.8356 29.0603 68.724 28.9625 68.6387 28.8405C68.5535 28.7185 68.4971 28.5759 68.4745 28.4252C68.4519 28.2744 68.4638 28.12 68.5091 27.9753L69.155 25.2404C69.243 24.8959 69.4295 24.5901 69.6882 24.3665C69.9468 24.1428 70.2643 24.0127 70.5955 23.9948H73.1341C73.276 23.9892 73.417 24.0207 73.5451 24.0866C73.6732 24.1525 73.7846 24.2509 73.8697 24.3734C73.9548 24.4958 74.011 24.6387 74.0337 24.7897C74.0563 24.9407 74.0446 25.0953 73.9997 25.2404L73.3537 27.9753C73.2638 28.3179 73.0765 28.6217 72.8181 28.8438C72.5598 29.066 72.2433 29.1954 71.9132 29.214Z" fill="#EDF4FF"/>
<path d="M79.981 29.214H77.4618C77.3202 29.2208 77.1792 29.1904 77.051 29.1253C76.9227 29.0603 76.8111 28.9625 76.7259 28.8405C76.6406 28.7185 76.5843 28.5759 76.5617 28.4252C76.5391 28.2744 76.5509 28.12 76.5962 27.9753L77.2422 25.2404C77.331 24.8965 77.5178 24.5912 77.7762 24.3677C78.0347 24.1442 78.3517 24.0138 78.6827 23.9948H81.2212C81.3631 23.9892 81.5042 24.0207 81.6323 24.0866C81.7604 24.1525 81.8718 24.2509 81.9568 24.3734C82.0419 24.4958 82.0982 24.6387 82.1209 24.7897C82.1435 24.9407 82.1318 25.0953 82.0868 25.2404L81.4408 27.9753C81.3507 28.3217 81.1608 28.6284 80.8984 28.851C80.636 29.0737 80.3148 29.2008 79.981 29.214Z" fill="#BFD9FF"/>
<path d="M88.0488 29.214H85.5167C85.3746 29.2226 85.2327 29.1933 85.1037 29.1287C84.9746 29.0642 84.8623 28.9663 84.7767 28.8438C84.6911 28.7213 84.6349 28.578 84.613 28.4265C84.5911 28.275 84.6042 28.1201 84.6511 27.9753L85.2971 25.2405C85.3859 24.8965 85.5727 24.5913 85.8311 24.3678C86.0896 24.1443 86.4066 24.0138 86.7375 23.9948H89.2761C89.4185 23.9875 89.5603 24.0179 89.6893 24.0834C89.8182 24.1488 89.9303 24.2473 90.0157 24.3702C90.1011 24.4931 90.1572 24.6367 90.1792 24.7885C90.2012 24.9402 90.1883 25.0954 90.1417 25.2405L89.4957 27.9753C89.4072 28.3201 89.2194 28.6258 88.9594 28.8484C88.6994 29.071 88.3806 29.199 88.0488 29.214Z" fill="#EDF4FF"/>
<path d="M70.014 37.4116H67.4754C67.3335 37.4172 67.1925 37.3857 67.0644 37.3198C66.9363 37.2538 66.8249 37.1554 66.7398 37.033C66.6547 36.9105 66.5984 36.7677 66.5758 36.6167C66.5532 36.4657 66.5648 36.311 66.6098 36.1659L67.2558 33.4381C67.3446 33.0941 67.5314 32.7888 67.7898 32.5653C68.0482 32.3419 68.3653 32.2114 68.6962 32.1924H71.2348C71.3767 32.1868 71.5177 32.2183 71.6459 32.2842C71.774 32.3502 71.8853 32.4486 71.9704 32.571C72.0555 32.6935 72.1118 32.8363 72.1344 32.9873C72.157 33.1383 72.1454 33.293 72.1004 33.4381L71.4544 36.1659C71.3665 36.5104 71.18 36.8163 70.9213 37.0399C70.6627 37.2636 70.3452 37.3936 70.014 37.4116Z" fill="#EDF4FF"/>
<path d="M67.9857 46.1659H65.4536C65.3115 46.1745 65.1696 46.1452 65.0406 46.0807C64.9115 46.0161 64.7992 45.9182 64.7136 45.7957C64.628 45.6733 64.5718 45.5299 64.5499 45.3784C64.528 45.227 64.5411 45.072 64.588 44.9273L65.234 42.1924C65.3213 41.8482 65.5078 41.5427 65.7667 41.32C66.0256 41.0974 66.3435 40.9691 66.6744 40.9537H69.2065C69.3486 40.9451 69.4905 40.9744 69.6195 41.039C69.7486 41.1036 69.8609 41.2014 69.9465 41.3239C70.0321 41.4464 70.0884 41.5897 70.1103 41.7412C70.1322 41.8927 70.1191 42.0477 70.0721 42.1924L69.4262 44.9273C69.338 45.271 69.1512 45.5759 68.8925 45.7984C68.6337 46.0208 68.3164 46.1495 67.9857 46.1659Z" fill="#EDF4FF"/>
<path d="M78.1079 37.4116H75.5241C75.3818 37.4189 75.2399 37.3885 75.111 37.3231C74.982 37.2577 74.87 37.1592 74.7845 37.0362C74.6991 36.9133 74.643 36.7697 74.621 36.618C74.5991 36.4663 74.6119 36.3111 74.6585 36.166L75.3045 33.4381C75.3915 33.0931 75.5778 32.7867 75.8367 32.5629C76.0955 32.3391 76.4135 32.2094 76.745 32.1925H79.2771C79.4194 32.1852 79.5613 32.2156 79.6903 32.281C79.8192 32.3464 79.9312 32.4449 80.0167 32.5679C80.1021 32.6908 80.1582 32.8344 80.1802 32.9861C80.2022 33.1378 80.1893 33.293 80.1427 33.4381L79.4967 36.166C79.4126 36.5025 79.234 36.8027 78.9854 37.0257C78.7368 37.2487 78.4303 37.3835 78.1079 37.4116Z" fill="#EDF4FF"/>
<path d="M74.5487 52.6864H72.0102C71.8685 52.6932 71.7275 52.6628 71.5993 52.5977C71.4711 52.5327 71.3595 52.4349 71.2742 52.3129C71.1889 52.1909 71.1326 52.0483 71.11 51.8976C71.0874 51.7468 71.0993 51.5924 71.1446 51.4477L71.7905 48.7128C71.8793 48.3689 72.0661 48.0636 72.3246 47.8401C72.583 47.6166 72.9001 47.4862 73.231 47.4672H75.7696C75.9115 47.4616 76.0525 47.4931 76.1806 47.559C76.3087 47.6249 76.4201 47.7233 76.5052 47.8458C76.5903 47.9682 76.6465 48.1111 76.6692 48.2621C76.6918 48.4131 76.6801 48.5678 76.6351 48.7128L75.9892 51.4477C75.9001 51.7909 75.713 52.0952 75.4545 52.3175C75.196 52.5398 74.8791 52.6689 74.5487 52.6864Z" fill="#BFD9FF"/>
<path d="M114.442 5.29627H114.403H114.287C114.029 5.29627 113.764 5.26147 113.493 5.26147C105.974 5.26147 98.3645 11.7611 96.3621 19.8264L96.2717 20.2092V20.3344L96.2135 20.578C94.5599 28.7547 99.4433 35.2612 107.195 34.9203C114.3 34.6141 121.47 28.4972 123.608 20.9259C125.908 12.7005 121.722 5.84602 114.442 5.29627ZM119.61 20.6406C118.111 26.0268 112.982 30.3831 107.944 30.5431C102.518 30.731 99.1332 26.1938 100.257 20.4945L100.412 19.7986C101.853 14.148 107.195 9.61774 112.466 9.61774C112.743 9.61774 113.008 9.61774 113.267 9.65253C118.324 10.1327 121.225 14.9135 119.629 20.6406H119.61Z" fill="#EBEDFC"/>
<path d="M113.699 7.82244C113.637 8.03437 113.616 8.25762 113.636 8.47878C113.656 8.69995 113.717 8.91446 113.816 9.10944C113.915 9.30443 114.05 9.47586 114.212 9.61345C114.374 9.75104 114.56 9.85194 114.759 9.9101C118.867 11.0862 121.063 15.4772 119.629 20.6059C118.131 25.9921 113.002 30.3484 107.963 30.5084C102.925 30.6685 99.7664 26.9594 100.07 21.9699C100.092 21.7373 100.067 21.5023 99.9959 21.2813C99.925 21.0603 99.8102 20.8586 99.6595 20.6903C99.5088 20.522 99.3259 20.3912 99.1235 20.3069C98.9211 20.2226 98.704 20.1869 98.4874 20.2023C97.8465 20.2355 97.2368 20.51 96.7646 20.9781C96.2923 21.4461 95.9876 22.0779 95.9036 22.7632C95.4579 29.8752 100.128 35.2265 107.214 34.9134C114.3 34.6002 121.49 28.4903 123.628 20.9191C125.688 13.6053 122.575 7.37011 116.735 5.69998C116.075 5.5828 115.398 5.73544 114.836 6.12802C114.274 6.52059 113.869 7.12483 113.699 7.82244Z" fill="#A5C5FF"/>
<path d="M148.69 3.80017H148.516C148.257 3.80017 148.006 3.80017 147.747 3.80017C140.138 3.80017 132.438 10.4389 130.539 18.6296C128.64 26.8202 133.271 33.4659 140.874 33.4659C141.133 33.4659 141.391 33.4659 141.649 33.4659H141.837C149.078 32.944 156.177 26.5905 158.044 18.8035C158.052 18.7589 158.063 18.7147 158.076 18.6713C159.897 10.7521 155.731 4.33601 148.69 3.80017ZM142.573 29.0261H142.534C142.379 29.0261 142.218 29.0261 142.056 29.0261H141.888C136.533 29.0261 133.271 24.3428 134.602 18.5878C135.933 12.8328 141.372 8.14948 146.733 8.14948H146.894H147.366H147.405C152.359 8.52526 155.298 13.0207 154.019 18.5878C154.017 18.6319 154.017 18.676 154.019 18.72C152.656 24.1967 147.663 28.6573 142.573 29.0261Z" fill="white"/>
<path d="M153.393 20.5502C152.514 22.6535 151.186 24.5028 149.516 25.947C147.847 27.3911 145.884 28.389 143.788 28.8591C143.274 28.9669 142.799 29.2254 142.414 29.6061C142.028 29.9868 141.748 30.4749 141.604 31.0163C141.512 31.3098 141.497 31.625 141.56 31.9272C141.624 32.2294 141.763 32.507 141.963 32.7293C142.164 32.9516 142.417 33.11 142.696 33.1872C142.974 33.2643 143.267 33.2572 143.542 33.1666C146.529 32.5013 149.326 31.0821 151.704 29.0255C154.083 26.969 155.974 24.3338 157.223 21.3365C157.772 19.9865 157.107 18.7339 155.834 18.7339C155.31 18.7602 154.804 18.9444 154.372 19.2655C153.941 19.5866 153.601 20.0316 153.393 20.5502Z" fill="#BFD9FF"/>
<path d="M112.162 56.0056H86.5049C86.4745 56.0068 86.4442 56.0003 86.4165 55.9865C86.3889 55.9727 86.3646 55.9521 86.3457 55.9264C86.3269 55.9006 86.3139 55.8704 86.3079 55.8382C86.3019 55.8061 86.303 55.7728 86.3111 55.7412L87.4609 50.9883C87.4712 50.9417 87.4962 50.9004 87.5315 50.8712C87.5667 50.8421 87.6103 50.8269 87.6547 50.8282H113.318C113.348 50.8281 113.378 50.8355 113.404 50.8497C113.431 50.864 113.455 50.8847 113.473 50.9103C113.491 50.9359 113.503 50.9657 113.509 50.9973C113.515 51.029 113.513 51.0616 113.505 51.0926L112.343 55.8525C112.331 55.895 112.307 55.9324 112.275 55.9598C112.242 55.9872 112.203 56.0032 112.162 56.0056Z" fill="#EDF4FF"/>
<path d="M231.216 78.068C236.558 72.9848 237.906 65.2258 234.227 60.7377C230.548 56.2496 223.234 56.732 217.892 61.8152C212.549 66.8983 211.201 74.6574 214.88 79.1454C218.559 83.6335 225.873 83.1511 231.216 78.068Z" fill="#EFD9D5"/>
<path d="M241.384 83.1246C241.147 84.0525 240.646 84.8766 239.95 85.4799C239.254 86.0833 238.4 86.4352 237.508 86.4857C237.124 86.5064 236.74 86.4251 236.392 86.2488C236.043 86.0726 235.74 85.8069 235.509 85.475C235.278 85.1431 235.127 84.7552 235.068 84.3454C235.008 83.9356 235.043 83.5164 235.17 83.1246C235.406 82.1967 235.908 81.3726 236.603 80.7692C237.299 80.1659 238.154 79.8139 239.045 79.7634C239.429 79.7444 239.812 79.8269 240.16 80.0036C240.507 80.1804 240.81 80.446 241.04 80.7774C241.271 81.1088 241.423 81.4959 241.482 81.905C241.542 82.3141 241.508 82.7328 241.384 83.1246Z" fill="#73A5FF"/>
<path d="M221.605 76.1728C221.435 76.1801 221.265 76.1443 221.111 76.0681C220.956 75.992 220.82 75.8776 220.713 75.7344L217.768 71.5034C217.586 71.1463 217.537 70.7284 217.629 70.3335C217.721 69.9386 217.948 69.5959 218.265 69.3739C218.395 69.2319 218.549 69.1191 218.719 69.0421C218.889 68.965 219.072 68.9254 219.257 68.9254C219.441 68.9254 219.624 68.965 219.794 69.0421C219.965 69.1191 220.119 69.2319 220.248 69.3739L222.445 72.5333L230.312 65.7484C230.442 65.608 230.597 65.4967 230.767 65.4207C230.937 65.3448 231.12 65.3057 231.304 65.3057C231.488 65.3057 231.67 65.3448 231.84 65.4207C232.01 65.4967 232.165 65.608 232.295 65.7484C232.477 66.1065 232.527 66.5254 232.435 66.9215C232.343 67.3175 232.115 67.6615 231.798 67.8847L222.696 75.7344C222.388 76.0071 222.004 76.1614 221.605 76.1728Z" fill="white"/>
<path d="M296.877 284C323.715 284 345.471 282.031 345.471 279.602C345.471 277.173 323.715 275.204 296.877 275.204C270.039 275.204 248.282 277.173 248.282 279.602C248.282 282.031 270.039 284 296.877 284Z" fill="#BFD9FF"/>
<path d="M298.731 45.5604C298.731 45.5604 297.491 48.2257 296.754 54.0851C296.018 59.9444 297.988 93.7507 297.988 93.7507L319.252 91.3569L309.608 47.1331L298.731 45.5604Z" fill="#024470"/>
<path d="M286.102 188.489L278.687 228.051L293.15 228.454C293.15 228.454 296.864 193.284 295.378 193.284C293.893 193.284 286.102 188.489 286.102 188.489Z" fill="#73DDD9"/>
<path d="M319.75 273.875C319.75 273.875 314.311 279.999 312.082 281.335C312.58 282.399 320.48 282.399 323.458 280.799C326.435 279.198 328.625 275.475 328.625 275.475L328.38 279.47H329.865C329.865 279.47 331.345 273.903 331.345 272.546C331.345 271.189 329.865 269.344 329.865 269.344L319.75 273.875Z" fill="#713336"/>
<path d="M317.521 195.017L322.967 266.951L329.426 266.415C329.426 266.415 336.842 213.667 333.877 195.553C330.912 177.439 317.521 195.017 317.521 195.017Z" fill="#FF8D68"/>
<path d="M322.967 266.951C322.967 266.951 320.984 272.518 318.264 275.204C315.545 277.89 322.469 277.869 325.434 275.204C328.399 272.539 328.664 270.945 329.639 270.409C330.615 269.873 329.394 266.415 329.394 266.415L322.967 266.951Z" fill="#FF8D68"/>
<path d="M275.121 272.664C275.121 272.664 268.798 277.716 266.401 278.628C266.718 279.769 274.521 281.202 277.692 280.165C280.864 279.129 283.648 275.858 283.648 275.858L282.776 279.755L284.242 280.019C284.242 280.019 286.58 274.779 286.787 273.464C286.994 272.149 285.825 270.04 285.825 270.04L275.121 272.664Z" fill="#713336"/>
<path d="M285.244 194.536L279.346 266.422L285.767 267.062C285.767 267.062 301.334 216.415 301.269 198.023C301.205 179.63 285.244 194.536 285.244 194.536Z" fill="#FF8D68"/>
<path d="M279.346 266.422C279.346 266.422 276.523 271.578 273.423 273.708C270.322 275.837 277.15 277.097 280.496 275.016C283.842 272.935 284.333 271.397 285.386 271.05C286.438 270.702 285.767 267.062 285.767 267.062L279.346 266.422Z" fill="#FF8D68"/>
<path d="M262.455 80.2644L249.671 77.5504C249.671 77.5504 249.478 79.4293 250.64 79.8469L251.803 80.2644C251.803 80.2644 254.71 87.78 256.066 88.6151C257.423 89.4501 265.562 93.0618 265.562 93.0618L267.687 84.231L262.455 80.2644Z" fill="#FF7759"/>
<path d="M271.653 91.3987C271.653 91.3987 271.53 90.4662 269.818 86.7293C268.895 84.8532 268.117 82.898 267.493 80.8838C267.493 80.8838 261.485 78.3786 260.516 77.126C260.119 76.5119 259.589 76.0105 258.973 75.6647C258.973 75.6647 257.81 77.9611 259.548 79.6312C261.285 81.3014 262.842 82.554 262.842 82.554C262.842 82.554 262.648 87.3556 263.229 89.652C263.606 91.0492 264.433 92.2559 265.561 93.0549L271.653 91.3987Z" fill="#FF8D68"/>
<path d="M291.561 99.1092C291.561 99.1092 282.905 114.029 282.653 112.693C282.401 111.357 271.53 90.849 271.53 90.849L265.562 93.041C265.562 93.041 274.495 123.083 280.186 127.884C280.186 127.884 280.677 128.678 282.408 128.413C284.139 128.149 297.491 113.229 297.491 113.229L291.561 99.1092Z" fill="#FF8D68"/>
<path d="M299.667 81.3918C299.667 81.3918 295.036 83.389 292.807 86.8546C290.579 90.3201 284.165 106.012 284.165 106.012C286.798 110.429 290.846 113.649 295.54 115.059L306.424 93.4864L299.667 81.3918Z" fill="#EFD9D5"/>
<path d="M293.906 132.54C293.906 132.54 294.28 138.935 294.28 141.336C294.28 141.336 285.373 187.689 285.004 198.482C284.636 209.275 292.052 231.272 292.052 231.272C292.052 231.272 323.955 230.472 334.342 228.071L335.453 204.898C335.453 204.898 336.939 164.537 335.453 152.943C333.967 141.35 327.663 135.358 327.663 135.358L325.809 129.791L293.906 132.54Z" fill="#73DDD9"/>
<path d="M321.171 78.5944C321.171 78.5944 329.517 82.7697 332.113 87.1886C334.71 91.6075 342.5 115.358 342.5 115.358C342.5 115.358 333.78 118.754 326.177 118.754C326.177 118.754 326.92 126.346 327.663 128.747C328.406 131.148 325.809 132.143 325.809 132.143C325.809 132.143 307.632 137.536 294.093 134.342C294.093 134.342 292.426 133.938 292.426 133.145C292.426 132.352 292.607 130.362 292.607 130.362C292.607 130.362 291.315 116.771 290.941 114.356C290.566 111.941 286.49 105.428 286.858 102.832C287.227 100.237 293.537 88.1768 293.537 88.1768C293.537 88.1768 297.801 82.7836 299.655 81.3849C301.508 79.9861 306.146 79.9931 306.146 79.9931L321.171 78.5944Z" fill="#EFD9D5"/>
<path d="M305.352 71.406C305.352 71.7191 306.418 78.4971 302.936 83.2987C299.454 88.1003 313.2 87.996 316.397 82.9856C319.298 78.4971 318.981 77.7664 318.981 77.7664C318.981 77.7664 316.662 69.6314 317.34 64.3079C317.173 59.5132 305.158 62.429 305.352 71.406Z" fill="#FF8D68"/>
<path d="M305.268 43.0972C305.268 43.0972 301.256 44.2036 298.983 50.8355C296.709 57.4673 298.227 71.559 299.745 73.2222C301.263 74.8854 305.856 74.2451 312.238 71.9766C318.975 69.5827 321.248 62.0323 322.456 57.0567C324.762 47.5161 317.069 37.711 305.268 43.0972Z" fill="#FF8D68"/>
<path d="M297.491 50.6196C297.491 50.6196 301.205 60.2089 315.299 60.7796L318.574 77.7314C318.574 77.7314 324.575 80.8351 326.92 82.2269C326.92 82.2269 329.639 51.4547 323.212 43.9947C316.785 36.5348 305.404 38.4276 300.953 42.6656C296.502 46.9035 297.491 50.6196 297.491 50.6196Z" fill="#024470"/>
<path d="M321.171 78.5944L318.019 75.3933C318.019 75.3933 315.235 83.9806 305.403 84.579C304.581 82.9252 304.382 80.9937 304.848 79.1859L303.181 80.5777C303.181 80.5777 299.654 85.9708 300.029 87.5366C300.404 89.1023 305.1 86.3396 305.1 86.3396C305.1 86.3396 310.661 89.9374 312.89 90.1322C315.118 90.3271 320.803 79.1929 321.171 78.5944Z" fill="white"/>
<path d="M315.519 60.5013C315.519 60.5013 317.005 57.8569 318.49 58.8311C319.976 59.8054 317.547 65.79 315.519 65.9222C313.491 66.0545 314.569 62.0253 315.519 60.5013Z" fill="#FF7759"/>
<path d="M319.007 95.9081L324.691 117.752" stroke="#BB524F" stroke-width="1.15" stroke-miterlimit="10"/>
<path d="M315.487 97.1746C316.586 100.086 318.539 102.53 321.048 104.133" stroke="#BB524F" stroke-width="1.15" stroke-miterlimit="10"/>
<path d="M321.972 91.9832C321.972 91.9832 322.715 86.4161 328.651 85.9846" stroke="#BB524F" stroke-width="1.15" stroke-miterlimit="10"/>
<path d="M292.859 89.5824C292.859 89.5824 286.8 100.306 286.858 102.804C286.916 105.303 290.818 112.547 290.818 112.547L295.637 126.137" stroke="#BB524F" stroke-width="1.15" stroke-miterlimit="10"/>
<path d="M313.814 134.14L320.305 126.144" stroke="#BB524F" stroke-width="1.15" stroke-miterlimit="10"/>
<path d="M259.412 82.5889L251.803 80.2646C252.102 81.0963 252.497 81.8842 252.978 82.6098C253.476 83.1456 258.792 85.1428 258.792 85.1428" stroke="#E66657" stroke-width="1.03" stroke-miterlimit="10"/>
<path d="M252.978 82.5889C252.978 82.5889 253.721 84.9897 254.096 85.3724C254.471 85.7552 259.16 87.2374 259.16 87.2374" stroke="#E66657" stroke-width="1.03" stroke-miterlimit="10"/>
<path d="M260.523 80.5914L262.842 82.5399L264.599 82.0528" stroke="#E66657" stroke-width="1.03" stroke-miterlimit="10"/>
<path d="M306.127 73.6675C307.623 73.25 309.028 72.5172 310.259 71.5115C311.491 70.5058 312.526 69.2471 313.303 67.8081" stroke="#E66657" stroke-width="1.03" stroke-miterlimit="10"/>
<path d="M302.064 61.9415L301.205 67.0006L302.807 67.4043" stroke="#E66657" stroke-width="1.03" stroke-miterlimit="10"/>
<path d="M301.818 69.673C303.478 69.9399 305.173 69.6123 306.644 68.7405" stroke="#E66657" stroke-width="1.03" stroke-miterlimit="10"/>
<path d="M310.597 64.5444C310.601 64.8708 310.545 65.1949 310.432 65.4978C310.319 65.8007 310.151 66.0764 309.939 66.3088C309.726 66.5413 309.472 66.7259 309.193 66.8518C308.913 66.9778 308.613 67.0426 308.31 67.0426C307.704 67.0408 307.124 66.7806 306.695 66.3191C306.267 65.8575 306.025 65.2319 306.024 64.5792C306.024 63.9252 306.264 63.2979 306.693 62.8348C307.122 62.3717 307.703 62.1106 308.31 62.1088C308.912 62.1087 309.49 62.3644 309.918 62.8204C310.346 63.2764 310.59 63.8959 310.597 64.5444Z" fill="#FA6157"/>
<path d="M306.127 61.2111C306.128 61.2899 306.114 61.3681 306.086 61.4412C306.059 61.5142 306.018 61.5806 305.966 61.6363C305.914 61.6921 305.853 61.7361 305.785 61.7659C305.717 61.7956 305.645 61.8105 305.571 61.8095C305.498 61.8095 305.426 61.794 305.359 61.764C305.291 61.7339 305.23 61.6898 305.179 61.6342C305.127 61.5787 305.086 61.5127 305.058 61.4401C305.03 61.3675 305.016 61.2896 305.016 61.2111C305.016 61.1325 305.03 61.0546 305.058 60.982C305.086 60.9094 305.127 60.8434 305.179 60.7879C305.23 60.7323 305.291 60.6882 305.359 60.6581C305.426 60.6281 305.498 60.6126 305.571 60.6126C305.645 60.6117 305.717 60.6265 305.785 60.6562C305.853 60.686 305.914 60.73 305.966 60.7858C306.018 60.8416 306.059 60.9079 306.086 60.9809C306.114 61.054 306.128 61.1322 306.127 61.2111Z" fill="#024470"/>
<path d="M300.152 61.2111C300.152 61.3698 300.093 61.522 299.989 61.6342C299.885 61.7465 299.744 61.8095 299.596 61.8095C299.523 61.8105 299.451 61.7956 299.383 61.7659C299.315 61.7361 299.253 61.6921 299.202 61.6363C299.15 61.5806 299.109 61.5142 299.081 61.4412C299.054 61.3681 299.04 61.2899 299.041 61.2111C299.04 61.1322 299.054 61.054 299.081 60.9809C299.109 60.9079 299.15 60.8416 299.202 60.7858C299.253 60.73 299.315 60.686 299.383 60.6562C299.451 60.6265 299.523 60.6117 299.596 60.6126C299.744 60.6126 299.885 60.6756 299.989 60.7879C300.093 60.9001 300.152 61.0523 300.152 61.2111Z" fill="#024470"/>
<path d="M296.192 139.937C296.192 139.937 306.398 143.333 316.042 138.935" stroke="#562525" stroke-width="1.15" stroke-miterlimit="10"/>
<path d="M299.222 143.869C299.222 143.869 304.389 145.734 312.825 142.268" stroke="#562525" stroke-width="1.15" stroke-miterlimit="10"/>
<path d="M296.997 141.007L277.401 153.196L292.422 181.225L312.018 169.037L296.997 141.007Z" fill="#EFD9D5"/>
<path d="M315.545 151.857C315.545 151.857 312.457 155.518 311.527 156.318C310.597 157.118 304.292 157.71 304.292 157.71C304.292 157.71 301.508 162.706 300.772 162.505C300.036 162.303 300.21 161.711 300.21 161.711C300.21 161.711 300.029 152.713 300.585 151.718C301.14 150.723 310.229 147.919 310.229 147.919L311.34 146.527L315.545 151.857Z" fill="#FF8D68"/>
<path d="M339.781 116.291C340.026 117.091 342.003 123.354 343.01 126.548C344.018 129.742 321.739 146.527 318.277 149.464L315.558 151.858L311.353 146.527L330.879 125.497L328.031 118.573L339.781 116.291Z" fill="#FF8D68"/>
<path d="M300.766 162.512L301.941 156.917" stroke="#E66657" stroke-width="1.03" stroke-miterlimit="10"/>
<path d="M300.087 157.452L301.45 154.251" stroke="#E66657" stroke-width="1.03" stroke-miterlimit="10"/>
<path d="M300.585 151.725L300.087 162.512H301.696L304.292 157.717" stroke="#E66657" stroke-width="1.03" stroke-miterlimit="10"/>
<path d="M48.5946 284C75.4326 284 97.1891 282.031 97.1891 279.602C97.1891 277.173 75.4326 275.204 48.5946 275.204C21.7565 275.204 0 277.173 0 279.602C0 282.031 21.7565 284 48.5946 284Z" fill="#BFD9FF"/>
<path d="M29.0158 265.461C29.0158 265.461 30.0493 263.081 33.8798 263.715C37.7102 264.348 38.1495 265.141 38.5887 267.194C39.0279 269.247 40.3586 271.474 41.2435 271.954C42.1285 272.434 45.3647 274.807 48.013 275.28C50.6614 275.753 50.9586 277.507 50.3708 278.3C49.7829 279.094 39.7708 279.692 37.5616 279.407C37.5616 279.407 30.0493 279.247 28.2794 278.614C26.5095 277.98 28.8866 266.255 29.0158 265.461Z" fill="#2D2737"/>
<path d="M24.7785 209.7C24.4986 207.786 24.8881 205.829 25.8716 204.208C26.855 202.587 28.3623 201.417 30.1011 200.925C36.5606 198.719 37.762 201.92 39.7063 207.918C41.6506 213.917 38.0592 265.099 38.0592 265.099C38.0592 265.099 30.6437 266.491 28.7382 265.252C28.7382 265.252 23.0926 231.926 23.4801 222.803C23.8677 213.68 24.7785 209.7 24.7785 209.7Z" fill="#EFD9D5"/>
<path d="M27.9242 263.241C27.9242 263.241 36.3215 262.448 38.9699 261.968L38.8278 266.094C38.8278 266.094 32.2003 267.368 28.0727 266.728L27.9242 263.241Z" fill="#EFD9D5"/>
<path d="M25.8636 81.4197C25.8636 81.4197 20.5604 81.7328 17.3242 94.7459C14.0881 107.759 12.021 123.618 13.1966 127.745C14.3723 131.872 27.0457 142.978 31.7547 142.978C36.4636 142.978 36.7608 139.171 35.8823 136.019C35.0038 132.867 25.8636 124.279 25.8636 124.279C25.8636 124.279 33.2274 98.8934 32.9691 92.2268C32.7107 85.5602 29.1063 81.4197 25.8636 81.4197Z" fill="#73DDD9"/>
<path d="M92.254 77.5365L91.369 77.6339L93.3456 73.4586C93.3456 73.4586 98.3517 73.1176 99.1591 75.3931L96.8402 80.8559L92.254 77.5365Z" fill="#FF8D68"/>
<path d="M95.0638 65.5952C95.0638 65.5952 94.8701 61.2946 96.2911 60.6892C97.7122 60.0838 99.2948 61.2668 99.2948 61.2668C99.2948 61.2668 101.594 61.0163 102.324 62.067C102.777 62.863 103.002 63.7854 102.97 64.7184C103.353 64.8143 103.707 65.0144 103.997 65.2995C104.288 65.5846 104.506 65.9451 104.63 66.3468C104.966 67.669 104.365 70.2368 104.365 70.2368C104.365 70.2368 102.867 72.2201 101.136 71.726C99.4046 71.2319 95.0638 65.5952 95.0638 65.5952Z" fill="#FF7759"/>
<path d="M92.4412 69.0607C92.4412 69.0607 91.9115 63.4379 92.4412 62.6933C92.9709 61.9487 98.778 53.3823 98.778 53.3823C99.1142 53.8066 99.3389 54.3202 99.4286 54.8696C99.5183 55.4191 99.4699 55.9844 99.2882 56.5069C98.5971 58.177 95.8906 63.2291 95.8906 63.2291V67.5506C94.8544 68.3141 93.6781 68.829 92.4412 69.0607Z" fill="#FF7759"/>
<path d="M92.8677 73.5562C92.8677 73.5562 91.4919 64.5096 92.4285 63.2918C93.3651 62.074 97.9643 62.7769 98.8427 63.1318C99.7212 63.4867 102.15 66.8617 102.486 68.1839C102.822 69.5061 100.548 74.3077 99.1528 75.3655C97.7576 76.4232 93.6623 75.289 92.8677 73.5562Z" fill="#FF8D68"/>
<path d="M89.6313 79.513L91.4012 76.0335C91.4012 76.0335 95.5224 75.2402 97.5829 78.7266C98.1772 80.0001 97.88 80.0001 97.88 80.0001L96.5559 82.8532L89.6313 79.513Z" fill="#DEE0E8"/>
<path d="M47.6772 41.2947C47.6772 41.2947 52.0374 42.4986 54.5049 49.7011C56.9724 56.9035 55.3252 72.227 53.678 74.0572C52.0309 75.8874 47.0377 75.1706 40.1132 72.7071C32.7817 70.0976 30.3077 61.893 29.0158 56.479C26.4902 46.1172 34.8293 35.4562 47.6772 41.2947Z" fill="#FF8D68"/>
<path d="M32.0518 81.0994L35.5851 67.4531C35.5851 67.4531 42.6517 65.2332 47.1023 70.3132L48.5751 72.533V81.4195C43.0928 82.3615 37.4991 82.2532 32.0518 81.0994Z" fill="#FF8D68"/>
<path d="M22.1817 154.558C20.6066 166.397 20.6066 178.418 22.1817 190.257C24.8365 209.296 30.1333 211.203 34.9973 211.203C39.8613 211.203 41.179 195.97 42.0639 189.303C42.9489 182.637 46.4822 159.798 39.8548 154.558C33.2274 149.318 25.715 148.844 22.1817 154.558Z" fill="#EFD9D5"/>
<path d="M40.7397 176.93C40.7397 176.93 35.4364 161.697 44.7187 155.038C54.0009 148.378 61.0612 149.324 63.2703 160.271C65.4794 171.217 65.9251 208.823 62.831 216.436C59.7369 224.049 48.6913 212.149 40.7397 176.93Z" fill="#EFD9D5"/>
<path d="M56.1779 41.9906C56.1779 41.9906 58.2708 44.9133 57.0176 48.2953C55.7645 51.6774 51.1654 53.0274 51.1654 53.0274C51.1654 53.0274 52.6252 55.2751 51.1654 58.4275L50.1189 60.2298C50.1189 60.2298 51.5788 63.8345 51.1654 64.7392C50.752 65.6439 49.2792 65.4351 49.2792 65.4351C49.2792 65.4351 47.6062 60.4804 46.9796 60.9327C46.3531 61.385 44.6801 63.5631 44.6801 65.6508C44.6801 67.7385 45.326 69.2555 44.8932 70.6055C44.4605 71.9556 37.9881 71.9973 35.2751 71.5102C32.5621 71.0231 28.3699 62.0113 27.33 57.996C27.33 57.996 25.8637 52.3663 27.9759 47.6342C27.9759 47.6342 27.556 43.5772 31.1087 39.5271C34.6614 35.4771 45.9655 36.8201 47.8388 38.3998C47.8388 38.3998 47.6256 36.1451 49.7184 36.5975C51.8113 37.0498 54.9248 39.04 56.1779 41.9906Z" fill="#C53A45"/>
<path d="M49.9057 62.4637C49.9057 62.4637 49.2597 59.534 46.9795 60.891C44.6993 62.248 47.3994 69.2417 49.2791 68.7685C51.1588 68.2953 50.332 63.5632 49.9057 62.4637Z" fill="#FF7759"/>
<path d="M30.1785 81.03C30.1785 81.03 31.1668 77.2931 32.0517 76.973C32.9367 76.6529 43.8338 75.3864 49.7248 79.1998C52.3732 81.4197 52.0761 83.0063 52.0761 83.0063C52.0761 83.0063 34.4934 79.3668 30.1785 81.03Z" fill="#DEE0E8"/>
<path d="M27.9242 80.1461C27.9242 80.1461 46.1916 78.8796 59.1493 84.906C65.0403 88.0792 78.5276 102.442 78.5276 102.442L89.1341 78.643C89.1341 78.643 95.0962 76.3396 97.4539 82.3729C97.4539 82.3729 90.7489 110.452 85.1809 119.339C81.6476 122.512 64.7819 112.199 64.7819 112.199C64.7819 112.199 67.4367 149.004 66.5518 165.504C65.3697 168.677 42.3998 170.264 38.2723 169.951C34.1447 169.637 19.7207 164.557 19.4235 163.604C19.1264 162.651 21.4841 124.572 20.8963 120.132C20.3085 115.692 18.5386 93.7925 19.1264 90.6192C19.7142 87.446 22.3303 81.4196 27.9242 80.1461Z" fill="#73DDD9"/>
<path d="M47.3672 266.415C47.3672 266.415 48.3943 264.035 52.2248 264.668C56.0552 265.301 56.4945 266.095 56.9402 268.147C57.3859 270.2 58.7036 272.427 59.5886 272.9C60.4735 273.374 63.7162 275.76 66.3645 276.234C69.0129 276.707 69.31 278.454 68.7222 279.247C68.1344 280.04 58.1158 280.68 55.9067 280.36C55.9067 280.36 48.3943 280.2 46.6309 279.567C44.8674 278.934 47.2187 267.208 47.3672 266.415Z" fill="#3E3343"/>
<path d="M49.1307 210.723C49.0489 208.788 49.6364 206.889 50.7796 205.393C51.9228 203.898 53.5402 202.913 55.3188 202.629C61.9462 201.238 62.8312 204.536 64.1554 210.723C65.4796 216.909 56.643 267.368 56.643 267.368C56.643 267.368 49.1307 267.841 47.3672 266.415C47.3672 266.415 45.1581 232.615 46.4823 223.576C47.8065 214.536 49.1307 210.723 49.1307 210.723Z" fill="#EFD9D5"/>
<path d="M46.7793 267.208C46.7793 267.208 52.5217 268.955 57.3793 268.001L57.825 264.348L46.6307 263.555L46.7793 267.208Z" fill="#EFD9D5"/>
<path d="M38.97 173.361C38.97 173.361 45.1581 194.78 49.796 205.253" stroke="#2A2E59" stroke-width="1.03" stroke-miterlimit="10"/>
<path d="M51.5658 209.533C51.5658 209.533 55.3188 207.153 59.0717 209.533" stroke="#2A2E59" stroke-width="1.03" stroke-miterlimit="10"/>
<path d="M50.9004 212.15C50.9004 212.15 53.9945 210.25 59.2977 214.293" stroke="#2A2E59" stroke-width="1.03" stroke-miterlimit="10"/>
<path d="M27.7239 206.68C27.7239 206.68 30.1526 204.3 35.6755 206.916" stroke="#2A2E59" stroke-width="1.03" stroke-miterlimit="10"/>
<path d="M29.4745 209.059C30.5871 208.526 31.8144 208.333 33.0222 208.501C34.2299 208.669 35.3714 209.192 36.3215 210.013" stroke="#2A2E59" stroke-width="1.03" stroke-miterlimit="10"/>
<path d="M37.6456 212.866L36.3214 261.411" stroke="#2A2E59" stroke-width="1.03" stroke-miterlimit="10"/>
<path d="M55.9065 172.17C55.9065 172.17 60.9126 175.344 63.0119 170.264" stroke="#2A2E59" stroke-width="1.03" stroke-miterlimit="10"/>
<path d="M60.9127 172.818C60.9127 172.818 63.2704 192.49 62.6826 205.524" stroke="#2A2E59" stroke-width="1.03" stroke-miterlimit="10"/>
<path d="M19.0875 98.8658L21.4452 126.159" stroke="#524B81" stroke-width="1.03" stroke-miterlimit="10"/>
<path d="M59.5175 108.392C59.5175 108.392 76.958 121.955 85.1422 119.339" stroke="#524B81" stroke-width="1.03" stroke-miterlimit="10"/>
<path d="M80.2845 105.059C81.3786 105.822 82.2631 106.886 82.8458 108.142C83.4286 109.398 83.6884 110.799 83.5983 112.199" stroke="#524B81" stroke-width="1.03" stroke-miterlimit="10"/>
<path d="M79.3997 103.152C80.5472 102.847 81.7563 102.963 82.8361 103.481C83.9158 103.999 84.8045 104.889 85.3617 106.012" stroke="#524B81" stroke-width="1.03" stroke-miterlimit="10"/>
<path d="M58.8522 86.7363C58.8522 86.7363 49.5764 91.9694 55.7581 104.134" stroke="#524B81" stroke-width="1.03" stroke-miterlimit="10"/>
<path d="M45.707 70.9048C45.707 70.9048 47.2573 75.1915 52.4442 74.4747" stroke="#E66657" stroke-width="1.03" stroke-miterlimit="10"/>
<path d="M95.7098 62.102L97.441 60.4388C98.1358 60.4422 98.8017 60.7396 99.2948 61.267" stroke="#E66657" stroke-width="1.03" stroke-miterlimit="10"/>
<path d="M97.7704 62.3803C97.7704 62.262 100.238 60.8354 100.238 60.8354C100.238 60.8354 102.486 61.427 102.822 62.6935C103.031 63.3196 103.056 64 102.893 64.642" stroke="#E66657" stroke-width="1.03" stroke-miterlimit="10"/>
<path d="M100.677 64.6768C100.787 64.6768 103.81 64.8368 103.81 64.8368C104.148 65.1077 104.422 65.462 104.607 65.8699C104.793 66.2779 104.885 66.7278 104.876 67.182C104.829 68.2242 104.657 69.2557 104.366 70.2508C104.025 70.7392 103.585 71.1376 103.081 71.4161C102.576 71.6946 102.019 71.8458 101.452 71.8583" stroke="#E66657" stroke-width="1.03" stroke-miterlimit="10"/>
<path d="M102.408 68.01C102.522 68.2963 102.572 68.6076 102.552 68.9184C102.533 69.2292 102.446 69.5308 102.299 69.7984C101.821 70.9467 101.239 73.9738 99.1528 75.3656" stroke="#E66657" stroke-width="1.03" stroke-miterlimit="10"/>
<path d="M39.7451 47.3488C35.4366 45.0872 29.9138 47.8221 29.9138 47.8221C30.1726 46.8463 30.6512 45.9545 31.3071 45.2261C31.963 44.4977 32.7758 43.9551 33.6732 43.6467" stroke="#A03A45" stroke-width="1.37" stroke-miterlimit="10"/>
<path d="M30.1333 49.7288C30.1333 49.7288 31.2379 49.6035 32.6783 51.9835" stroke="#A03A45" stroke-width="1.37" stroke-miterlimit="10"/>
<path d="M49.1306 39.054C49.1306 39.054 54.5824 40.0073 54.731 45.8806" stroke="#A03A45" stroke-width="1.37" stroke-miterlimit="10"/>
</svg>
