<svg width="146" height="150" viewBox="0 0 146 150" fill="none" xmlns="http://www.w3.org/2000/svg">
<path d="M50.5 125.5L24 148.5V125.5L8 120L4.5 115V62.5L8 54.5H31.5V34L39.5 26H95L120.5 7L125 26H133.5L142 34V86.5L133.5 96.5H114V115L101 125.5H50.5Z" fill="white"/>
<path d="M118 64.7963C118 60.3416 116.242 56.0694 113.113 52.9195C109.985 49.7696 105.741 48 101.316 48H16.6838C12.259 48 8.01539 49.7696 4.88657 52.9195C1.75775 56.0694 0 60.3416 0 64.7963V111.215C0 115.67 1.75775 119.942 4.88657 123.092C8.01539 126.242 12.259 128.011 16.6838 128.011H18.6555V145.419C18.6737 146.277 18.9233 147.113 19.3774 147.84C19.8316 148.566 20.4733 149.154 21.2339 149.541C21.8504 149.836 22.5232 149.993 23.2057 149.999C24.265 150.017 25.2929 149.636 26.0874 148.931L52.0231 128.011H101.316C105.741 128.011 109.985 126.242 113.113 123.092C116.242 119.942 118 115.67 118 111.215V64.7963ZM108.9 111.215C108.9 113.24 108.101 115.182 106.679 116.614C105.256 118.045 103.327 118.85 101.316 118.85H50.5064C49.4562 118.883 48.445 119.258 47.6247 119.919L27.7558 135.799V123.431C27.7558 122.216 27.2764 121.051 26.4231 120.192C25.5698 119.332 24.4124 118.85 23.2057 118.85H16.6838C14.6725 118.85 12.7436 118.045 11.3214 116.614C9.89923 115.182 9.10026 113.24 9.10026 111.215V64.7963C9.10026 62.7715 9.89923 60.8295 11.3214 59.3978C12.7436 57.966 14.6725 57.1616 16.6838 57.1616H101.316C103.327 57.1616 105.256 57.966 106.679 59.3978C108.101 60.8295 108.9 62.7715 108.9 64.7963V111.215Z" fill="black"/>
<path d="M28 85.2037C28 89.6583 29.7578 93.9305 32.8866 97.0805C36.0154 100.23 40.259 102 44.6838 102L129.316 102C133.741 102 137.985 100.23 141.113 97.0805C144.242 93.9306 146 89.6584 146 85.2037L146 38.7848C146 34.3302 144.242 30.058 141.113 26.908C137.985 23.7581 133.741 21.9885 129.316 21.9885L127.344 21.9885L127.344 4.58143C127.326 3.72348 127.077 2.88666 126.623 2.16047C126.168 1.43429 125.527 0.846052 124.766 0.4587C124.15 0.163748 123.477 0.00742906 122.794 0.000615952C121.735 -0.0174887 120.707 0.36376 119.913 1.06948L93.9769 21.9885L44.6838 21.9885C40.259 21.9885 36.0154 23.7581 32.8866 26.908C29.7578 30.0579 28 34.3302 28 38.7848L28 85.2037ZM37.1003 38.7848C37.1003 36.76 37.8992 34.8181 39.3214 33.3863C40.7436 31.9545 42.6725 31.1501 44.6838 31.1501L95.4936 31.1501C96.5438 31.1173 97.555 30.7422 98.3753 30.0813L118.244 14.2011L118.244 26.5693C118.244 27.7842 118.724 28.9494 119.577 29.8084C120.43 30.6675 121.588 31.1501 122.794 31.1501L129.316 31.1501C131.327 31.1501 133.256 31.9545 134.679 33.3863C136.101 34.8181 136.9 36.76 136.9 38.7848L136.9 85.2037C136.9 87.2285 136.101 89.1705 134.679 90.6022C133.256 92.034 131.327 92.8384 129.316 92.8384L44.6838 92.8384C42.6725 92.8384 40.7436 92.034 39.3214 90.6022C37.8992 89.1704 37.1003 87.2285 37.1003 85.2037L37.1003 38.7848Z" fill="black"/>
<circle cx="54" cy="75" r="7" fill="#73DDD9"/>
<circle cx="73" cy="75" r="7" fill="#EFD9D5"/>
<circle cx="93" cy="75" r="7" fill="#73DDD9"/>
</svg>
